<svg xmlns="http://www.w3.org/2000/svg" viewBox="0 0 435.45 288.92">
  <g id="Layer_2" data-name="Layer 2">
    <g id="text">
      <g id="_9-line" data-name="9-line">
        <path id="_9-1" data-name="9-1" d="M6.07,49.72Q2.91,46.19,2.91,38.34V33.23H13.2v6.51q0,3.9,2.49,3.9a2.2,2.2,0,0,0,2-.82,5.26,5.26,0,0,0,.55-2.77,12.62,12.62,0,0,0-.61-4.23A9.45,9.45,0,0,0,16,33q-.95-1.12-3.38-3.5L8.14,25q-5.23-5.1-5.23-11.32Q2.91,7,6,3.5T15,0Q22,0,25.12,3.74t3.11,11.72H17.58l-.06-3.59a2.34,2.34,0,0,0-.58-1.65,2.15,2.15,0,0,0-1.61-.6,2.32,2.32,0,0,0-1.83.67,2.57,2.57,0,0,0-.61,1.82c0,1.71,1,3.47,2.92,5.3l6.09,5.84a36.1,36.1,0,0,1,3.53,3.92,15.51,15.51,0,0,1,2.25,4.39,18.73,18.73,0,0,1,.85,6q0,7.74-2.83,11.72t-9.34,4Q9.24,53.25,6.07,49.72Zm28.79-.33q-3.28-3.87-3.28-10.86V13.63q0-6.75,3.28-10.19T44.48,0q6.33,0,9.61,3.44t3.29,10.19v24.9q0,7-3.29,10.89t-9.61,3.83Q38.15,53.25,34.86,49.39Zm11.51-7A9.61,9.61,0,0,0,46.85,39V13.45a7.19,7.19,0,0,0-.45-2.77,1.82,1.82,0,0,0-1.86-1.06q-2.62,0-2.62,4v25.5a8.15,8.15,0,0,0,.55,3.41,2,2,0,0,0,2,1.16A1.86,1.86,0,0,0,46.37,42.42Z"/>
        <path id="_9-2" data-name="9-2" d="M79.9,52.77,74.3.49H84.52l2.93,33,2.92-33h9.74l2.8,33,2.8-33h10.34l-5.72,52.28H97.79l-2.61-25.2-2.5,25.2Zm39.26,0V.49h20.93v10.1H129.81V20.75h9.86v9.86h-9.86v12h10.95V52.77Z"/>
        <path id="_9-3" data-name="9-3" d="M161.48,49.66q-3.43-3.58-3.43-9.86V15.7q0-7.78,3.1-11.74t9.74-4a13.47,13.47,0,0,1,9.31,3.16q3.53,3.16,3.53,9.13v9H173.32V13.57a6.12,6.12,0,0,0-.55-3.1,2,2,0,0,0-1.88-.85,2,2,0,0,0-1.92,1,6.31,6.31,0,0,0-.52,2.86V39.68a5.74,5.74,0,0,0,.61,3,2,2,0,0,0,1.83,1q2.43,0,2.43-4V30.25h10.53v9.86q0,13.14-13.21,13.14A12.09,12.09,0,0,1,161.48,49.66Zm24.44,3.11L191,.49h17.71l5,52.28h-9.92L203,44.31h-6.33l-.61,8.46ZM197.48,36h4.75l-2.31-26.6h-.49Zm19.36,16.8V.49h15.94l4.39,31.89L241.55.49h16.07V52.77h-9.56V15.09l-6,37.68h-9.37l-6.39-37.68V52.77Zm45.4,0V.49h20.94v10.1H272.89V20.75h9.86v9.86h-9.86v12h11V52.77Z"/>
        <path id="_9-4" data-name="9-4" d="M301.56,52.77V.49H312V19.17h4.93V.49H327.3V52.77H316.89V29H312V52.77Zm30.37,0V.49h20.93v10.1H342.58V20.75h9.86v9.86h-9.86v12h10.95V52.77ZM357,.49h16.07A9.05,9.05,0,0,1,379,2.22a8.6,8.6,0,0,1,2.83,4.87,36,36,0,0,1,.73,8A16.87,16.87,0,0,1,381.41,22a6.48,6.48,0,0,1-4,3.47,4.86,4.86,0,0,1,3.44,2.38A10.39,10.39,0,0,1,381.89,33l-.12,19.78H371.55V32.32c0-1.46-.29-2.4-.86-2.8a5.59,5.59,0,0,0-3.1-.61V52.77H357Zm13.15,19.35q2.19,0,2.19-4.75a19.6,19.6,0,0,0-.18-3.1,2.36,2.36,0,0,0-.67-1.43,2.22,2.22,0,0,0-1.4-.4h-2.44v9.68ZM386,52.77V.49H407v10.1H396.68V20.75h9.86v9.86h-9.86v12h11V52.77Z"/>
        <path id="_9-5" data-name="9-5" d="M4.23,98.44,7.33,66.3H18.22l3.07,32.14h-6.1l-.45-5.2H10.85l-.37,5.2Zm7.11-10.33h2.91L12.83,71.76h-.3Zm11.9,10.33V66.3h6.62l3,15.38V66.3H39V98.44H32.74L29.52,82.35V98.44ZM41.87,66.3h8.87a6.62,6.62,0,0,1,5.17,1.9,8.42,8.42,0,0,1,1.76,5.66l.07,15q0,4.75-1.65,7.15c-1.12,1.6-3,2.39-5.57,2.39H41.87Zm7.6,26.45A1.54,1.54,0,0,0,51.23,91V74.45a5.89,5.89,0,0,0-.17-1.62,1.05,1.05,0,0,0-.62-.73,3.69,3.69,0,0,0-1.38-.19h-.71V92.75Z"/>
        <path id="_9-6" data-name="9-6" d="M7.59,143.35,4.15,111.21h6.29l1.79,20.28L14,111.21h6l1.72,20.28,1.72-20.28h6.36l-3.51,32.14H18.6L17,127.86l-1.54,15.49Zm24.14,0V111.21H44.61v6.21H38.28v6.25h6.06v6.06H38.28v7.37H45v6.25Z"/>
        <path id="_9-7" data-name="9-7" d="M72.81,72.07H91.87q7.68,0,11.16,3.76t3.48,12.27v3.11q0,10.07-7.2,12a8.88,8.88,0,0,1,6.21,5.32,28.26,28.26,0,0,1,1.8,11q0,11.21-3.35,17t-12.1,5.77H72.81Zm16.6,26.42a2.48,2.48,0,0,0,2.46-1.35,9,9,0,0,0,.65-3.8v-7q0-3.43-3-3.43H86.55V98.49Zm4,26.25V116a9.81,9.81,0,0,0-.94-4.82,3.5,3.5,0,0,0-3.31-1.64H86.55v20.36l1.39.09Q93.42,130,93.42,124.74Zm16.68,17.59,6.79-70.26h23.8l6.71,70.26H134.07l-1-11.37h-8.5l-.82,11.37Zm15.54-22.58H132L128.91,84h-.65Zm26-47.68h21.59c3.44,0,6.09.78,8,2.33A11.61,11.61,0,0,1,185,81a48.85,48.85,0,0,1,1,10.75,22.55,22.55,0,0,1-1.56,9.32,8.73,8.73,0,0,1-5.39,4.67,6.51,6.51,0,0,1,4.62,3.19,14,14,0,0,1,1.43,6.87l-.16,26.58H171.2V114.85c0-2-.39-3.22-1.15-3.77a7.65,7.65,0,0,0-4.17-.81v32.06H151.65Zm17.66,26q3,0,2.95-6.38a25.24,25.24,0,0,0-.25-4.17,3,3,0,0,0-.9-1.92,2.87,2.87,0,0,0-1.88-.53H166v13Zm21.35-26h21.59c3.44,0,6.09.78,8,2.33A11.66,11.66,0,0,1,224,81a48.85,48.85,0,0,1,1,10.75,22.55,22.55,0,0,1-1.56,9.32,8.73,8.73,0,0,1-5.39,4.67,6.51,6.51,0,0,1,4.62,3.19,14,14,0,0,1,1.43,6.87L224,142.33H210.21V114.85c0-2-.39-3.22-1.15-3.77a7.65,7.65,0,0,0-4.17-.81v32.06H190.66Zm17.66,26q3,0,3-6.38a25.24,25.24,0,0,0-.25-4.17,3,3,0,0,0-.9-1.92,2.87,2.87,0,0,0-1.88-.53H205v13ZM229,142.33V72.07h13.57v70.26Zm19.21,0V72.07h28.14V85.65H262.55V99.31H275.8v13.25H262.55v16.11h14.72v13.66Zm33.7-70.26h19.38q7.53,0,11.29,4.17c2.5,2.78,3.79,6.9,3.84,12.35l.16,32.88q.09,10.38-3.59,15.62t-12.19,5.24H281.93Zm16.6,57.82q3.84,0,3.84-3.76V89.9a13.13,13.13,0,0,0-.36-3.56,2.38,2.38,0,0,0-1.35-1.59,8.47,8.47,0,0,0-3-.41h-1.55v45.55Z"/>
        <path id="_9-8" data-name="9-8" d="M7.54,239.3q-5.8-6.83-5.8-19.17V176.21q0-11.93,5.8-18t17-6.07q11.17,0,17,6.07t5.8,18v43.92q0,12.47-5.8,19.22t-17,6.77Q13.34,246.12,7.54,239.3ZM27.83,227a16.75,16.75,0,0,0,.86-6V175.88a12.65,12.65,0,0,0-.8-4.88,3.21,3.21,0,0,0-3.28-1.88q-4.62,0-4.62,7v45a14.44,14.44,0,0,0,1,6,3.56,3.56,0,0,0,3.54,2A3.25,3.25,0,0,0,27.83,227Zm31.31,12.67q-5.53-6.43-5.54-19.11V153H71.54v66.8a21.53,21.53,0,0,0,.86,6.87,3.95,3.95,0,0,0,7.3,0,21.7,21.7,0,0,0,.86-6.92V153H98.5v67.55q0,12.67-5.54,19.11t-16.91,6.45Q64.66,246.12,59.14,239.67ZM105.58,153h28.35q6.76,0,10.47,3.06a15.15,15.15,0,0,1,5,8.59,63.89,63.89,0,0,1,1.29,14.12q0,7.84-2,12.25a11.51,11.51,0,0,1-7.09,6.12,8.55,8.55,0,0,1,6.07,4.19,18.4,18.4,0,0,1,1.88,9l-.22,34.9h-18V209.17c0-2.57-.5-4.22-1.5-4.93s-2.83-1.08-5.48-1.08v42.1H105.58Zm23.2,34.15q3.87,0,3.87-8.38a33.29,33.29,0,0,0-.33-5.47,4.08,4.08,0,0,0-1.18-2.53,3.85,3.85,0,0,0-2.47-.7h-4.29v17.08Zm31.79,52.73Q155,233.67,155,219.81v-9h18.15v11.49q0,6.87,4.4,6.87A3.81,3.81,0,0,0,181,227.7c.65-1,1-2.59,1-4.89a22,22,0,0,0-1.08-7.46,16.4,16.4,0,0,0-2.73-4.94c-1.12-1.32-3.1-3.38-6-6.17l-7.94-8q-9.24-9-9.24-20,0-11.81,5.43-18t15.84-6.18q12.45,0,17.93,6.6t5.48,20.68h-18.8l-.1-6.34a4.06,4.06,0,0,0-1-2.9,3.76,3.76,0,0,0-2.85-1.07,4.12,4.12,0,0,0-3.22,1.18,4.59,4.59,0,0,0-1.08,3.22q0,4.51,5.16,9.34l10.74,10.31a63,63,0,0,1,6.23,6.93,27.33,27.33,0,0,1,4,7.73,33.28,33.28,0,0,1,1.5,10.58q0,13.64-5,20.67t-16.48,7Q166.15,246.12,160.57,239.89Zm45.74,5.37V153h36.95v17.83H225.11v17.93h17.4v17.4h-17.4v21.15h19.33v17.94Zm44.25,0V153H269v76.57h19v15.68Zm51.12,0L290.29,152.9h17.62l6.76,62.83,6-62.83H338.3l-11.39,92.36Zm41.88,0V153H380.5v17.83H362.35v17.93h17.4v17.4h-17.4v21.15h19.33v17.94Zm48-5.37Q386,233.67,386,219.81v-9h18.15v11.49c0,4.58,1.46,6.87,4.4,6.87A3.83,3.83,0,0,0,412,227.7a9.24,9.24,0,0,0,1-4.89,22.27,22.27,0,0,0-1.07-7.46,16.41,16.41,0,0,0-2.74-4.94q-1.67-2-6-6.17l-8-8q-9.22-9-9.23-20,0-11.81,5.42-18t15.84-6.18q12.47,0,17.94,6.6t5.47,20.68H411.86l-.11-6.34a4.06,4.06,0,0,0-1-2.9,3.75,3.75,0,0,0-2.84-1.07,4.14,4.14,0,0,0-3.23,1.18,4.64,4.64,0,0,0-1.07,3.22q0,4.51,5.15,9.34l10.74,10.31a62,62,0,0,1,6.23,6.93,27.35,27.35,0,0,1,4,7.73,33.28,33.28,0,0,1,1.5,10.58q0,13.64-5,20.67t-16.49,7Q397.14,246.12,391.56,239.89Z"/>
        <path id="dig" d="M399.93,143.05H336.28a2.46,2.46,0,0,1-2.46-2.46V118.48a1.64,1.64,0,0,1,.66-1.31,18,18,0,0,1,25.12,3.42,14.38,14.38,0,0,1,3.73-.5A14.73,14.73,0,0,1,377,129.21a14.76,14.76,0,0,1,23,13.84Zm3.16-76.62a5.75,5.75,0,0,1,2.1,7.84L401.91,80a2.46,2.46,0,0,1-1.49,1.15L388,84.43,375,107l7.81,4.51a2.45,2.45,0,0,1,.9,3.35l-4.55,7.88-.24.07a19.7,19.7,0,0,0-15.54-7.62c-.62,0-1.25,0-1.87.1a22.87,22.87,0,0,0-7.38-4.93l5.44-9.43a2.45,2.45,0,0,1,3.36-.9l7.81,4.51L383.7,82l-3.33-12.45a2.4,2.4,0,0,1,.24-1.86L383.89,62a5.74,5.74,0,0,1,7.84-2.1l11.36,6.55Zm-9.68,11.45L386.65,74l1.43,5.33Zm7.22-7.19-11.36-6.55a.81.81,0,0,0-1.12.3l-2,3.54,12.78,7.38,2.05-3.55A.82.82,0,0,0,400.63,70.69Zm16.5,55.92a14.73,14.73,0,0,0-18.69.21,16.76,16.76,0,0,1,1.46,1.46,19.76,19.76,0,0,1,5,14.77H415.3a2.46,2.46,0,0,0,2.46-2.46V127.9a1.63,1.63,0,0,0-.63-1.29Z"/>
        <path id="_9-9" data-name="9-9" d="M0,288.56l3.77-39H17l3.72,39H13.3l-.54-6.31H8l-.45,6.31ZM8.63,276h3.54l-1.73-19.84h-.36Zm14.43,12.53v-39h8l3.59,18.65V249.57h7.54v39H34.59L30.69,269v19.52Zm22.61-39H56.42q4.19,0,6.27,2.31t2.13,6.86L64.91,277c0,3.85-.63,6.74-2,8.67s-3.61,2.91-6.76,2.91H45.67Zm9.21,32.09A1.87,1.87,0,0,0,57,279.57V259.46a7,7,0,0,0-.2-2,1.34,1.34,0,0,0-.75-.89,4.68,4.68,0,0,0-1.68-.22h-.86v25.28Z"/>
        <path id="_9-10" data-name="9-10" d="M81.71,288.56l-4.18-39h7.63l2.18,24.6,2.18-24.6h7.26l2.09,24.6,2.08-24.6h7.72l-4.27,39H95.05l-2-18.79-1.86,18.79Zm29.28,0v-39H126.6v7.53h-7.67v7.58h7.35V272h-7.35V281h8.17v7.58Z"/>
        <path id="_9-11" data-name="9-11" d="M143.67,288.56v-31.5H139v-7.49H156.1v7.49h-4.62v31.5ZM160.42,286c-1.64-1.92-2.45-4.62-2.45-8.1V259.37c0-3.36.81-5.89,2.45-7.6s4-2.57,7.17-2.57,5.54.86,7.17,2.57,2.45,4.24,2.45,7.6v18.57c0,3.51-.81,6.22-2.45,8.12s-4,2.86-7.17,2.86S162.05,288,160.42,286Zm8.58-5.2a7.09,7.09,0,0,0,.36-2.54V259.24a5.26,5.26,0,0,0-.34-2.07,1.35,1.35,0,0,0-1.38-.79c-1.31,0-2,1-2,2.95v19a6.2,6.2,0,0,0,.41,2.54,1.51,1.51,0,0,0,1.5.86A1.38,1.38,0,0,0,169,280.84Zm13.48,5.2q-2.44-2.88-2.45-8.1V259.37q0-5,2.45-7.6t7.17-2.57q4.72,0,7.17,2.57c1.64,1.71,2.45,4.24,2.45,7.6v18.57c0,3.51-.81,6.22-2.45,8.12s-4,2.86-7.17,2.86S184.11,288,182.48,286Zm8.58-5.2a7.09,7.09,0,0,0,.36-2.54V259.24a5.26,5.26,0,0,0-.34-2.07,1.35,1.35,0,0,0-1.38-.79c-1.3,0-2,1-2,2.95v19a6.2,6.2,0,0,0,.41,2.54,1.53,1.53,0,0,0,1.5.86A1.37,1.37,0,0,0,191.06,280.84Zm11.35,7.72v-39h7.71v15.61l3.63-15.61h7.86l-4.36,17.84,5.27,21.15h-8.08l-4.27-18.88v18.88Z"/>
        <path id="_9-12" data-name="9-12" d="M237.81,288.56v-31.5h-4.63v-7.49h17.07v7.49h-4.63v31.5Zm14.62,0v-39h7.76V263.5h3.68V249.57h7.76v39h-7.76v-17.7h-3.68v17.7Zm22.65,0v-39h15.61v7.53H283v7.58h7.36V272H283V281h8.17v7.58Zm18.34,0v-39H301v39Zm10.66-39h12a6.75,6.75,0,0,1,4.42,1.29,6.36,6.36,0,0,1,2.11,3.63,26.59,26.59,0,0,1,.55,6,12.69,12.69,0,0,1-.86,5.18,4.85,4.85,0,0,1-3,2.58,3.67,3.67,0,0,1,2.57,1.77,7.79,7.79,0,0,1,.79,3.82l-.09,14.75h-7.63V273.31c0-1.09-.21-1.79-.63-2.09a4.29,4.29,0,0,0-2.32-.45v17.79h-7.9ZM313.89,264c1.09,0,1.63-1.18,1.63-3.54a14.59,14.59,0,0,0-.13-2.31,1.73,1.73,0,0,0-.5-1.07,1.6,1.6,0,0,0-1.05-.3H312V264Z"/>
        <path id="_9-13" data-name="9-13" d="M336.36,249.57h10.3c3.12,0,5.34,1,6.68,3s2,5,2,8.83-.59,6.8-1.77,8.76-3.3,3-6.35,3H344v15.43h-7.67Zm8.12,16.52a3.32,3.32,0,0,0,2.07-.52,2.46,2.46,0,0,0,.86-1.5,14.09,14.09,0,0,0,.21-2.79,8.27,8.27,0,0,0-.55-3.54,2.19,2.19,0,0,0-2.18-1.09H344v9.44Zm13.3,22.47v-39h7.81v32.36h8v6.63Zm17,0,3.77-39h13.21l3.72,39h-7.4l-.54-6.31H382.8l-.46,6.31ZM383.39,276h3.54l-1.73-19.84h-.36Zm16.68,10.21a10.17,10.17,0,0,1-2.57-7.35v-18q0-5.82,2.32-8.77c1.54-2,4-3,7.26-3a10,10,0,0,1,6.95,2.36,8.71,8.71,0,0,1,2.63,6.81v6.72H408.9v-5.76a4.68,4.68,0,0,0-.41-2.32,1.55,1.55,0,0,0-1.41-.63,1.47,1.47,0,0,0-1.43.72,4.68,4.68,0,0,0-.38,2.14V278.8a4.31,4.31,0,0,0,.45,2.25,1.51,1.51,0,0,0,1.36.7c1.21,0,1.82-1,1.82-2.95v-7h7.85v7.36q0,9.79-9.85,9.8A9,9,0,0,1,400.07,286.24Zm19.27,2.32v-39H435v7.53h-7.67v7.58h7.35V272h-7.35V281h8.17v7.58Z"/>
      </g>
    </g>
  </g>
</svg>
