<svg xmlns="http://www.w3.org/2000/svg" viewBox="0 0 396.77 387.7">
  <g id="Layer_2" data-name="Layer 2">
    <g id="text">
      <path id="_11-1" data-name="11-1" d="M9.63,29.57q-1.87-2.1-1.88-6.76v-3h6.11v3.87c0,1.54.49,2.31,1.48,2.31a1.28,1.28,0,0,0,1.16-.49,3,3,0,0,0,.32-1.64,7.45,7.45,0,0,0-.36-2.51,5.48,5.48,0,0,0-.92-1.66c-.37-.45-1-1.14-2-2.08l-2.68-2.68A9.23,9.23,0,0,1,7.75,8.17,8.92,8.92,0,0,1,9.58,2.11,6.71,6.71,0,0,1,14.91,0c2.79,0,4.81.74,6,2.22s1.85,3.8,1.85,7H16.46l0-2.14a1.34,1.34,0,0,0-.35-1,1.26,1.26,0,0,0-.95-.36A1.41,1.41,0,0,0,14,6.14a1.58,1.58,0,0,0-.36,1.09,4.52,4.52,0,0,0,1.73,3.14L19,13.84a22.15,22.15,0,0,1,2.1,2.33,9.16,9.16,0,0,1,1.33,2.61A11.06,11.06,0,0,1,23,22.34q0,4.59-1.68,7t-5.55,2.36Q11.51,31.66,9.63,29.57Zm17.1-.2a9.67,9.67,0,0,1-1.95-6.45V8.13q0-4,1.95-6.05a7.53,7.53,0,0,1,5.71-2,7.55,7.55,0,0,1,5.71,2q2,2,2,6.05V22.92a9.67,9.67,0,0,1-2,6.47,7.13,7.13,0,0,1-5.71,2.27A7.07,7.07,0,0,1,26.73,29.37Zm6.83-4.14a5.69,5.69,0,0,0,.29-2V8a4.22,4.22,0,0,0-.27-1.64,1.08,1.08,0,0,0-1.1-.63c-1,0-1.56.78-1.56,2.35V23.24a4.88,4.88,0,0,0,.33,2,1.2,1.2,0,0,0,1.19.68A1.1,1.1,0,0,0,33.56,25.23Z"/>
      <path id="_11-2" data-name="11-2" d="M54.81,31.37V21.15L49.86.33H56l1.74,10.51L59.48.33h6.14l-5,20.82V31.37Zm14.06-2a9.67,9.67,0,0,1-2-6.45V8.13q0-4,2-6.05a7.55,7.55,0,0,1,5.71-2,7.53,7.53,0,0,1,5.71,2q2,2,2,6.05V22.92a9.62,9.62,0,0,1-2,6.47,7.12,7.12,0,0,1-5.71,2.27A7.08,7.08,0,0,1,68.87,29.37Zm6.83-4.14a5.47,5.47,0,0,0,.29-2V8a4.22,4.22,0,0,0-.27-1.64,1.08,1.08,0,0,0-1.1-.63c-1,0-1.55.78-1.55,2.35V23.24a4.91,4.91,0,0,0,.32,2,1.21,1.21,0,0,0,1.19.68A1.09,1.09,0,0,0,75.7,25.23Zm10.54,4.26c-1.24-1.44-1.86-3.59-1.86-6.43V.33h6V22.81a7.39,7.39,0,0,0,.28,2.31,1.33,1.33,0,0,0,2.46,0,7.35,7.35,0,0,0,.29-2.33V.33h6V23.06c0,2.84-.62,5-1.86,6.43s-3.14,2.17-5.7,2.17S87.48,30.94,86.24,29.49ZM102.45,9.43l1.16-4.19h-2.24V0H108V5.1l-1.81,4.33Zm7.81-9.1h9.54a5.35,5.35,0,0,1,3.52,1A5.06,5.06,0,0,1,125,4.25,22.06,22.06,0,0,1,125.44,9a10,10,0,0,1-.69,4.12,3.84,3.84,0,0,1-2.38,2.06,2.85,2.85,0,0,1,2,1.41,6.22,6.22,0,0,1,.63,3L125,31.37H118.9V19.23c0-.87-.17-1.42-.51-1.66a3.37,3.37,0,0,0-1.84-.36V31.37h-6.29Zm7.81,11.49c.86,0,1.3-.94,1.3-2.82a11.7,11.7,0,0,0-.11-1.84,1.36,1.36,0,0,0-.4-.85,1.26,1.26,0,0,0-.83-.24h-1.45v5.75Zm9.43,19.55V.33h12.43v6h-6.11v6h5.86v5.86h-5.86v7.12h6.51v6Z"/>
      <path id="_11-3" data-name="11-3" d="M150.85,31.37V.33h6.4l2.85,14.85V.33h6v31H160l-3.11-15.54V31.37Zm19.7-2a9.67,9.67,0,0,1-2-6.45V8.13q0-4,2-6.05a9,9,0,0,1,11.42,0q2,2,1.95,6.05V22.92A9.67,9.67,0,0,1,182,29.39a8.29,8.29,0,0,1-11.42,0Zm6.83-4.14a5.69,5.69,0,0,0,.29-2V8a4.22,4.22,0,0,0-.27-1.64,1.08,1.08,0,0,0-1.11-.63c-1,0-1.55.78-1.55,2.35V23.24a4.88,4.88,0,0,0,.33,2,1.2,1.2,0,0,0,1.19.68A1.1,1.1,0,0,0,177.38,25.23Zm11.71,6.14V6.29H185.4v-6H199v6h-3.68V31.37Z"/>
      <path id="_11-4" data-name="11-4" d="M209.19,31.37V.33h9.47l2.6,18.94L223.86.33h9.54v31h-5.67V9l-3.58,22.37h-5.57L214.79,9V31.37Zm30.72,0V21.15L235,.33h6.14l1.74,10.51L244.57.33h6.15l-5,20.82V31.37Z"/>
      <path id="_11-5" data-name="11-5" d="M260.73.33h8.42c2.26,0,3.91.55,4.93,1.66s1.54,2.91,1.54,5.42V8.78q0,4.46-3.18,5.32a3.9,3.9,0,0,1,2.75,2.35,12.46,12.46,0,0,1,.79,4.88q0,5-1.48,7.5t-5.35,2.54h-8.42ZM268.06,12a1.09,1.09,0,0,0,1.09-.6,3.93,3.93,0,0,0,.29-1.68V6.61c0-1-.45-1.51-1.34-1.51h-1.3V12Zm1.78,11.6V19.74a4.35,4.35,0,0,0-.42-2.14,1.55,1.55,0,0,0-1.46-.72H266.8v9l.61,0C269,25.92,269.84,25.15,269.84,23.6ZM278,.33h9.54a5.38,5.38,0,0,1,3.53,1,5.11,5.11,0,0,1,1.68,2.89A21.43,21.43,0,0,1,293.22,9a10.16,10.16,0,0,1-.68,4.12,3.86,3.86,0,0,1-2.39,2.06,2.85,2.85,0,0,1,2,1.41,6.22,6.22,0,0,1,.63,3l-.07,11.74h-6.07V19.23c0-.87-.17-1.42-.51-1.66a3.35,3.35,0,0,0-1.84-.36V31.37H278Zm7.81,11.49c.87,0,1.3-.94,1.3-2.82A11.7,11.7,0,0,0,287,7.16a1.31,1.31,0,0,0-.4-.85,1.26,1.26,0,0,0-.83-.24h-1.44v5.75ZM297,29.37a9.67,9.67,0,0,1-2-6.45V8.13q0-4,2-6.05a9,9,0,0,1,11.42,0q2,2,2,6.05V22.92a9.67,9.67,0,0,1-2,6.47,8.29,8.29,0,0,1-11.42,0Zm6.83-4.14a5.47,5.47,0,0,0,.29-2V8a4.22,4.22,0,0,0-.27-1.64,1.08,1.08,0,0,0-1.1-.63c-1,0-1.56.78-1.56,2.35V23.24a4.88,4.88,0,0,0,.33,2,1.2,1.2,0,0,0,1.19.68A1.09,1.09,0,0,0,303.81,25.23Zm11.71,6.14V6.29h-3.68v-6h13.59v6h-3.69V31.37Zm11.64,0V.33h6.18V11.42h2.93V.33h6.18v31h-6.18V17.28h-2.93V31.37Zm18,0V.33h12.43v6h-6.11v6h5.86v5.86h-5.86v7.12H358v6Zm14.89-31h9.54a5.4,5.4,0,0,1,3.53,1,5.11,5.11,0,0,1,1.68,2.89A21.43,21.43,0,0,1,375.27,9a10,10,0,0,1-.69,4.12,3.81,3.81,0,0,1-2.38,2.06,2.85,2.85,0,0,1,2,1.41,6.22,6.22,0,0,1,.63,3l-.07,11.74h-6.07V19.23c0-.87-.17-1.42-.51-1.66a3.37,3.37,0,0,0-1.84-.36V31.37h-6.29Zm7.81,11.49c.86,0,1.3-.94,1.3-2.82a11.7,11.7,0,0,0-.11-1.84,1.36,1.36,0,0,0-.4-.85,1.26,1.26,0,0,0-.83-.24h-1.45v5.75ZM378.2,16a19.06,19.06,0,0,0,5-.49,4,4,0,0,0,2.55-2.07,11.15,11.15,0,0,0,.83-4.92,5.43,5.43,0,0,0-.33-2.1,1.28,1.28,0,0,0-1.3-.76,1.3,1.3,0,0,0-1.34.87,7.25,7.25,0,0,0-.32,2.39v2.6h-6.47V7.05A6.31,6.31,0,0,1,379,1.81,9.21,9.21,0,0,1,384.92,0q4.51,0,6.42,2.4t1.89,7.28a12,12,0,0,1-2.33,7.7,8.18,8.18,0,0,1-6.81,2.93v3H378.2ZM378,31.37V26.1h6.29v5.27Z"/>
      <path id="_11-6" data-name="11-6" d="M5.23,80.72V39H13.3V80.72Zm11.42,0V39H29.39l3.5,25.47L36.39,39H49.23V80.72H41.59V50.62l-4.81,30.1H29.29l-5.1-30.1v30.1Z"/>
      <path id="_11-7" data-name="11-7" d="M64.3,39H75.62q4.57,0,6.64,2.23t2.07,7.29v1.85q0,6-4.28,7.15a5.25,5.25,0,0,1,3.69,3.16,16.85,16.85,0,0,1,1.07,6.56q0,6.66-2,10.09c-1.33,2.28-3.73,3.43-7.2,3.43H64.3Zm9.87,15.7a1.46,1.46,0,0,0,1.45-.8A5.31,5.31,0,0,0,76,51.6V47.42c0-1.37-.6-2.05-1.8-2.05H72.46v9.29Zm2.38,15.6v-5.2A5.92,5.92,0,0,0,76,62.19a2.09,2.09,0,0,0-2-1H72.46V73.33l.83,0Q76.54,73.38,76.55,70.26Zm11,10.46V39h16.73V47H96.09v8.12H104V63H96.09V72.6h8.75v8.12Zm23.63,0V47h-5V39h18.28v8h-5V80.72Zm19.25,0V47h-5V39h18.28v8h-5V80.72Zm15.65,0V39h16.73V47h-8.22v8.12h7.88V63h-7.88V72.6h8.75v8.12Zm20-41.76H179a7.28,7.28,0,0,1,4.74,1.38A7,7,0,0,1,186,44.23a28.88,28.88,0,0,1,.58,6.39,13.61,13.61,0,0,1-.92,5.55,5.21,5.21,0,0,1-3.21,2.77,3.85,3.85,0,0,1,2.74,1.89,8.32,8.32,0,0,1,.85,4.09l-.09,15.8h-8.17V64.38c0-1.17-.23-1.91-.68-2.23a4.46,4.46,0,0,0-2.48-.49V80.72h-8.46Zm10.5,15.46c1.17,0,1.75-1.27,1.75-3.8a16.68,16.68,0,0,0-.14-2.48,1.85,1.85,0,0,0-.54-1.14,1.74,1.74,0,0,0-1.12-.31h-1.94v7.73Z"/>
      <path id="_11-8" data-name="11-8" d="M204.3,80.72V47h-5V39h18.27v8h-5V80.72Zm15.66,0V39h8.31V53.88h3.94V39h8.31V80.72h-8.31v-19h-3.94v19Zm23.14,0,4-41.76h14.15l4,41.76h-7.93L256.76,74H251.7l-.48,6.76Zm9.23-13.42h3.8l-1.85-21.25h-.39Zm15.46,13.42V39h8.61l3.84,20V39h8.07V80.72h-8.17L276,59.81V80.72Z"/>
      <path id="_11-9" data-name="11-9" d="M308.43,80.72V67l-6.66-28H310l2.33,14.14L314.71,39H323l-6.66,28V80.72ZM327.35,78q-2.62-3.09-2.63-8.68V49.46c0-3.6.88-6.31,2.63-8.15s4.31-2.74,7.68-2.74,5.93.91,7.68,2.74,2.62,4.55,2.62,8.15V69.34q0,5.64-2.62,8.7c-1.75,2-4.31,3.07-7.68,3.07S329.1,80.08,327.35,78Zm9.18-5.57a7.53,7.53,0,0,0,.39-2.72V49.31a5.73,5.73,0,0,0-.36-2.21,1.45,1.45,0,0,0-1.48-.85c-1.4,0-2.1,1-2.1,3.16V69.78a6.58,6.58,0,0,0,.44,2.72,1.61,1.61,0,0,0,1.61.92A1.47,1.47,0,0,0,336.53,72.45Zm14.17,5.74c-1.67-2-2.5-4.83-2.5-8.66V39h8.12V69.19a9.88,9.88,0,0,0,.39,3.12,1.79,1.79,0,0,0,3.3,0,9.77,9.77,0,0,0,.39-3.14V39h8.12V69.53c0,3.83-.83,6.71-2.5,8.66s-4.22,2.92-7.66,2.92S352.37,80.13,350.7,78.19Zm21-39.23h12.83a7.29,7.29,0,0,1,4.75,1.38,7,7,0,0,1,2.26,3.89,29.5,29.5,0,0,1,.58,6.39,13.61,13.61,0,0,1-.92,5.55A5.21,5.21,0,0,1,388,58.94a3.85,3.85,0,0,1,2.74,1.89,8.32,8.32,0,0,1,.85,4.09l-.09,15.8h-8.17V64.38c0-1.17-.23-1.91-.68-2.23a4.48,4.48,0,0,0-2.48-.49V80.72h-8.46Zm10.5,15.46c1.17,0,1.75-1.27,1.75-3.8a16.68,16.68,0,0,0-.14-2.48A1.85,1.85,0,0,0,383.3,47a1.74,1.74,0,0,0-1.12-.31h-1.94v7.73Z"/>
      <path id="_11-10" data-name="11-10" d="M5.94,90.8H22.69q6.76,0,9.81,4t3.06,12.92V111q0,10.59-6.33,12.66a8.38,8.38,0,0,1,5.47,5.6,35.23,35.23,0,0,1,1.58,11.63q0,11.81-3,17.87t-10.64,6.07H5.94Zm14.6,27.82a2.12,2.12,0,0,0,2.15-1.42,10.88,10.88,0,0,0,.58-4v-7.41q0-3.62-2.66-3.62H18v16.45Zm3.52,27.65v-9.21a12.23,12.23,0,0,0-.83-5.09,3,3,0,0,0-2.91-1.72H18V151.7l1.22.09Q24.06,151.79,24.06,146.27ZM40.38,90.8h19a9.56,9.56,0,0,1,7,2.45,12.9,12.9,0,0,1,3.35,6.9,61.47,61.47,0,0,1,.86,11.32,28.08,28.08,0,0,1-1.37,9.82,8.24,8.24,0,0,1-4.74,4.91,5.85,5.85,0,0,1,4.06,3.36,17.2,17.2,0,0,1,1.26,7.24l-.15,28H57.56V135.85c0-2.07-.34-3.39-1-4a5.81,5.81,0,0,0-3.67-.86v33.76H40.38ZM55.9,118.19q2.6,0,2.59-6.72a33.69,33.69,0,0,0-.21-4.39,3.57,3.57,0,0,0-.8-2,2.27,2.27,0,0,0-1.65-.55H53v13.69ZM78,160q-3.87-5.46-3.88-15.37V109.41Q74.16,99.84,78,95T89.4,90.11q7.48,0,11.36,4.87t3.88,14.43v35.23q0,10-3.88,15.42T89.4,165.48Q81.93,165.48,78,160Zm13.59-9.86a16,16,0,0,0,.58-4.82V109.15a11.82,11.82,0,0,0-.54-3.92,2.12,2.12,0,0,0-2.2-1.51q-3.09,0-3.09,5.6v36.09a13.81,13.81,0,0,0,.65,4.83,2.36,2.36,0,0,0,2.37,1.63A2.21,2.21,0,0,0,91.63,150.15Zm23.29,14.64V105h-7.33V90.8h27V105h-7.33v59.78Zm23.15,0v-74h12.29v26.44h5.83V90.8h12.29v74H156.19V131.2h-5.83v33.59Zm35.87,0v-74h24.73v14.3H186.52v14.38h11.65v14H186.52v17h12.94v14.38Zm29.62-74h19a9.57,9.57,0,0,1,7,2.45,13,13,0,0,1,3.34,6.9,61.47,61.47,0,0,1,.86,11.32,28.11,28.11,0,0,1-1.36,9.82,8.29,8.29,0,0,1-4.75,4.91,5.85,5.85,0,0,1,4.06,3.36A17.2,17.2,0,0,1,233,136.8l-.14,28H220.74V135.85c0-2.07-.34-3.39-1-4a5.8,5.8,0,0,0-3.66-.86v33.76H203.56Zm15.53,27.39q2.58,0,2.58-6.72a33.69,33.69,0,0,0-.21-4.39,3.65,3.65,0,0,0-.79-2,2.31,2.31,0,0,0-1.66-.55h-2.87v13.69Zm18,46.6V152.22h12.58v12.57Z"/>
      <path id="_11-11" data-name="11-11" d="M261.67,163.5l-4.49-31.08h6.94l2.67,21.15,2.37-21.15h6.94l-4.48,31.08Zm16.51,0v-31h14.56v6h-7.15v6h6.86v5.86h-6.86v7.12h7.62v6Zm17.44-31H306.8a7.08,7.08,0,0,1,4.13,1,5,5,0,0,1,2,2.89,18.36,18.36,0,0,1,.51,4.75,8.68,8.68,0,0,1-.81,4.12,4.37,4.37,0,0,1-2.79,2.06,3.4,3.4,0,0,1,2.39,1.41,5.49,5.49,0,0,1,.74,3l-.09,11.74h-7.11V151.36c0-.87-.2-1.42-.59-1.66a4.55,4.55,0,0,0-2.16-.36V163.5h-7.37ZM304.77,144c1,0,1.52-.94,1.52-2.82a9.32,9.32,0,0,0-.13-1.84,1.25,1.25,0,0,0-.46-.85,1.67,1.67,0,0,0-1-.24H303V144ZM317.3,161.7q-2.21-2.1-2.2-6.76v-3h7.15v3.87q0,2.31,1.74,2.31a1.63,1.63,0,0,0,1.36-.49,2.73,2.73,0,0,0,.38-1.64,6.47,6.47,0,0,0-.43-2.51,5.19,5.19,0,0,0-1.08-1.66c-.44-.45-1.22-1.14-2.35-2.08L318.74,147q-3.64-3-3.64-6.72a8,8,0,0,1,2.14-6.05q2.13-2.08,6.24-2.08c3.28,0,5.63.74,7.07,2.22s2.16,3.8,2.16,7H325.3l0-2.14a1.24,1.24,0,0,0-.4-1,1.62,1.62,0,0,0-1.12-.36,1.76,1.76,0,0,0-1.27.4,1.37,1.37,0,0,0-.43,1.08c0,1,.68,2.06,2,3.14l4.24,3.47a22.61,22.61,0,0,1,2.46,2.34,8.74,8.74,0,0,1,1.56,2.6,9.55,9.55,0,0,1,.59,3.56q0,4.59-2,7c-1.32,1.57-3.48,2.36-6.5,2.36C321.15,163.79,318.77,163.1,317.3,161.7Zm17.7,1.8v-31h7v31Zm11.94-2a8.72,8.72,0,0,1-2.29-6.45V140.26q0-4,2.29-6t6.69-2q4.39,0,6.69,2t2.28,6v14.79a8.76,8.76,0,0,1-2.28,6.47c-1.53,1.52-3.76,2.27-6.69,2.27S348.46,163,346.94,161.5Zm8-4.14a4.81,4.81,0,0,0,.34-2V140.16a3.7,3.7,0,0,0-.32-1.65,1.3,1.3,0,0,0-1.29-.63c-1.21,0-1.82.78-1.82,2.35v15.14a4.36,4.36,0,0,0,.38,2,1.46,1.46,0,0,0,1.4.68A1.31,1.31,0,0,0,354.94,157.36Zm10.59,6.14v-31H373l3.34,14.85V132.46h7v31h-7.11L372.64,148V163.5Z"/>
      <path id="_11-12" data-name="11-12" d="M275.06,100.3l2.09-4.19h-4V90.87h11.95V96l-3.26,4.34Z"/>
      <path id="_11-13" data-name="11-13" d="M258.67,122.24v-31h10.84v31.05Zm30.49,0v-31h17.11L311,110.13l4.7-18.94h17.24v31.05H322.66V99.87l-6.46,22.37H306.14l-6.85-22.37v22.37Z"/>
      <path id="_11-14" data-name="11-14" d="M351.66,122.24l5.42-31h19l5.35,31.05H370.79l-.78-5h-6.8l-.65,5Zm12.4-10h5.1l-2.48-15.79h-.53Z"/>
      <path id="_11-15" data-name="11-15" d="M9.17,223.33q-3.23-3.79-3.23-10.67V188.2q0-6.63,3.23-10t9.45-3.38q6.21,0,9.45,3.38t3.22,10v24.46q0,6.93-3.22,10.7t-9.45,3.77Q12.4,227.13,9.17,223.33Zm11.3-6.85a9.23,9.23,0,0,0,.48-3.34V188a7,7,0,0,0-.45-2.72,1.78,1.78,0,0,0-1.82-1c-1.72,0-2.57,1.29-2.57,3.88V213.2a8,8,0,0,0,.54,3.34,2,2,0,0,0,2,1.14A1.81,1.81,0,0,0,20.47,216.48Zm15,10.17V175.29H56v10H45.76v8.19h9.69v9.87H45.76v23.32Z"/>
      <path id="_11-16" data-name="11-16" d="M79.48,226.65V209.73l-8.19-34.44H81.46l2.87,17.4,2.87-17.4H97.36l-8.19,34.44v16.92Zm23.26-3.32q-3.22-3.79-3.22-10.67V188.2q0-6.63,3.22-10c2.16-2.25,5.3-3.38,9.45-3.38s7.3,1.13,9.45,3.38,3.23,5.59,3.23,10v24.46q0,6.93-3.23,10.7t-9.45,3.77C108,227.13,104.9,225.86,102.74,223.33Zm11.3-6.85a9.23,9.23,0,0,0,.48-3.34V188a7,7,0,0,0-.45-2.72,1.77,1.77,0,0,0-1.82-1q-2.56,0-2.57,3.88V213.2a8,8,0,0,0,.54,3.34,2,2,0,0,0,2,1.14A1.8,1.8,0,0,0,114,216.48Zm17.43,7.06q-3.08-3.58-3.08-10.64V175.29h10v37.19a12,12,0,0,0,.48,3.82,2.19,2.19,0,0,0,4.06,0,12,12,0,0,0,.48-3.85V175.29h10V212.9q0,7-3.08,10.64c-2.06,2.39-5.19,3.59-9.42,3.59S133.53,225.93,131.47,223.54Zm25.86-48.25h15.79A9,9,0,0,1,179,177a8.52,8.52,0,0,1,2.78,4.78,35.57,35.57,0,0,1,.72,7.87,16.47,16.47,0,0,1-1.14,6.81,6.37,6.37,0,0,1-3.95,3.41,4.77,4.77,0,0,1,3.38,2.33,10.23,10.23,0,0,1,1,5l-.12,19.43h-10V206.56c0-1.44-.28-2.35-.83-2.75a5.56,5.56,0,0,0-3-.6v23.44H157.33Zm12.92,19q2.15,0,2.15-4.66a19,19,0,0,0-.18-3,2.27,2.27,0,0,0-.66-1.41,2.11,2.11,0,0,0-1.37-.39H167.8v9.51Z"/>
      <path id="_11-17" data-name="11-17" d="M199.84,175.29h13.93q5.63,0,8.17,2.75t2.54,9v2.27q0,7.35-5.26,8.79a6.48,6.48,0,0,1,4.54,3.88,20.67,20.67,0,0,1,1.32,8.08q0,8.19-2.46,12.4t-8.85,4.22H199.84ZM212,194.6a1.79,1.79,0,0,0,1.79-1,6.46,6.46,0,0,0,.48-2.78v-5.14c0-1.67-.73-2.51-2.21-2.51h-2.15V194.6Zm2.93,19.19V207.4a7.2,7.2,0,0,0-.69-3.53,2.54,2.54,0,0,0-2.42-1.2h-1.91v14.89l1,.06Q214.92,217.62,214.91,213.79Zm13.57-38.5h15.79a9,9,0,0,1,5.83,1.7,8.52,8.52,0,0,1,2.78,4.78,35.57,35.57,0,0,1,.72,7.87,16.47,16.47,0,0,1-1.14,6.81,6.37,6.37,0,0,1-4,3.41,4.77,4.77,0,0,1,3.38,2.33,10.23,10.23,0,0,1,1.05,5l-.12,19.43h-10V206.56c0-1.44-.28-2.35-.83-2.75a5.56,5.56,0,0,0-3.05-.6v23.44H228.48Zm12.92,19q2.15,0,2.15-4.66a19,19,0,0,0-.18-3,2.27,2.27,0,0,0-.66-1.41,2.11,2.11,0,0,0-1.37-.39H239v9.51Zm18.41,29q-3.22-3.79-3.22-10.67V188.2q0-6.63,3.22-10c2.16-2.25,5.3-3.38,9.45-3.38s7.3,1.13,9.45,3.38,3.23,5.59,3.23,10v24.46q0,6.93-3.23,10.7t-9.45,3.77C265.11,227.13,262,225.86,259.81,223.33Zm11.3-6.85a9.23,9.23,0,0,0,.48-3.34V188a7.19,7.19,0,0,0-.44-2.72,1.79,1.79,0,0,0-1.83-1q-2.56,0-2.57,3.88V213.2a8,8,0,0,0,.54,3.34,2,2,0,0,0,2,1.14A1.8,1.8,0,0,0,271.11,216.48Zm19.38,10.17v-41.5h-6.1v-9.86h22.48v9.86h-6.1v41.5Zm19.25,0V175.29H320v18.35h4.85V175.29H335v51.36H324.81V203.33H320v23.32Zm29.84,0V175.29h20.56v9.92H350v10h9.69v9.68H350v11.78H360.8v10Zm24.63-51.36H380a8.94,8.94,0,0,1,5.83,1.7,8.47,8.47,0,0,1,2.78,4.78,35.57,35.57,0,0,1,.72,7.87,16.66,16.66,0,0,1-1.13,6.81,6.4,6.4,0,0,1-3.95,3.41,4.79,4.79,0,0,1,3.38,2.33,10.35,10.35,0,0,1,1,5l-.12,19.43h-10V206.56c0-1.44-.28-2.35-.84-2.75a5.54,5.54,0,0,0-3.05-.6v23.44h-10.4Zm12.91,19q2.16,0,2.16-4.66a19,19,0,0,0-.18-3,2.27,2.27,0,0,0-.66-1.41,2.14,2.14,0,0,0-1.38-.39h-2.39v9.51Z"/>
      <path id="_11-18" data-name="11-18" d="M10.81,279.77V265.63L4.19,236.85H12.4l2.32,14.54L17,236.85h8.22l-6.62,28.78v14.14ZM29.61,277Q27,273.82,27,268.08V247.64q0-5.55,2.61-8.37t7.64-2.82q5,0,7.64,2.82t2.61,8.37v20.44c0,3.86-.87,6.85-2.61,8.94s-4.29,3.15-7.64,3.15S31.35,279.12,29.61,277Zm9.14-5.72a8,8,0,0,0,.39-2.8v-21a6,6,0,0,0-.37-2.27,1.42,1.42,0,0,0-1.47-.88c-1.39,0-2.08,1.09-2.08,3.25v20.94a7,7,0,0,0,.43,2.8,1.61,1.61,0,0,0,1.6.95A1.48,1.48,0,0,0,38.75,271.28Zm14.09,5.89c-1.66-2-2.49-5-2.49-8.89V236.85h8.07v31.08a10.36,10.36,0,0,0,.39,3.2,1.76,1.76,0,0,0,3.29,0,10.64,10.64,0,0,0,.38-3.22V236.85h8.07v31.43c0,3.93-.83,6.9-2.49,8.89s-4.19,3-7.61,3S54.5,279.17,52.84,277.17Z"/>
      <path id="_11-19" data-name="11-19" d="M8.17,337.19q-2.73-2.94-2.73-8.09V309.31q0-6.4,2.47-9.65c1.64-2.16,4.22-3.25,7.73-3.25A10.47,10.47,0,0,1,23,299c1.87,1.74,2.8,4.23,2.8,7.5v7.4H17.58v-6.35a5.24,5.24,0,0,0-.44-2.55,1.62,1.62,0,0,0-1.5-.7,1.55,1.55,0,0,0-1.52.8,5.35,5.35,0,0,0-.41,2.35V329a4.86,4.86,0,0,0,.48,2.47,1.6,1.6,0,0,0,1.45.78c1.29,0,1.94-1.09,1.94-3.25v-7.75h8.36v8.1q0,10.78-10.49,10.79A9.45,9.45,0,0,1,8.17,337.19Zm19.41,2.55,4-42.93H45.66l4,42.93H41.75l-.58-6.95h-5l-.49,6.95ZM36.77,326h3.77L38.7,304.11h-.39Zm15.37,13.79V296.81h8.55l3.82,20.54V296.81h8v42.93H64.42l-4.16-21.49v21.49Z"/>
      <path id="_11-20" data-name="11-20" d="M97.13,341.69v-85H82.67V236.44H136v20.22H121.5v85Zm45.63-105.25h37.41q8.94,0,13.82,3.49a17.06,17.06,0,0,1,6.59,9.8,63.16,63.16,0,0,1,1.7,16.12q0,8.94-2.69,14c-1.79,3.36-4.91,5.68-9.35,7q5.52,1,8,4.78t2.49,10.29l-.29,39.82H176.63V300.52q0-4.41-2-5.63t-7.23-1.23v48H142.76Zm30.61,39q5.1,0,5.1-9.55a34.24,34.24,0,0,0-.42-6.25,4.44,4.44,0,0,0-1.56-2.88,5.64,5.64,0,0,0-3.26-.8h-5.67V275.4Zm42.87,59.92q-7.31-7.35-7.3-21.81V236.44h23.67v76.21a21.76,21.76,0,0,0,1.13,7.84c.76,1.88,2.36,2.82,4.82,2.82s4.06-.92,4.82-2.75a21.56,21.56,0,0,0,1.13-7.91V236.44h23.67v77.07q0,14.46-7.3,21.81t-22.32,7.35Q223.55,342.67,216.24,335.32Zm66.26.25q-7.38-7.11-7.37-22.92V302.36h23.95v13.11q0,7.84,5.81,7.84,3.25,0,4.53-1.65t1.28-5.58a22.13,22.13,0,0,0-1.42-8.51,18,18,0,0,0-3.61-5.64q-2.21-2.26-7.87-7l-10.49-9.07Q275.13,275.53,275.13,263q0-13.48,7.15-20.53t20.91-7q16.44,0,23.66,7.54t7.23,23.58h-24.8l-.14-7.23a4.25,4.25,0,0,0-1.35-3.31,5.41,5.41,0,0,0-3.75-1.22,5.94,5.94,0,0,0-4.25,1.35,4.81,4.81,0,0,0-1.42,3.67q0,5.15,6.8,10.66l14.17,11.77a73.46,73.46,0,0,1,8.22,7.9,29.91,29.91,0,0,1,5.25,8.82,33.22,33.22,0,0,1,2,12.07q0,15.56-6.59,23.59t-21.75,8Q289.86,342.67,282.5,335.57Zm70.86,6.12v-85H338.9V236.44h53.29v20.22H377.73v85Z"/>
      <path id="_11-21" data-name="11-21" d="M3.91,387.36,0,350.84H7.14l2,23,2-23H18l1.95,23,2-23h7.23l-4,36.52H16.41l-1.83-17.6-1.74,17.6Zm27.43,0V350.84h7.27v13.05h3.44V350.84h7.27v36.52H42.05V370.78H38.61v16.58Zm21.21,0V350.84H67.18v7.06H60V365h6.89v6.89H60v8.37h7.66v7.1Zm17.52,0V350.84h7.52L81,368.32V350.84H88v36.52H80.87l-3.66-18.28v18.28Z"/>
      <path id="_11-22" data-name="11-22" d="M101.19,387.36V350.84h7.27v13.05h3.45V350.84h7.27v36.52h-7.27V370.78h-3.45v16.58Zm21.22,0V350.84H137v7.06h-7.18V365h6.89v6.89h-6.89v8.37h7.65v7.1Z"/>
      <path id="_11-23" data-name="11-23" d="M151.36,385.24q-2.21-2.48-2.21-7.95v-3.58h7.19v4.55q0,2.73,1.74,2.73a1.52,1.52,0,0,0,1.36-.58,3.59,3.59,0,0,0,.38-1.93,8.89,8.89,0,0,0-.42-3,6.48,6.48,0,0,0-1.09-1.95c-.44-.53-1.22-1.34-2.36-2.45L152.81,368a10.84,10.84,0,0,1-3.66-7.9c0-3.12.72-5.49,2.15-7.13a7.93,7.93,0,0,1,6.27-2.44q4.94,0,7.1,2.62t2.17,8.18H159.4l0-2.51a1.62,1.62,0,0,0-.41-1.15,1.49,1.49,0,0,0-1.13-.42,1.6,1.6,0,0,0-1.27.47,1.82,1.82,0,0,0-.43,1.27,5.3,5.3,0,0,0,2,3.7l4.25,4.08a25.11,25.11,0,0,1,2.46,2.74,11,11,0,0,1,1.58,3.07,13.29,13.29,0,0,1,.59,4.18q0,5.4-2,8.19c-1.31,1.86-3.49,2.78-6.52,2.78C155.23,387.7,152.84,386.88,151.36,385.24Zm17.14,2.12L172,350.84H184.4l3.49,36.52H181l-.51-5.91H176l-.42,5.91Zm8.07-11.73h3.32l-1.61-18.58h-.34Zm18,11.73v-12l-5.83-24.49h7.23l2,12.37,2-12.37h7.23l-5.83,24.49v12Zm16-2.12c-1.48-1.65-2.21-4.3-2.21-7.95v-3.58h7.18v4.55q0,2.73,1.74,2.73a1.54,1.54,0,0,0,1.37-.58,3.68,3.68,0,0,0,.38-1.93,8.61,8.61,0,0,0-.43-3,6.26,6.26,0,0,0-1.08-1.95c-.44-.53-1.23-1.34-2.36-2.45L212,368a10.83,10.83,0,0,1-3.65-7.9c0-3.12.71-5.49,2.14-7.13a7.93,7.93,0,0,1,6.27-2.44q4.94,0,7.1,2.62T226,361.3h-7.44l0-2.51a1.61,1.61,0,0,0-.4-1.15,1.5,1.5,0,0,0-1.13-.42,1.63,1.63,0,0,0-1.28.47,1.82,1.82,0,0,0-.42,1.27,5.32,5.32,0,0,0,2,3.7l4.25,4.08a25.29,25.29,0,0,1,2.47,2.74,11,11,0,0,1,1.57,3.07,13,13,0,0,1,.6,4.18q0,5.4-2,8.19c-1.32,1.86-3.49,2.78-6.53,2.78C214.42,387.7,212,386.88,210.55,385.24Z"/>
      <path id="_11-24" data-name="11-24" d="M238.61,350.84h10.08c2.6,0,4.56.72,5.86,2.17s2,3.58,2,6.42l.09,17.09q0,5.4-1.87,8.12c-1.28,1.82-3.39,2.72-6.34,2.72h-9.82Zm8.63,30.06a1.75,1.75,0,0,0,2-2V360.11a7,7,0,0,0-.19-1.85,1.23,1.23,0,0,0-.7-.83,4.43,4.43,0,0,0-1.58-.21H246V380.9Zm14.33,4.1q-2.29-2.7-2.3-7.59V360c0-3.14.77-5.52,2.3-7.12s3.77-2.4,6.72-2.4,5.18.8,6.71,2.4,2.3,4,2.3,7.12v17.39q0,4.93-2.3,7.61t-6.71,2.68Q263.86,387.7,261.57,385Zm8-4.87a6.52,6.52,0,0,0,.34-2.38V359.9a4.85,4.85,0,0,0-.32-1.94,1.26,1.26,0,0,0-1.29-.74q-1.83,0-1.83,2.76V377.8a5.86,5.86,0,0,0,.38,2.38,1.42,1.42,0,0,0,1.41.81A1.28,1.28,0,0,0,269.6,380.13Zm10.63,7.23V350.84h7.53l3.36,17.48V350.84h7.06v36.52H291l-3.65-18.28v18.28Zm24.32,0v-29.5h-4.33v-7h16v7h-4.33v29.5Z"/>
      <path id="_11-25" data-name="11-25" d="M328.19,350.84h11.23a6.33,6.33,0,0,1,4.14,1.21,6,6,0,0,1,2,3.4,25.35,25.35,0,0,1,.51,5.59,11.76,11.76,0,0,1-.81,4.85,4.57,4.57,0,0,1-2.8,2.43,3.36,3.36,0,0,1,2.4,1.65,7.35,7.35,0,0,1,.74,3.57l-.08,13.82h-7.15V373.08c0-1-.19-1.67-.59-2a4,4,0,0,0-2.17-.42v16.66h-7.4Zm9.19,13.52c1,0,1.53-1.1,1.53-3.32a14,14,0,0,0-.13-2.16,1.59,1.59,0,0,0-.47-1,1.49,1.49,0,0,0-1-.28h-1.7v6.76Zm12.86,20.79q-2.19-2.55-2.19-7.57V350.84h7.1v26.45a8.5,8.5,0,0,0,.34,2.72,1.56,1.56,0,0,0,2.89,0,8.47,8.47,0,0,0,.34-2.74V350.84h7.1v26.74q0,5-2.19,7.57t-6.69,2.55Q352.43,387.7,350.24,385.15Zm18.39,2.21V350.84h7.52l3.36,17.48V350.84h7.06v36.52h-7.14l-3.66-18.28v18.28Zm20.7,0v-6.2h7.44v6.2Z"/>
    </g>
  </g>
</svg>
