<svg xmlns="http://www.w3.org/2000/svg" viewBox="0 0 343.34 425.38">
  <g id="Layer_2" data-name="Layer 2">
    <g id="text">
      <g>
        <path id="_2-16" data-name="2-16" d="M77.91,360.75V349.57l-5.42-22.78h6.72l1.9,11.51L83,326.79h6.72l-5.42,22.78v11.18Zm15.37-2.19c-1.42-1.67-2.13-4-2.13-7.06V335.33q0-4.38,2.13-6.62t6.25-2.23q4.11,0,6.25,2.23t2.13,6.62V351.5q0,4.59-2.13,7.08a7.79,7.79,0,0,1-6.25,2.49A7.77,7.77,0,0,1,93.28,358.56Zm7.48-4.53a6.14,6.14,0,0,0,.31-2.21v-16.6a4.77,4.77,0,0,0-.29-1.8,1.18,1.18,0,0,0-1.21-.69c-1.13,0-1.7.85-1.7,2.56v16.57a5.3,5.3,0,0,0,.36,2.21,1.3,1.3,0,0,0,1.3.75A1.21,1.21,0,0,0,100.76,354Zm11.52,4.67q-2-2.37-2-7V326.79h6.61v24.59a8,8,0,0,0,.31,2.53,1.46,1.46,0,0,0,2.69,0,8,8,0,0,0,.32-2.55V326.79h6.6v24.87q0,4.66-2,7t-6.22,2.37C115.71,361.07,113.64,360.28,112.28,358.7ZM130,336.76l1.26-4.59h-2.45v-5.73h7.24V332l-2,4.75Zm8.54-10H149a5.89,5.89,0,0,1,3.85,1.13,5.63,5.63,0,0,1,1.84,3.16,24,24,0,0,1,.47,5.2,11,11,0,0,1-.75,4.51,4.21,4.21,0,0,1-2.61,2.25,3.18,3.18,0,0,1,2.24,1.54,6.82,6.82,0,0,1,.69,3.33l-.08,12.84H148V347.47c0-1-.19-1.55-.56-1.82a3.71,3.71,0,0,0-2-.39v15.49h-6.88Zm8.54,12.58c.95,0,1.42-1,1.42-3.09a12.43,12.43,0,0,0-.12-2,1.5,1.5,0,0,0-.43-.93,1.43,1.43,0,0,0-.91-.26h-1.58v6.29Zm10.31,21.38v-34H171v6.57h-6.68V340h6.41v6.4h-6.41v7.79h7.12v6.6Z"/>
        <path id="_2-17" data-name="2-17" d="M186.26,360.16a7,7,0,0,1-3-2.67,7.88,7.88,0,0,1-1.09-4.25v-8.5h6.68v8.11a2.48,2.48,0,0,0,.38,1.44,1.31,1.31,0,0,0,1.16.53,1.33,1.33,0,0,0,1.13-.49,2.29,2.29,0,0,0,.38-1.4V326.79h6.83v25.46a9.84,9.84,0,0,1-1,4.65,7.51,7.51,0,0,1-2.93,3.08,8.35,8.35,0,0,1-4.29,1.09A9.64,9.64,0,0,1,186.26,360.16ZM203,358.7q-2-2.37-2-7V326.79h6.6v24.59a7.94,7.94,0,0,0,.32,2.53,1.45,1.45,0,0,0,2.68,0,7.68,7.68,0,0,0,.32-2.55V326.79h6.6v24.87q0,4.66-2,7t-6.23,2.37Q205,361.07,203,358.7Zm18.49.08q-2.06-2.29-2.06-7.4v-3.32h6.68v4.23c0,1.69.54,2.53,1.62,2.53a1.4,1.4,0,0,0,1.27-.53,3.46,3.46,0,0,0,.35-1.8,8.26,8.26,0,0,0-.39-2.75,6,6,0,0,0-1-1.81q-.62-.74-2.19-2.28l-2.93-2.92a10.11,10.11,0,0,1-3.4-7.36q0-4.33,2-6.62a7.35,7.35,0,0,1,5.83-2.27c3.05,0,5.26.81,6.6,2.43s2,4.16,2,7.61H229l0-2.33a1.49,1.49,0,0,0-.38-1.07,1.39,1.39,0,0,0-1-.39,1.51,1.51,0,0,0-1.18.43,1.68,1.68,0,0,0-.4,1.19,5,5,0,0,0,1.9,3.44l3.95,3.79a23,23,0,0,1,2.3,2.55,10.06,10.06,0,0,1,1.46,2.85,12.17,12.17,0,0,1,.55,3.89c0,3.35-.61,5.88-1.84,7.61s-3.24,2.59-6.06,2.59C225.08,361.07,222.86,360.31,221.49,358.78Zm19.76,2V333.32h-4v-6.53h14.86v6.53h-4v27.43Z"/>
        <path id="_2-18" data-name="2-18" d="M262.32,360.75l3.28-34h11.51l3.24,34H273.9l-.47-5.49h-4.11l-.4,5.49Zm7.51-10.91h3.09l-1.51-17.27h-.31Z"/>
        <path id="_2-1" data-name="2-1" d="M2.94,59.57V.62H14.41l5.12,28.2V.62H30.29v59H19.4L13.83,30.06V59.57Zm37.4-3.81q-3.71-4.36-3.71-12.25V15.44q0-7.62,3.71-11.49T51.18.07Q58.32.07,62,4t3.71,11.49V43.51q0,8-3.71,12.28T51.18,60.12Q44,60.12,40.34,55.76Zm13-7.86a10.77,10.77,0,0,0,.55-3.84V15.24a8.07,8.07,0,0,0-.52-3.13,2,2,0,0,0-2.09-1.2q-3,0-3,4.46V44.13A9.35,9.35,0,0,0,48.91,48a2.29,2.29,0,0,0,2.27,1.3A2.09,2.09,0,0,0,53.31,47.9Z"/>
        <path id="_2-2" data-name="2-2" d="M93.66,59.57V40.15L84.26.62H95.92l3.3,20,3.29-20h11.67l-9.4,39.53V59.57Zm26.69-3.81q-3.7-4.36-3.7-12.25V15.44q0-7.62,3.7-11.49T131.2.07Q138.32.07,142,4t3.71,11.49V43.51q0,8-3.71,12.28T131.2,60.12Q124.06,60.12,120.35,55.76Zm13-7.86a10.55,10.55,0,0,0,.55-3.84V15.24a8.09,8.09,0,0,0-.51-3.13,2,2,0,0,0-2.1-1.2c-2,0-2.95,1.49-2.95,4.46V44.13a9.33,9.33,0,0,0,.62,3.84,2.28,2.28,0,0,0,2.27,1.3A2.07,2.07,0,0,0,133.32,47.9Zm20,8.1q-3.54-4.12-3.54-12.22V.62h11.46V43.3a14.13,14.13,0,0,0,.55,4.4,2.53,2.53,0,0,0,4.67,0A13.75,13.75,0,0,0,167,43.3V.62h11.46V43.78q0,8.1-3.53,12.22t-10.81,4.12Q156.87,60.12,153.33,56Z"/>
        <path id="_2-3" data-name="2-3" d="M199.07.62h16.26q6.31,0,9.47,3.5T228,14.48l.13,27.59q.08,8.72-3,13.11t-10.22,4.39H199.07ZM213,49.14c2.15,0,3.22-1.06,3.22-3.16V15.58a10.66,10.66,0,0,0-.31-3,2,2,0,0,0-1.13-1.34,7.21,7.21,0,0,0-2.54-.34h-1.3V49.14Zm23.12,6.62q-3.7-4.36-3.7-12.25V15.44q0-7.62,3.7-11.49T247,.07q7.14,0,10.84,3.88t3.71,11.49V43.51q0,8-3.71,12.28T247,60.12Q239.83,60.12,236.12,55.76Zm13-7.86a10.81,10.81,0,0,0,.54-3.84V15.24a8.09,8.09,0,0,0-.51-3.13,2,2,0,0,0-2.09-1.2q-3,0-2.95,4.46V44.13A9.35,9.35,0,0,0,244.7,48a2.28,2.28,0,0,0,2.27,1.3A2.09,2.09,0,0,0,249.1,47.9Zm17.15,11.67V.62H278.4l5.42,28.2V.62h11.39v59H283.68l-5.9-29.51V59.57Zm35.27-41.66,2.2-8h-4.25V0H312V9.68l-3.43,8.23Zm19.91,41.66V11.94h-7V.62h25.8V11.94h-7V59.57Z"/>
        <path id="_2-4" data-name="2-4" d="M53.46,80.11l1.18-4.27H52.36V70.52h6.73V75.7l-1.84,4.41ZM5,102.41V92L0,70.85H6.25L8,81.54,9.77,70.85H16L11,92v10.4Zm14.3-2a9.78,9.78,0,0,1-2-6.56v-15q0-4.08,2-6.15a7.63,7.63,0,0,1,5.8-2.08,7.64,7.64,0,0,1,5.81,2.08q2,2.07,2,6.15v15a9.83,9.83,0,0,1-2,6.58,7.24,7.24,0,0,1-5.81,2.31A7.18,7.18,0,0,1,19.33,100.37Zm6.94-4.21a5.58,5.58,0,0,0,.3-2V78.67A4.37,4.37,0,0,0,26.29,77a1.09,1.09,0,0,0-1.12-.64c-1.05,0-1.58.79-1.58,2.39V94.14a5,5,0,0,0,.33,2.06,1.22,1.22,0,0,0,1.21.7A1.11,1.11,0,0,0,26.27,96.16ZM37,100.5Q35.09,98.3,35.09,94V70.85h6.14V93.7a7.29,7.29,0,0,0,.29,2.35,1.35,1.35,0,0,0,2.5,0,7.3,7.3,0,0,0,.29-2.37V70.85h6.14V94q0,4.33-1.89,6.54t-5.79,2.2Q38.87,102.7,37,100.5ZM61.4,70.85h9.7a5.51,5.51,0,0,1,3.58,1,5.17,5.17,0,0,1,1.71,2.94,21.64,21.64,0,0,1,.44,4.84,10.07,10.07,0,0,1-.7,4.18A3.89,3.89,0,0,1,73.71,86a2.92,2.92,0,0,1,2.08,1.43,6.4,6.4,0,0,1,.64,3.09l-.07,11.94H70.18V90.06c0-.88-.17-1.44-.51-1.69A3.51,3.51,0,0,0,67.79,88v14.4H61.4Zm7.94,11.68c.88,0,1.32-1,1.32-2.86a12.2,12.2,0,0,0-.11-1.88,1.39,1.39,0,0,0-.4-.86,1.32,1.32,0,0,0-.85-.24H67.83v5.84Zm9.59,19.88V70.85H91.57V77H85.36v6.13h6v6h-6v7.23H92v6.14Z"/>
        <path id="_2-5" data-name="2-5" d="M105.38,102.41V76.91h-3.75V70.85h13.82v6.06H111.7v25.5Zm11.83,0V70.85h6.29V82.13h3V70.85h6.29v31.56h-6.29V88.08h-3v14.33Zm18.34,0V70.85h12.64V77H142v6.13h6v6h-6v7.23h6.61v6.14Z"/>
        <path id="_2-6" data-name="2-6" d="M159.18,102.41V70.66h6.54v31.75Zm9.07-28.7V69.23h6.43v4.48Zm0,28.7V75.51h6.43v26.9Zm11-.77a5.08,5.08,0,0,1-1-3.42V81.43h-1.8V76.54h1.8V70.85h6.25v5.69h1.83v4.89h-1.83v15.1a3.29,3.29,0,0,0,.11,1c.07.22.26.33.58.33a5.18,5.18,0,0,0,.7,0l.44,0v4.41c-.36.09-.9.2-1.6.31a12.93,12.93,0,0,1-2,.16C181.07,102.7,179.91,102.35,179.27,101.64Zm11.21,0a5,5,0,0,1-.95-3.42V81.43h-1.81V76.54h1.81V70.85h6.24v5.69h1.84v4.89h-1.84v15.1a3.63,3.63,0,0,0,.11,1c.08.22.27.33.59.33a5.18,5.18,0,0,0,.7,0l.44,0v4.41c-.37.09-.9.2-1.6.31a13.12,13.12,0,0,1-2,.16C192.28,102.7,191.12,102.35,190.48,101.64Zm9.15.77V70.66h6.54v31.75Zm10.69-2q-1.8-2.28-1.8-6.8V82.83a7.28,7.28,0,0,1,2.13-5.66,8.51,8.51,0,0,1,6-2q7.74,0,7.75,7.61v1.94c0,2,0,3.55-.07,4.78H215v5.22a6.3,6.3,0,0,0,.3,2.18,1.19,1.19,0,0,0,1.25.79,1.17,1.17,0,0,0,1-.44,2.06,2.06,0,0,0,.37-1c0-.38.05-.93.05-1.67V92h6.4v1.54q0,4.71-1.82,6.93t-6.27,2.22C213.51,102.7,211.52,101.94,210.32,100.43ZM218,86.35V82.9c0-1.94-.47-2.9-1.43-2.9s-1.61,1-1.61,2.9v3.45Z"/>
        <path id="_2-7" data-name="2-7" d="M241.89,99.54v2.87h-6.62V70.66h6.62V76.8a4.86,4.86,0,0,1,3.6-1.58A5.2,5.2,0,0,1,250,77.07a8.94,8.94,0,0,1,1.36,5.35v13a9.1,9.1,0,0,1-1.4,5.31,4.83,4.83,0,0,1-4.26,2C243.91,102.7,242.64,101.65,241.89,99.54Zm2.55-2.26a2.33,2.33,0,0,0,.33-1.06c0-.43,0-1.1,0-2V83a6.61,6.61,0,0,0-.25-2.13,1,1,0,0,0-1.1-.7,1.24,1.24,0,0,0-1.25.7,5,5,0,0,0-.33,2.06V94.22a8.57,8.57,0,0,0,.29,2.62,1.25,1.25,0,0,0,1.32.87A1,1,0,0,0,244.44,97.28Zm9.24-21.77h6.43v3a4.54,4.54,0,0,1,1.67-2.44,4.89,4.89,0,0,1,3-.87v5.37a13.45,13.45,0,0,0-3,.38c-1.09.26-1.64.56-1.64.9v20.58h-6.43ZM266.1,94.36V83.56a8.47,8.47,0,0,1,2.15-6.08,8.82,8.82,0,0,1,11.79,0,8.43,8.43,0,0,1,2.15,6.08v10.8q0,8.34-8,8.34T266.1,94.36Zm9.19,2.83a2.73,2.73,0,0,0,.36-1.5V82.53c0-1.57-.5-2.35-1.5-2.35s-1.51.78-1.51,2.35V95.69a2.64,2.64,0,0,0,.37,1.5,1.26,1.26,0,0,0,1.14.55A1.28,1.28,0,0,0,275.29,97.19Zm11.35,4.45a5,5,0,0,1-1-3.42V81.43h-1.8V76.54h1.8V70.85h6.25v5.69h1.84v4.89h-1.84v15.1a3.63,3.63,0,0,0,.11,1c.07.22.27.33.59.33a5.27,5.27,0,0,0,.7,0l.44,0v4.41c-.37.09-.9.2-1.6.31a13.12,13.12,0,0,1-2,.16C288.44,102.7,287.28,102.35,286.64,101.64Zm9.15-31h6.61v7.5a3.9,3.9,0,0,1,3.93-2.94A5,5,0,0,1,310.45,77a7.33,7.33,0,0,1,1.4,4.74v20.72h-6.43V82.09a2.33,2.33,0,0,0-.41-1.43,1.36,1.36,0,0,0-1.17-.55,1.21,1.21,0,0,0-1,.57,2.37,2.37,0,0,0-.39,1.37v20.36h-6.61Zm20.13,29.77q-1.8-2.28-1.8-6.8V82.83a7.25,7.25,0,0,1,2.14-5.66,8.48,8.48,0,0,1,5.95-2q7.76,0,7.75,7.61v1.94c0,2,0,3.55-.07,4.78h-9.34v5.22a6.3,6.3,0,0,0,.3,2.18,1.42,1.42,0,0,0,2.3.35,2,2,0,0,0,.36-1c0-.38.06-.93.06-1.67V92H330v1.54c0,3.14-.6,5.45-1.82,6.93s-3.3,2.22-6.26,2.22Q317.73,102.7,315.92,100.43Zm7.65-14.08V82.9c0-1.94-.48-2.9-1.43-2.9s-1.62,1-1.62,2.9v3.45Zm8.71-10.84h6.43v3a4.44,4.44,0,0,1,1.67-2.44,4.87,4.87,0,0,1,3-.87v5.37a13.53,13.53,0,0,0-3,.38c-1.09.26-1.63.56-1.63.9v20.58h-6.43Z"/>
        <path id="_2-11" data-name="2-11" d="M138.4,187.82q-5-5.77-5-15.87V133.16q0-12.54,4.53-18.91t14.2-6.37q8.43,0,13.57,5.1t5.15,14.69v14.5H155.66V129.73c0-2.42-.27-4.08-.8-5a2.92,2.92,0,0,0-2.75-1.37,2.81,2.81,0,0,0-2.8,1.57,11,11,0,0,0-.75,4.6v42.22a9.91,9.91,0,0,0,.89,4.85,2.87,2.87,0,0,0,2.66,1.52c2.36,0,3.55-2.12,3.55-6.37V156.57H171v15.87q0,21.17-19.26,21.16Q143.41,193.6,138.4,187.82Zm35.63,5,7.36-84.14h25.82l7.28,84.14H200L199,179.2h-9.23l-.89,13.61Zm16.86-27h6.92L194.43,123h-.71Zm31.89,21.94q-4.56-5.88-4.57-17.44V108.67H233V169.6a21.85,21.85,0,0,0,.71,6.27,3.16,3.16,0,0,0,6,0,21.81,21.81,0,0,0,.71-6.32V108.67h14.82v61.61q0,11.57-4.57,17.44t-14,5.88Q227.36,193.6,222.78,187.72Zm41.49.2q-4.62-5.68-4.62-18.32v-8.23h15v10.48q0,6.27,3.64,6.27a3.05,3.05,0,0,0,2.84-1.32,9.15,9.15,0,0,0,.8-4.46,22.18,22.18,0,0,0-.89-6.81,15.53,15.53,0,0,0-2.26-4.5q-1.38-1.82-4.93-5.64l-6.57-7.25q-7.62-8.22-7.63-18.22,0-10.77,4.48-16.4t13.09-5.64q10.29,0,14.82,6t4.53,18.85H281L281,127a3.93,3.93,0,0,0-.84-2.64,3,3,0,0,0-2.35-1,3.25,3.25,0,0,0-2.67,1.08,4.5,4.5,0,0,0-.88,2.94q0,4.11,4.26,8.52l8.87,9.4a55.65,55.65,0,0,1,5.15,6.32,26,26,0,0,1,3.28,7.06,33.1,33.1,0,0,1,1.24,9.64q0,12.45-4.13,18.86t-13.62,6.42Q268.88,193.6,264.27,187.92Zm37.8,4.89V108.67h30.52v16.26h-15v16.36H332v15.87H317.6v19.3h16v16.35Z"/>
        <path id="_2-8" data-name="2-8" d="M9.35,147.28V136.09L3.93,113.32h6.73l1.89,11.5,1.9-11.5h6.72l-5.42,22.77v11.19Zm15.38-2.2A10.57,10.57,0,0,1,22.59,138V121.86c0-2.93.72-5.13,2.14-6.62S28.23,113,31,113s4.83.75,6.25,2.24,2.14,3.69,2.14,6.62V138c0,3.06-.72,5.41-2.14,7.07A7.77,7.77,0,0,1,31,147.59,7.71,7.71,0,0,1,24.73,145.08Zm7.47-4.52a6.21,6.21,0,0,0,.32-2.22v-16.6a4.56,4.56,0,0,0-.3-1.8,1.18,1.18,0,0,0-1.21-.69c-1.13,0-1.7.86-1.7,2.57v16.56a5.32,5.32,0,0,0,.36,2.22,1.31,1.31,0,0,0,1.3.75A1.2,1.2,0,0,0,32.2,140.56Zm11.52,4.66q-2-2.37-2-7V113.32h6.6v24.59a7.74,7.74,0,0,0,.32,2.53,1.27,1.27,0,0,0,1.34.91,1.29,1.29,0,0,0,1.34-.89,8,8,0,0,0,.32-2.55V113.32h6.6v24.87q0,4.67-2,7T50,147.59Q45.76,147.59,43.72,145.22Zm17.73-21.94,1.27-4.58H60.27V113H67.5v5.58l-2,4.74Zm8.54-10H80.43a5.89,5.89,0,0,1,3.85,1.13,5.54,5.54,0,0,1,1.84,3.16,23.28,23.28,0,0,1,.48,5.2,10.76,10.76,0,0,1-.76,4.5,4.2,4.2,0,0,1-2.6,2.26,3.14,3.14,0,0,1,2.23,1.54,6.78,6.78,0,0,1,.69,3.32l-.08,12.85H79.44V134c0-.95-.18-1.56-.55-1.82a3.62,3.62,0,0,0-2-.4v15.5H70Zm8.54,12.57c1,0,1.42-1,1.42-3.08a12.74,12.74,0,0,0-.11-2,1.5,1.5,0,0,0-.44-.93,1.41,1.41,0,0,0-.91-.25H76.91v6.28Zm10.32,21.39v-34h13.6v6.56H95.77v6.6h6.4v6.41h-6.4v7.79h7.11v6.6Z"/>
        <path id="_2-9" data-name="2-9" d="M7.57,192.3v-34h7l3.12,16.25V158.34h6.57v34H17.61l-3.4-17v17Zm21.55-2.19Q27,187.59,27,183.05V166.88q0-4.38,2.14-6.62T35.36,158c2.74,0,4.83.74,6.25,2.23s2.13,3.7,2.13,6.62v16.17q0,4.59-2.13,7.08a7.78,7.78,0,0,1-6.25,2.49A7.74,7.74,0,0,1,29.12,190.11Zm7.47-4.53a6.18,6.18,0,0,0,.31-2.21V166.76a4.56,4.56,0,0,0-.29-1.79,1.18,1.18,0,0,0-1.21-.7c-1.13,0-1.7.86-1.7,2.57v16.57a5.3,5.3,0,0,0,.36,2.21,1.31,1.31,0,0,0,1.3.75A1.2,1.2,0,0,0,36.59,185.58ZM49.4,192.3V164.87h-4v-6.53H60.23v6.53h-4V192.3Z"/>
        <path id="_2-10" data-name="2-10" d="M74.3,192.3V164.87h-4v-6.53H85.13v6.53h-4V192.3Zm12.73,0v-34h6.76v12.14H97V158.34h6.76v34H97V176.88h-3.2V192.3Zm19.73,0v-34h13.6v6.57h-6.68v6.6h6.4v6.4h-6.4v7.79h7.11v6.6Z"/>
        <path id="_2-12" data-name="2-12" d="M6.93,241q-2.8-3.3-2.8-9.27V210.52q0-5.76,2.8-8.7t8.21-2.94q5.4,0,8.21,2.94t2.8,8.7v21.25c0,4-.93,7.11-2.8,9.3s-4.61,3.27-8.21,3.27S8.8,243.24,6.93,241Zm9.82-5.95a8,8,0,0,0,.42-2.91V210.37a6.11,6.11,0,0,0-.39-2.37,1.56,1.56,0,0,0-1.59-.91c-1.49,0-2.23,1.13-2.23,3.38v21.77a6.84,6.84,0,0,0,.47,2.9,1.72,1.72,0,0,0,1.71,1A1.57,1.57,0,0,0,16.75,235.09Zm13,8.83V199.3H47.61V208H38.72v7.11h8.42v8.57H38.72v20.26Z"/>
        <path id="_2-13" data-name="2-13" d="M68,243.92v-14.7L60.9,199.3h8.84l2.49,15.12,2.49-15.12h8.83l-7.11,29.92v14.7ZM88.23,241q-2.81-3.3-2.81-9.27V210.52q0-5.76,2.81-8.7t8.21-2.94c3.6,0,6.33,1,8.21,2.94s2.8,4.86,2.8,8.7v21.25c0,4-.94,7.11-2.8,9.3s-4.61,3.27-8.21,3.27S90.1,243.24,88.23,241Zm9.82-5.95a8.25,8.25,0,0,0,.41-2.91V210.37a6.11,6.11,0,0,0-.39-2.37,1.55,1.55,0,0,0-1.58-.91c-1.49,0-2.23,1.13-2.23,3.38v21.77a7,7,0,0,0,.46,2.9,1.73,1.73,0,0,0,1.72,1A1.58,1.58,0,0,0,98.05,235.09Zm15.14,6.13c-1.78-2.08-2.68-5.16-2.68-9.24V199.3h8.68v32.31a10.46,10.46,0,0,0,.42,3.33,1.91,1.91,0,0,0,3.53,0,10.39,10.39,0,0,0,.41-3.35V199.3h8.68V232q0,6.12-2.68,9.24t-8.18,3.12Q115.87,244.34,113.19,241.22Zm22.47-41.92h13.71a7.76,7.76,0,0,1,5.07,1.48,7.35,7.35,0,0,1,2.41,4.16,30.57,30.57,0,0,1,.63,6.83,14.34,14.34,0,0,1-1,5.92,5.53,5.53,0,0,1-3.43,3,4.14,4.14,0,0,1,2.94,2,9,9,0,0,1,.9,4.36l-.1,16.88h-8.73V226.47c0-1.25-.24-2-.72-2.39a4.82,4.82,0,0,0-2.65-.52v20.36h-9Zm11.22,16.52c1.25,0,1.87-1.35,1.87-4a15.75,15.75,0,0,0-.16-2.65,1.91,1.91,0,0,0-.57-1.22,1.82,1.82,0,0,0-1.19-.34h-2.08v8.26Z"/>
        <path id="_2-14" data-name="2-14" d="M172.59,199.3h11.79q5.35,0,7.64,3.45t2.29,10.11q0,6.64-2,10c-1.35,2.26-3.77,3.38-7.27,3.38h-3.64v17.66h-8.78Zm9.3,18.91a3.77,3.77,0,0,0,2.36-.6,2.79,2.79,0,0,0,1-1.71,16.23,16.23,0,0,0,.24-3.2,9.55,9.55,0,0,0-.63-4,2.5,2.5,0,0,0-2.49-1.25h-1v10.81Zm14,25.71,4.31-44.62h15.12l4.25,44.62h-8.46l-.63-7.22h-5.4l-.52,7.22Zm9.87-14.33h4.05l-2-22.71h-.41Zm16.52-30.29H236a7.71,7.71,0,0,1,5.06,1.48,7.36,7.36,0,0,1,2.42,4.16,30.64,30.64,0,0,1,.62,6.83,14.53,14.53,0,0,1-1,5.92,5.53,5.53,0,0,1-3.43,3,4.1,4.1,0,0,1,2.93,2,8.84,8.84,0,0,1,.91,4.36l-.1,16.88h-8.73V226.47c0-1.25-.24-2-.73-2.39a4.79,4.79,0,0,0-2.65-.52v20.36h-9Zm11.22,16.52c1.24,0,1.87-1.35,1.87-4a16.91,16.91,0,0,0-.16-2.65,1.91,1.91,0,0,0-.57-1.22,1.84,1.84,0,0,0-1.2-.34H231.4v8.26Zm13.55,28.1V199.3H265v8.62h-8.78v8.68h8.42V225h-8.42v10.24h9.36v8.67Zm21.41,0V199.3h9.19l4.11,21.35V199.3h8.62v44.62h-8.73l-4.47-22.33v22.33Zm29.71,0v-36h-5.3V199.3h19.53v8.57h-5.29v36Zm18.55-2.59q-2.72-3-2.71-9.72v-4.36h8.78v5.56c0,2.21.71,3.32,2.13,3.32a1.86,1.86,0,0,0,1.67-.7,4.46,4.46,0,0,0,.46-2.36,10.57,10.57,0,0,0-.52-3.61,7.58,7.58,0,0,0-1.32-2.39c-.54-.64-1.5-1.64-2.88-3l-3.85-3.84q-4.47-4.37-4.47-9.67,0-5.72,2.63-8.7t7.66-3q6,0,8.67,3.2t2.65,10h-9.09l-.05-3.07a2,2,0,0,0-.49-1.4,1.84,1.84,0,0,0-1.38-.52,2,2,0,0,0-1.56.57,2.28,2.28,0,0,0-.52,1.56c0,1.46.83,3,2.5,4.52l5.19,5a29,29,0,0,1,3,3.35,13.2,13.2,0,0,1,1.93,3.74,16.22,16.22,0,0,1,.72,5.12q0,6.6-2.41,10t-8,3.4Q319.45,244.34,316.75,241.33Z"/>
        <path id="_2-15" data-name="2-15" d="M1.83,313.33V248.71H34.08L43,288.13l8.86-39.42h32.5v64.62H65V266.76L52.79,313.33H33.84L20.91,266.76v46.57Zm90.84,0V248.71h20.44v64.62Zm33.24-3.76q-6.41-4.36-6.4-14.07v-6.32h20.8v8.05q0,4.81,5.05,4.82c1.89,0,3.2-.34,3.94-1a4.47,4.47,0,0,0,1.11-3.42,10.1,10.1,0,0,0-1.24-5.23,11.54,11.54,0,0,0-3.13-3.46q-1.92-1.4-6.84-4.33L130.09,279q-10.57-6.33-10.58-14,0-8.26,6.22-12.6t18.15-4.32q14.28,0,20.56,4.62t6.28,14.49H149.17l-.12-4.44a2.3,2.3,0,0,0-1.17-2,5.93,5.93,0,0,0-3.26-.76,6.67,6.67,0,0,0-3.69.83,2.59,2.59,0,0,0-1.23,2.26c0,2.1,2,4.29,5.9,6.54l12.31,7.22a59.77,59.77,0,0,1,7.14,4.86,18.3,18.3,0,0,1,4.56,5.41,15.14,15.14,0,0,1,1.72,7.41q0,9.56-5.72,14.49t-18.9,4.92Q132.31,313.93,125.91,309.57Zm52.44,3.76V248.71h42.34V261.2h-20.8v12.56h19.94V286H199.89v14.82h22.16v12.56Zm50.71-64.62h32.5q7.76,0,12,2.14a11.16,11.16,0,0,1,5.72,6,28,28,0,0,1,1.48,9.89c0,3.67-.78,6.52-2.34,8.58s-4.27,3.49-8.12,4.29q4.8.6,6.95,2.93a8.94,8.94,0,0,1,2.16,6.32l-.25,24.45H258.48V288.05c0-1.8-.57-2.95-1.72-3.46a17.83,17.83,0,0,0-6.28-.75v29.49H229.06Zm26.59,23.92c3,0,4.43-1.95,4.43-5.87a14.61,14.61,0,0,0-.37-3.83,2.66,2.66,0,0,0-1.35-1.77,6.48,6.48,0,0,0-2.83-.49H250.6v12Zm44.93,40.7V292l-16.87-43.33h20.93l5.91,21.89,5.91-21.89h20.92L320.52,292v21.29Z"/>
        <path id="_2-19" data-name="2-19" d="M5.72,422q-3-3.37-3-10.9v-4.89h9.85v6.23c0,2.49.79,3.73,2.39,3.73a2.08,2.08,0,0,0,1.86-.78,5,5,0,0,0,.53-2.66,11.85,11.85,0,0,0-.59-4A9,9,0,0,0,15.25,406c-.61-.71-1.68-1.83-3.24-3.35L7.7,398.34q-5-4.89-5-10.83,0-6.42,2.94-9.76c2-2.24,4.83-3.35,8.6-3.35Q21,374.4,24,378t3,11.22H16.73l-.06-3.44a2.16,2.16,0,0,0-.55-1.57,2,2,0,0,0-1.54-.59,2.27,2.27,0,0,0-1.75.64,2.5,2.5,0,0,0-.58,1.75q0,2.44,2.79,5.07l5.83,5.59a34.21,34.21,0,0,1,3.38,3.76,14.83,14.83,0,0,1,2.15,4.2,17.8,17.8,0,0,1,.82,5.74q0,7.39-2.71,11.21t-8.94,3.82Q8.74,425.38,5.72,422Zm30.88,2.91V408.42l-8-33.56h9.9l2.8,17,2.8-17H54l-8,33.56v16.49Zm19.93,0V374.86H71.79L76,405.39l4.19-30.53H95.56v50.05H86.42V388.85l-5.77,36.06h-9l-6.11-36.06v36.06ZM100,374.86h13.23q6,0,8.56,3.88t2.56,11.33q0,7.46-2.27,11.24t-8.15,3.79h-4.08v19.81H100Zm10.43,21.21a4.23,4.23,0,0,0,2.65-.67,3.25,3.25,0,0,0,1.11-1.92,19.11,19.11,0,0,0,.26-3.59,10.76,10.76,0,0,0-.7-4.54,2.83,2.83,0,0,0-2.8-1.4h-1.1v12.12Zm21.38,28.84V384.48h-5.94v-9.62h21.91v9.62h-6v40.43Zm21.5-3.23q-3.15-3.71-3.15-10.4V387.45q0-6.46,3.15-9.76t9.21-3.29q6.06,0,9.2,3.29t3.15,9.76v23.83q0,6.75-3.15,10.43t-9.2,3.67Q156.45,425.38,153.3,421.68Zm11-6.67a9.13,9.13,0,0,0,.47-3.27V387.27a6.84,6.84,0,0,0-.44-2.65,1.73,1.73,0,0,0-1.77-1c-1.68,0-2.51,1.26-2.51,3.79V411.8a7.86,7.86,0,0,0,.52,3.26,1.94,1.94,0,0,0,1.93,1.11A1.77,1.77,0,0,0,164.31,415Zm14.57,9.9V374.86h15.26l4.2,30.53,4.19-30.53h15.38v50.05h-9.14V388.85L203,424.91h-9l-6.12-36.06v36.06Z"/>
        <path id="_2-20" data-name="2-20" d="M238.71,421.68q-3.14-3.71-3.14-10.4V387.45q0-6.46,3.14-9.76t9.21-3.29q6.06,0,9.21,3.29t3.14,9.76v23.83q0,6.75-3.14,10.43t-9.21,3.67Q241.86,425.38,238.71,421.68Zm11-6.67a9.16,9.16,0,0,0,.46-3.27V387.27a6.66,6.66,0,0,0-.44-2.65,1.73,1.73,0,0,0-1.77-1q-2.5,0-2.51,3.79V411.8a7.84,7.84,0,0,0,.53,3.26,1.93,1.93,0,0,0,1.92,1.11A1.79,1.79,0,0,0,249.73,415Zm14.56,9.9V374.86h20v9.73h-10v8h9.44v9.61h-9.44v22.72Z"/>
        <path id="_2-21" data-name="2-21" d="M300.7,424.91V374.86h9.68v50.05Zm18,0V384.48h-5.95v-9.62h21.91v9.62h-5.94v40.43Z"/>
      </g>
    </g>
  </g>
</svg>
