<svg xmlns="http://www.w3.org/2000/svg" viewBox="0 0 250.24 423">
  <g id="Layer_2" data-name="Layer 2">
    <g id="text">
      <g id="_5-line" data-name="5-line">
        <path id="_5-1" data-name="5-1" d="M3.17,74.05V.68H25.55L31.7,45.44,37.85.68H60.4V74.05H47V21.18L38.53,74.05H25.38l-9-52.87V74.05ZM70.9,69.31q-4.61-5.41-4.61-15.24V19.13q0-9.48,4.61-14.3T84.4,0q8.88,0,13.49,4.83t4.62,14.3V54.07q0,9.9-4.62,15.29T84.4,74.74Q75.52,74.74,70.9,69.31Zm16.15-9.78a13.39,13.39,0,0,0,.68-4.78V18.88A9.93,9.93,0,0,0,87.09,15a2.54,2.54,0,0,0-2.61-1.49c-2.44,0-3.67,1.85-3.67,5.55V54.84a11.63,11.63,0,0,0,.77,4.78,2.83,2.83,0,0,0,2.82,1.62A2.6,2.6,0,0,0,87.05,59.53ZM108.4.68H131c3.59,0,6.36.81,8.33,2.44a12.09,12.09,0,0,1,4,6.83,51.06,51.06,0,0,1,1,11.23q0,6.24-1.62,9.74A9.09,9.09,0,0,1,137,35.79a6.8,6.8,0,0,1,4.83,3.33,14.6,14.6,0,0,1,1.49,7.17l-.17,27.76H128.81V45.35c0-2.05-.4-3.35-1.19-3.92s-2.25-.86-4.36-.86V74.05H108.4Zm18.45,27.16q3.08,0,3.07-6.66a27.44,27.44,0,0,0-.25-4.35,3.26,3.26,0,0,0-.94-2,3.06,3.06,0,0,0-2-.56h-3.41V27.84Zm28.61,46.21V14.78h-8.71V.68h32.12v14.1h-8.72V74.05Zm36.39,0V49.88L180.15.68h14.52l4.1,24.86L202.87.68h14.52l-11.7,49.2V74.05Zm30.83,9.83,2.74-9.83h-5.3V61.58h15.55v12l-4.19,10.25Z"/>
        <path id="_5-2" data-name="5-2" d="M3.05,119.22V85.16h7l3.13,16.29V85.16h6.59v34.06H13.12l-3.41-17v17ZM24.66,117q-2.14-2.52-2.14-7.08V93.72c0-2.93.71-5.15,2.14-6.64s3.52-2.24,6.27-2.24,4.83.75,6.26,2.24,2.14,3.71,2.14,6.64v16.22c0,3.07-.71,5.43-2.14,7.1a7.8,7.8,0,0,1-6.26,2.49A7.77,7.77,0,0,1,24.66,117Zm7.5-4.54a6.24,6.24,0,0,0,.31-2.22V93.6a4.77,4.77,0,0,0-.29-1.8A1.2,1.2,0,0,0,31,91.1q-1.71,0-1.71,2.58V110.3a5.39,5.39,0,0,0,.36,2.22,1.32,1.32,0,0,0,1.31.75A1.22,1.22,0,0,0,32.16,112.48Z"/>
        <path id="_5-3" data-name="5-3" d="M53.21,117q-2.15-2.52-2.14-7.08V93.72c0-2.93.71-5.15,2.14-6.64s3.52-2.24,6.27-2.24a8.29,8.29,0,0,1,6.26,2.24c1.43,1.49,2.14,3.71,2.14,6.64v16.22c0,3.07-.71,5.43-2.14,7.1a7.81,7.81,0,0,1-6.26,2.49A7.77,7.77,0,0,1,53.21,117Zm7.49-4.54a6,6,0,0,0,.32-2.22V93.6a4.56,4.56,0,0,0-.3-1.8,1.18,1.18,0,0,0-1.21-.7c-1.13,0-1.7.86-1.7,2.58V110.3a5.39,5.39,0,0,0,.36,2.22,1.31,1.31,0,0,0,1.31.75A1.19,1.19,0,0,0,60.7,112.48Zm9.92,6.74V85.16H84.26v6.62H77.48v5.43H83.9v6.54H77.48v15.47Zm15.82,0V85.16h13.64v6.62H93.3v5.43h6.42v6.54H93.3v15.47Zm15.82,0V85.16H115.9v6.58h-6.7v6.62h6.42v6.42H109.2v7.82h7.13v6.62Zm16.33,0V85.16h7l3.13,16.29V85.16h6.59v34.06h-6.67l-3.41-17v17Zm21.14-2q-2.07-2.3-2.07-7.41v-3.33h6.71v4.24c0,1.69.54,2.54,1.62,2.54a1.41,1.41,0,0,0,1.27-.54,3.33,3.33,0,0,0,.36-1.8,8.3,8.3,0,0,0-.4-2.76,6,6,0,0,0-1-1.82c-.41-.49-1.14-1.25-2.2-2.28l-2.94-2.93a10.14,10.14,0,0,1-3.41-7.38q0-4.37,2-6.64a7.35,7.35,0,0,1,5.84-2.28q4.61,0,6.63,2.44c1.35,1.62,2,4.17,2,7.63h-6.94l0-2.34a1.5,1.5,0,0,0-.38-1.07,1.39,1.39,0,0,0-1.05-.4,1.54,1.54,0,0,0-1.19.44,1.72,1.72,0,0,0-.39,1.19,4.94,4.94,0,0,0,1.9,3.45l4,3.81a23.08,23.08,0,0,1,2.3,2.55,10.26,10.26,0,0,1,1.46,2.86,12.26,12.26,0,0,1,.56,3.9q0,5-1.85,7.64c-1.23,1.73-3.25,2.59-6.08,2.59C143.33,119.53,141.1,118.77,139.73,117.23Zm16.89,2V85.16h13.64v6.58h-6.7v6.62H170v6.42h-6.42v7.82h7.13v6.62Z"/>
        <path id="_5-4" data-name="5-4" d="M182.23,85.16h9.24c2.48,0,4.29.61,5.41,1.82s1.69,3.2,1.69,6v1.5c0,3.26-1.17,5.2-3.49,5.83a4.28,4.28,0,0,1,3,2.58,13.73,13.73,0,0,1,.87,5.35q0,5.44-1.62,8.23c-1.09,1.87-3,2.8-5.87,2.8h-9.24ZM190.28,98a1.19,1.19,0,0,0,1.19-.65,4.34,4.34,0,0,0,.32-1.84V92.06c0-1.11-.49-1.67-1.47-1.67h-1.43V98Zm1.94,12.73v-4.24a4.85,4.85,0,0,0-.45-2.34,1.7,1.7,0,0,0-1.61-.79h-1.27v9.87l.68,0C191.34,113.23,192.22,112.38,192.22,110.69Zm10.65,6.46q-2-2.37-2-7.05V85.16h6.62v24.66a7.81,7.81,0,0,0,.32,2.54,1.46,1.46,0,0,0,2.69,0,8.06,8.06,0,0,0,.32-2.56V85.16h6.62V110.1q0,4.68-2,7.05t-6.25,2.38Q204.91,119.53,202.87,117.15ZM223,119.22V91.7h-4V85.16h14.91V91.7h-4v27.52Z"/>
        <path id="_5-5" data-name="5-5" d="M6.31,175.55l4.64-48H27.22l4.59,48H22.7L22,167.77H16.21l-.56,7.78Zm10.63-15.44H21.3l-2.13-24.43h-.44Z"/>
        <path id="_5-6" data-name="5-6" d="M47.8,127.52H61.05q5.15,0,7.72,2.85t2.63,8.44l.11,22.48q0,7.1-2.46,10.68c-1.68,2.38-4.46,3.58-8.33,3.58H47.8Zm11.35,39.53a2.3,2.3,0,0,0,2.63-2.57V139.71a9.11,9.11,0,0,0-.25-2.44,1.63,1.63,0,0,0-.93-1.09,5.78,5.78,0,0,0-2.06-.28H57.47v31.15Zm16.22-39.53H90.13a8.37,8.37,0,0,1,5.45,1.59,8,8,0,0,1,2.6,4.47,33.14,33.14,0,0,1,.67,7.36,15.63,15.63,0,0,1-1.06,6.37,6,6,0,0,1-3.69,3.19,4.46,4.46,0,0,1,3.16,2.18,9.57,9.57,0,0,1,1,4.69l-.11,18.18H88.73V156.76c0-1.34-.26-2.2-.78-2.57a5.19,5.19,0,0,0-2.86-.56v21.92H75.37ZM87.44,145.3c1.34,0,2-1.46,2-4.36a18.13,18.13,0,0,0-.17-2.86,2.09,2.09,0,0,0-.62-1.31,2,2,0,0,0-1.28-.36H85.15v8.89Zm13.31,30.25,4.64-48h16.27l4.59,48h-9.12l-.67-7.78h-5.81l-.56,7.78Zm10.62-15.44h4.36l-2.12-24.43h-.45Zm20.75,15.44-5.15-48h9.4l2.68,30.3,2.68-30.3h9l2.57,30.3,2.57-30.3h9.51l-5.26,48H148.56l-2.41-23.15-2.29,23.15Zm35.61,0v-48H177v48Zm13.14,0v-48h9.9l4.42,23v-23h9.28v48h-9.39l-4.81-24.05v24.05Zm30-3.22q-2.55-3.66-2.54-11.1V140.54q0-6.64,3-10.06t8.83-3.41q4.75,0,7.38,1.9a9.74,9.74,0,0,1,3.64,5.54,35.8,35.8,0,0,1,1,9.33h-9.4v-4.3a6.27,6.27,0,0,0-.47-2.69,1.75,1.75,0,0,0-1.71-.95c-1.83,0-2.74,1.2-2.74,3.58v23.26a7.63,7.63,0,0,0,.56,3.3,2.27,2.27,0,0,0,3.91,0,7.48,7.48,0,0,0,.56-3.3v-6.88h-2.57v-8.27H232v28h-3.85l-1.63-4a8.53,8.53,0,0,1-7.94,4.47Q213.42,176,210.87,172.33Z"/>
        <path id="_5-7" data-name="5-7" d="M6.58,196.92v-5.27L4,180.91H7.2l.89,5.42.9-5.42h3.16L9.6,191.65v5.27Zm7.25-1a5,5,0,0,1-1-3.33v-7.62a4.35,4.35,0,0,1,1-3.12,3.86,3.86,0,0,1,3-1.06,3.85,3.85,0,0,1,2.94,1.06,4.35,4.35,0,0,1,1,3.12v7.62a5,5,0,0,1-1,3.34,3.66,3.66,0,0,1-2.94,1.17A3.64,3.64,0,0,1,13.83,195.89Zm3.52-2.14a2.86,2.86,0,0,0,.15-1v-7.83a2.07,2.07,0,0,0-.14-.85.55.55,0,0,0-.56-.32c-.54,0-.81.4-.81,1.21v7.81a2.51,2.51,0,0,0,.17,1,.62.62,0,0,0,.62.36A.57.57,0,0,0,17.35,193.75Zm5.44,2.2a5,5,0,0,1-1-3.32V180.91h3.11V192.5a3.81,3.81,0,0,0,.15,1.2.69.69,0,0,0,1.27,0,4.12,4.12,0,0,0,.14-1.21V180.91h3.12v11.72a5,5,0,0,1-1,3.32,3.65,3.65,0,0,1-2.94,1.12A3.63,3.63,0,0,1,22.79,196Z"/>
        <path id="_5-8" data-name="5-8" d="M35.21,196.92v-16h4.88l1.34,9.77,1.35-9.77H47.7v16H44.77V185.38l-1.85,11.54H40.05L38.1,185.38v11.54Zm13.47,0,1.55-16h5.42l1.53,16h-3l-.22-2.59H52l-.18,2.59Zm3.54-5.14h1.46L53,183.63h-.15Zm5.93-10.87h4.42a3.3,3.3,0,0,1,2.57,1,4.2,4.2,0,0,1,.88,2.82l0,7.49a6.05,6.05,0,0,1-.82,3.56,3.16,3.16,0,0,1-2.77,1.19H58.15Zm3.78,13.18a.77.77,0,0,0,.88-.86V185a3.2,3.2,0,0,0-.08-.81.54.54,0,0,0-.31-.36,2,2,0,0,0-.69-.09h-.35v10.38Zm5.41,2.83v-16h6.41V184H70.6v3.11h3v3h-3v3.67H74v3.11Z"/>
        <path id="_5-9" data-name="5-9" d="M80.25,195.89a5,5,0,0,1-1-3.33v-7.62a4.35,4.35,0,0,1,1-3.12,4.62,4.62,0,0,1,5.89,0,4.31,4.31,0,0,1,1,3.12v7.62a5,5,0,0,1-1,3.34,4.28,4.28,0,0,1-5.89,0Zm3.53-2.14a2.86,2.86,0,0,0,.15-1v-7.83a2.25,2.25,0,0,0-.14-.85.57.57,0,0,0-.57-.32c-.54,0-.8.4-.8,1.21v7.81a2.54,2.54,0,0,0,.16,1,.63.63,0,0,0,.62.36A.57.57,0,0,0,83.78,193.75Zm4.66,3.17v-16h6.41V184H91.66v2.56h3v3.07h-3v7.27Z"/>
        <path id="_5-10" data-name="5-10" d="M98.26,196.92v-16h4.88l1.34,9.77,1.34-9.77h4.93v16h-2.93V185.38L106,196.92H103.1l-1.95-11.54v11.54Zm13.9,0v-16h6.41V184h-3.15v3.11h3v3h-3v3.67h3.36v3.11Z"/>
        <path id="_5-11" data-name="5-11" d="M125.45,196.92l-1.71-16h3.13l.89,10.1.9-10.1h3l.85,10.1.86-10.1h3.17l-1.75,16h-3.84l-.8-7.71-.77,7.71Zm12,0v-16h3.19v5.72h1.51v-5.72h3.18v16h-3.18v-7.27h-1.51v7.27Zm9.3,0v-16h6.41V184H150v3.11h3v3h-3v3.67h3.36v3.11Zm7.68,0v-16h3.3l1.47,7.66v-7.66h3.09v16h-3.13l-1.6-8v8Z"/>
        <path id="_5-12" data-name="5-12" d="M170,196.92v-5.27l-2.55-10.74h3.16l.9,5.42.89-5.42h3.17l-2.55,10.74v5.27Zm7.25-1a5,5,0,0,1-1-3.33v-7.62a4.35,4.35,0,0,1,1-3.12,4.62,4.62,0,0,1,5.89,0,4.35,4.35,0,0,1,1,3.12v7.62a5,5,0,0,1-1,3.34,4.28,4.28,0,0,1-5.89,0Zm3.52-2.14a2.86,2.86,0,0,0,.15-1v-7.83a2.25,2.25,0,0,0-.14-.85.56.56,0,0,0-.57-.32c-.53,0-.8.4-.8,1.21v7.81a2.51,2.51,0,0,0,.17,1,.62.62,0,0,0,.61.36A.57.57,0,0,0,180.8,193.75Zm5.44,2.2a5,5,0,0,1-1-3.32V180.91h3.11V192.5a3.81,3.81,0,0,0,.15,1.2.61.61,0,0,0,.63.43.6.6,0,0,0,.63-.42,3.76,3.76,0,0,0,.15-1.21V180.91h3.12v11.72a5,5,0,0,1-1,3.32,4.41,4.41,0,0,1-5.87,0Z"/>
        <path id="_5-13" data-name="5-13" d="M199.91,196.92l-1.72-16h3.13l.9,10.1.89-10.1h3L207,191l.86-10.1H211l-1.76,16h-3.84l-.8-7.71-.76,7.71Zm12,0v-16h6.41V184h-3.15v3.11h3v3h-3v3.67h3.35v3.11Zm7.68-16h4.92a2.79,2.79,0,0,1,1.81.53,2.66,2.66,0,0,1,.87,1.49,11.08,11.08,0,0,1,.22,2.45,5.3,5.3,0,0,1-.35,2.13,2,2,0,0,1-1.23,1.06,1.48,1.48,0,0,1,1.05.73,3.14,3.14,0,0,1,.33,1.56l0,6.06h-3.13v-6.26c0-.45-.09-.73-.26-.86a1.8,1.8,0,0,0-1-.18v7.3h-3.24Zm4,5.93c.45,0,.67-.49.67-1.46a7.28,7.28,0,0,0-.05-.95A.7.7,0,0,0,224,184a.67.67,0,0,0-.43-.13h-.74v3Zm4.87,10.08v-16h6.41V184h-3.15v3.11h3v3h-3v3.67h3.35v3.11Z"/>
        <path id="_5-14" data-name="5-14" d="M6.26,277.38Q0,270.85,0,258.08v-5.55Q0,245.9,1.93,242a12.26,12.26,0,0,1,6.73-5.85A11.25,11.25,0,0,1,2.11,231a19,19,0,0,1-2-9.26v-2.25q0-10.9,6.61-16.08t19.6-5.16q13.22,0,19.71,5.26t6.5,16.67a24.36,24.36,0,0,1-1.88,10.38,11.19,11.19,0,0,1-6.67,5.7q5.38,2.15,7,6.68t1.63,13a12.92,12.92,0,0,1-.11,2.14q0,12.78-6.2,19.3t-20,6.53Q12.52,283.91,6.26,277.38Zm25.57-18.32-.12-4.19a25.69,25.69,0,0,0-.94-7.7q-.93-2.92-4.44-2.93a4.39,4.39,0,0,0-4.22,2.58,14.38,14.38,0,0,0-1.28,6.39,20.07,20.07,0,0,0,.11,2.44v.78l-.11,2.63q0,8.28,5.5,8.28T31.83,259.06Zm-.24-38a10.44,10.44,0,0,0-1.23-5.26,4.28,4.28,0,0,0-4-2.14,4.28,4.28,0,0,0-4,2.14A10.44,10.44,0,0,0,21.06,221q0,8,5.27,8T31.59,221Z"/>
        <path id="_5-15" data-name="5-15" d="M60.59,243.89v-41h7.1v41Zm11.56-2.39c-1.49-1.84-2.23-4.82-2.23-8.92v-4h7.24v5.11c0,2,.58,3,1.75,3a1.45,1.45,0,0,0,1.37-.64,4.42,4.42,0,0,0,.39-2.17,10.75,10.75,0,0,0-.43-3.32,7.47,7.47,0,0,0-1.09-2.19c-.44-.59-1.24-1.51-2.38-2.75l-3.17-3.53a12.82,12.82,0,0,1-3.68-8.87q0-5.25,2.16-8a7.56,7.56,0,0,1,6.32-2.74c3.31,0,5.7,1,7.15,2.93s2.19,5,2.19,9.19h-7.5l0-2.82a1.94,1.94,0,0,0-.41-1.29,1.43,1.43,0,0,0-1.13-.47,1.58,1.58,0,0,0-1.29.52,2.24,2.24,0,0,0-.43,1.43A6.18,6.18,0,0,0,79,216.17l4.28,4.58a26.73,26.73,0,0,1,2.49,3.08,12.77,12.77,0,0,1,1.58,3.43A16.32,16.32,0,0,1,88,232q0,6.06-2,9.18t-6.58,3.13Q74.37,244.27,72.15,241.5Zm18.24,2.39v-41H98l3.38,19.61V202.91h7.11v41h-7.19l-3.69-20.52v20.52Zm24.49,0V210.78h-4.37v-7.87h16.11v7.87h-4.37v33.11Z"/>
        <path id="_5-16" data-name="5-16" d="M140.34,241.14q-2-3.12-2-9.46V214q0-5.67,2.27-8.58t6.77-2.91a8.8,8.8,0,0,1,5.65,1.62,8.45,8.45,0,0,1,2.78,4.72,33.67,33.67,0,0,1,.77,8h-7.19v-3.67a5.6,5.6,0,0,0-.37-2.29,1.3,1.3,0,0,0-1.3-.81c-1.4,0-2.1,1-2.1,3.05V233a7.12,7.12,0,0,0,.43,2.82,1.51,1.51,0,0,0,1.5.95,1.53,1.53,0,0,0,1.5-.95,7.33,7.33,0,0,0,.42-2.82V227.1h-2V220h9v23.85h-3l-1.24-3.44a6.43,6.43,0,0,1-6.08,3.82A6.51,6.51,0,0,1,140.34,241.14Zm21.13.1q-2.31-3-2.31-8.52V213.21q0-5.29,2.31-8t6.77-2.69q4.45,0,6.76,2.69c1.54,1.8,2.32,4.46,2.32,8v19.51c0,3.69-.78,6.54-2.32,8.54a9.09,9.09,0,0,1-13.53,0Zm8.09-5.46a8.17,8.17,0,0,0,.35-2.67v-20a6.25,6.25,0,0,0-.32-2.17,1.26,1.26,0,0,0-1.31-.83c-1.23,0-1.84,1-1.84,3.1v20a7.36,7.36,0,0,0,.38,2.68,1.42,1.42,0,0,0,1.42.9A1.3,1.3,0,0,0,169.56,235.78Zm10.37,8.11v-41H187v41Zm10.06,0v-41h7.58L201,222.52V202.91h7.11v41h-7.19l-3.69-20.52v20.52Zm23-2.75q-2-3.12-2-9.46V214q0-5.67,2.27-8.58c1.52-1.94,3.77-2.91,6.77-2.91a8.78,8.78,0,0,1,5.65,1.62,8.52,8.52,0,0,1,2.79,4.72,34.2,34.2,0,0,1,.77,8h-7.2v-3.67a5.79,5.79,0,0,0-.36-2.29,1.31,1.31,0,0,0-1.31-.81c-1.4,0-2.1,1-2.1,3.05V233a7.3,7.3,0,0,0,.43,2.82,1.66,1.66,0,0,0,3,0,7.3,7.3,0,0,0,.43-2.82V227.1h-2V220h9v23.85h-2.95L225,240.45a6.43,6.43,0,0,1-6.08,3.82A6.51,6.51,0,0,1,213,241.14Z"/>
        <path id="_5-17" data-name="5-17" d="M65.08,283.19V257.3h-3.8v-6.16h14v6.16H71.5v25.89Zm13.77-2.07a10,10,0,0,1-2-6.66V259.2q0-4.14,2-6.25a7.78,7.78,0,0,1,5.9-2.11A7.74,7.74,0,0,1,90.64,253q2,2.12,2,6.25v15.26q0,4.34-2,6.68a7.31,7.31,0,0,1-5.89,2.35A7.32,7.32,0,0,1,78.85,281.12Zm7.06-4.27a6,6,0,0,0,.29-2.09V259.09a4.31,4.31,0,0,0-.28-1.7,1.1,1.1,0,0,0-1.13-.65c-1.07,0-1.61.81-1.61,2.42V274.8a5,5,0,0,0,.34,2.09,1.24,1.24,0,0,0,1.23.71A1.14,1.14,0,0,0,85.91,276.85Z"/>
        <path id="_5-18" data-name="5-18" d="M104,283.19V251.14h9.77l2.69,19.55,2.69-19.55H129v32.05h-5.86V260.1l-3.69,23.09h-5.75l-3.92-23.09v23.09Zm27,0L134,251.14H144.9L148,283.19h-6.08l-.45-5.18h-3.88l-.37,5.18ZM138,272.9H141l-1.42-16.31h-.3Zm11.86,10.29V251.14h6.35V264l3-12.84h6.46l-3.59,14.67,4.33,17.38h-6.64l-3.51-15.52v15.52Zm17.62,0V251.14h12.83v6.19h-6.3v6.24h6v6h-6V277h6.71v6.23Z"/>
        <path id="_5-19" data-name="5-19" d="M191.62,283.19V251.14h9.78l2.69,19.55,2.68-19.55h9.85v32.05h-5.86V260.1l-3.69,23.09h-5.75l-3.91-23.09v23.09Zm27.84,0V251.14H232.3v6.19H226v6.24h6v6h-6V277h6.72v6.23Z"/>
        <path id="_5-20" data-name="5-20" d="M5.74,316.44V290.61H16.09v5H10.94v4.12h4.87v5H10.94v11.73Zm12,0V290.61H28.08v5H23v5h4.87v4.87H23v5.93h5.41v5Zm12.39,0V290.61H40.47v5H35.39v5h4.87v4.87H35.39v5.93H40.8v5Zm12.38,0V290.61h5.18v21.44H53v4.39Z"/>
        <path id="_5-21" data-name="5-21" d="M61.49,316.44V290.61h5.17v21.44H72v4.39Zm11.69,0V290.61h5v25.83Zm7.07,0V290.61h5.11V301l2.41-10.34H93l-2.89,11.82,3.49,14H88.22l-2.83-12.51v12.51Zm14.19,0V290.61h10.34v5H99.7v5h4.87v4.87H99.7v5.93h5.41v5Z"/>
        <path id="_5-22" data-name="5-22" d="M110.56,359.35V289.28h13v58.16H137v11.91Zm30.07,0V289.28h26.06v13.54h-12.8v13.62h12.27v13.22H153.89v16.07h13.63v13.62Zm33.86-4.08q-3.94-4.72-3.94-15.25v-6.86h12.8v8.73q0,5.22,3.11,5.22a2.6,2.6,0,0,0,2.42-1.1,7.34,7.34,0,0,0,.69-3.71,18.16,18.16,0,0,0-.76-5.67,13,13,0,0,0-1.93-3.75q-1.19-1.51-4.21-4.69l-5.6-6q-6.52-6.84-6.52-15.17,0-9,3.83-13.66t11.17-4.69q8.79,0,12.65,5t3.87,15.7H188.81l-.08-4.81a3.23,3.23,0,0,0-.72-2.21,2.54,2.54,0,0,0-2-.81,2.84,2.84,0,0,0-2.28.89,3.72,3.72,0,0,0-.76,2.45c0,2.29,1.22,4.65,3.64,7.1l7.58,7.83a46.08,46.08,0,0,1,4.39,5.26,21.16,21.16,0,0,1,2.8,5.87,27,27,0,0,1,1.06,8q0,10.35-3.52,15.7T187.29,360Q178.43,360,174.49,355.27Zm34.92,0q-3.93-4.72-3.94-15.25v-6.86h12.81v8.73q0,5.22,3.1,5.22a2.63,2.63,0,0,0,2.43-1.1,7.47,7.47,0,0,0,.68-3.71,17.87,17.87,0,0,0-.76-5.67,12.71,12.71,0,0,0-1.93-3.75c-.78-1-2.19-2.57-4.21-4.69l-5.6-6q-6.51-6.84-6.52-15.17,0-9,3.83-13.66t11.17-4.69q8.79,0,12.65,5t3.87,15.7H223.73l-.07-4.81a3.23,3.23,0,0,0-.72-2.21,2.55,2.55,0,0,0-2-.81,2.82,2.82,0,0,0-2.27.89,3.67,3.67,0,0,0-.76,2.45c0,2.29,1.21,4.65,3.63,7.1l7.58,7.83a45.06,45.06,0,0,1,4.39,5.26,21.46,21.46,0,0,1,2.81,5.87,27.3,27.3,0,0,1,1.06,8q0,10.35-3.53,15.7T222.22,360Q213.36,360,209.41,355.27Z"/>
        <path id="_5-23" data-name="5-23" d="M6.93,357.41q-2.59-3-2.59-8.55V329.27c0-3.54.86-6.22,2.59-8s4.24-2.71,7.56-2.71,5.85.9,7.57,2.71,2.59,4.48,2.59,8v19.59c0,3.7-.87,6.56-2.59,8.57s-4.25,3-7.57,3S8.65,359.44,6.93,357.41ZM16,351.92a7.55,7.55,0,0,0,.38-2.68V329.13A5.57,5.57,0,0,0,16,327a1.43,1.43,0,0,0-1.46-.84c-1.37,0-2.06,1-2.06,3.11v20.07a6.43,6.43,0,0,0,.43,2.68,1.59,1.59,0,0,0,1.58.91A1.46,1.46,0,0,0,16,351.92Zm12,8.15V318.93H44.43v8H36.24v6.57H44v7.9H36.24v18.68Z"/>
        <path id="_5-24" data-name="5-24" d="M57.17,360.07l4-41.14H75.08L79,360.07H71.2l-.58-6.66h-5l-.48,6.66Zm9.1-13.22H70l-1.82-20.93H67.8Zm15.22,13.22V318.93H90l3.79,19.68V318.93h7.95v41.14h-8l-4.12-20.6v20.6Z"/>
        <path id="_5-25" data-name="5-25" d="M1.6,422.45l5.66-58.58H27.11l5.59,58.58H21.58L20.77,413h-7.1L13,422.45Zm13-18.82h5.32l-2.59-29.8h-.55ZM39.62,419q-3.85-4-3.85-11.05v-27q0-8.73,3.48-13.16t10.91-4.43q6.48,0,10.43,3.54t4,10.23v10.1H52.88v-8.66a6.93,6.93,0,0,0-.61-3.48,2.31,2.31,0,0,0-2.11-1A2.21,2.21,0,0,0,48,375.19a7,7,0,0,0-.58,3.21v29.39a6.48,6.48,0,0,0,.68,3.38,2.28,2.28,0,0,0,2,1.05c1.81,0,2.72-1.47,2.72-4.43V397.22h11.8v11q0,14.73-14.8,14.73A13.56,13.56,0,0,1,39.62,419ZM72,419q-3.86-4-3.86-11.05v-27q0-8.73,3.48-13.16t10.91-4.43q6.48,0,10.44,3.54t4,10.23v10.1H85.21v-8.66a7,7,0,0,0-.61-3.48,2.32,2.32,0,0,0-2.12-1,2.22,2.22,0,0,0-2.15,1.09,7.13,7.13,0,0,0-.58,3.21v29.39a6.37,6.37,0,0,0,.69,3.38,2.26,2.26,0,0,0,2,1.05c1.82,0,2.73-1.47,2.73-4.43V397.22H97v11Q97,423,82.21,423A13.53,13.53,0,0,1,72,419Zm28.4,3.47V363.87h11.32v58.58Zm16-58.58h16.17q6.27,0,9.41,3.48t3.2,10.3l.14,27.41q.06,8.67-3,13t-10.16,4.36H116.37Zm13.85,48.22q3.19,0,3.2-3.14V378.74a11,11,0,0,0-.3-3,2,2,0,0,0-1.13-1.33,7.12,7.12,0,0,0-2.52-.34h-1.3v38ZM150,422.45V363.87h23.46v11.32H161.93v11.39h11v11.05h-11v13.44H174.2v11.38Zm28.1,0V363.87h12.07l5.39,28v-28h11.32v58.58H195.41l-5.86-29.32v29.32Zm39,0V375.13h-7V363.87h25.64v11.26h-6.95v47.32Zm21.21,0V412.5h11.93v9.95Z"/>
      </g>
    </g>
  </g>
</svg>
