<svg xmlns="http://www.w3.org/2000/svg" viewBox="0 0 263.81 357.1">
  <g id="Layer_2" data-name="Layer 2">
    <g id="text12">
      <path id="_12-1" data-name="12-1" d="M4.19,26.87V.78H9.56L12,13.26V.78h5V26.87H11.9L9.29,13.81V26.87Zm16.54-1.69a8.12,8.12,0,0,1-1.63-5.42V7.34a7.08,7.08,0,0,1,1.63-5.08A6.33,6.33,0,0,1,25.53.54a6.3,6.3,0,0,1,4.8,1.72A7.08,7.08,0,0,1,32,7.34V19.76a8.14,8.14,0,0,1-1.64,5.44,6,6,0,0,1-4.8,1.91A6,6,0,0,1,20.73,25.18Zm5.74-3.48a4.52,4.52,0,0,0,.25-1.7V7.25a3.54,3.54,0,0,0-.23-1.38.9.9,0,0,0-.93-.53c-.87,0-1.3.66-1.3,2V20a4.14,4.14,0,0,0,.27,1.7,1,1,0,0,0,1,.58A.91.91,0,0,0,26.47,21.7ZM34.07.78h7.07a5.44,5.44,0,0,1,4.15,1.4c.86.93,1.29,2.45,1.29,4.55V7.89q0,3.74-2.68,4.46a3.28,3.28,0,0,1,2.31,2,10.35,10.35,0,0,1,.67,4.09,12.79,12.79,0,0,1-1.25,6.31c-.83,1.42-2.32,2.14-4.49,2.14H34.07Zm6.16,9.81a.92.92,0,0,0,.91-.5,3.34,3.34,0,0,0,.24-1.41V6.07c0-.85-.37-1.28-1.12-1.28H39.17v5.8Zm1.49,9.75V17.09a3.68,3.68,0,0,0-.35-1.79,1.28,1.28,0,0,0-1.23-.61h-1v7.56l.51,0C41,22.28,41.72,21.63,41.72,20.34ZM50,25.18a8.07,8.07,0,0,1-1.64-5.42V7.34A7,7,0,0,1,50,2.26,6.3,6.3,0,0,1,54.84.54a6.29,6.29,0,0,1,4.79,1.72,7,7,0,0,1,1.64,5.08V19.76a8.09,8.09,0,0,1-1.64,5.44,6,6,0,0,1-4.79,1.91A5.93,5.93,0,0,1,50,25.18Zm5.74-3.48A4.76,4.76,0,0,0,56,20V7.25a3.54,3.54,0,0,0-.23-1.38.89.89,0,0,0-.92-.53c-.88,0-1.31.66-1.31,2V20a4.14,4.14,0,0,0,.27,1.7,1,1,0,0,0,1,.58A.93.93,0,0,0,55.78,21.7ZM63.37.78h7.19a5.39,5.39,0,0,1,4.2,1.55,6.75,6.75,0,0,1,1.42,4.59l.06,12.2a10,10,0,0,1-1.33,5.8q-1.36,1.95-4.53,1.95h-7Zm6.16,21.47A1.25,1.25,0,0,0,71,20.85V7.4a4.79,4.79,0,0,0-.14-1.32.88.88,0,0,0-.5-.59,3.13,3.13,0,0,0-1.12-.15h-.58V22.25Zm12,4.62v-8.6L77.34.78H82.5L84,9.62,85.41.78h5.17L86.42,18.27v8.6Z"/>
      <path id="_12-2" data-name="12-2" d="M2.08,50.82V31.22H9.92V35H6.07v3.81H9.76v3.69H6.07V47h4.11v3.81Zm8.82,0L13,40.42,11.34,31.2h3.83l1,6.75.89-6.75h3.85l-1.69,9.22,2.1,10.4h-4l-1.23-7.67L14.9,50.82Zm11.43,0V31.22h3.79v19.6Zm6.16-1.14a6.31,6.31,0,0,1-1.19-4.27V43.5h3.86v2.44c0,1,.31,1.46.93,1.46a.82.82,0,0,0,.73-.31,1.93,1.93,0,0,0,.21-1,4.78,4.78,0,0,0-.23-1.59,3.35,3.35,0,0,0-.58-1c-.24-.29-.66-.72-1.27-1.32l-1.68-1.68a5.85,5.85,0,0,1-2-4.25,5.63,5.63,0,0,1,1.16-3.82A4.24,4.24,0,0,1,31.82,31a4.71,4.71,0,0,1,3.81,1.4,6.81,6.81,0,0,1,1.16,4.4h-4l0-1.35a.86.86,0,0,0-.22-.62.78.78,0,0,0-.6-.22.89.89,0,0,0-.69.25,1,1,0,0,0-.22.68,2.86,2.86,0,0,0,1.09,2l2.28,2.18a13,13,0,0,1,1.32,1.48,5.65,5.65,0,0,1,.85,1.64,7.14,7.14,0,0,1,.32,2.25,7.62,7.62,0,0,1-1.06,4.39A4,4,0,0,1,32.35,51,5,5,0,0,1,28.49,49.68ZM39.9,50.82V35H37.57V31.22h8.58V35H43.82V50.82ZM48,49.68a6.31,6.31,0,0,1-1.19-4.27V43.5h3.86v2.44c0,1,.31,1.46.93,1.46a.82.82,0,0,0,.73-.31,1.93,1.93,0,0,0,.21-1,4.78,4.78,0,0,0-.23-1.59,3.57,3.57,0,0,0-.58-1c-.24-.29-.66-.72-1.27-1.32l-1.69-1.68a5.87,5.87,0,0,1-2-4.25A5.68,5.68,0,0,1,48,32.35,4.26,4.26,0,0,1,51.37,31a4.71,4.71,0,0,1,3.81,1.4,6.87,6.87,0,0,1,1.16,4.4h-4l0-1.35a.9.9,0,0,0-.22-.62.79.79,0,0,0-.6-.22.87.87,0,0,0-.69.25,1,1,0,0,0-.23.68,2.87,2.87,0,0,0,1.1,2L54,39.75a13,13,0,0,1,1.32,1.48,5.9,5.9,0,0,1,.85,1.64,7.14,7.14,0,0,1,.32,2.25,7.54,7.54,0,0,1-1.07,4.39A4,4,0,0,1,51.89,51,4.94,4.94,0,0,1,48,49.68Z"/>
      <path id="_12-3" data-name="12-3" d="M61.15,50.81a6.62,6.62,0,0,1-1.33-4.41V36.3a5.75,5.75,0,0,1,1.33-4.13,5.15,5.15,0,0,1,3.9-1.4,5.15,5.15,0,0,1,3.9,1.4,5.75,5.75,0,0,1,1.34,4.13V46.4A6.59,6.59,0,0,1,69,50.82a5.64,5.64,0,0,1-7.8,0ZM65.82,48A3.9,3.9,0,0,0,66,46.6V36.23a3,3,0,0,0-.18-1.13.74.74,0,0,0-.75-.43c-.71,0-1.07.54-1.07,1.61V46.62A3.36,3.36,0,0,0,64.24,48a.82.82,0,0,0,.81.47A.77.77,0,0,0,65.82,48ZM72,52.18V31h4.37l2,10.15V31h4.1V52.18H78.26L76.14,41.56V52.18Z"/>
      <path id="_12-4" data-name="12-4" d="M94.34.47h11.21q5.08,0,7.25,3.87T115,15.68q0,7.45-1.93,11.25c-1.28,2.53-3.59,3.79-6.91,3.79h-3.46V50.54H94.34Zm8.84,21.21a3.16,3.16,0,0,0,2.24-.67,3.3,3.3,0,0,0,.94-1.92,21.75,21.75,0,0,0,.22-3.58A12.51,12.51,0,0,0,106,11a2.31,2.31,0,0,0-2.37-1.4h-.94V21.68Zm16.51,25.83q-2.53-3.49-2.54-10.38V.47h8.24V36.72a13.45,13.45,0,0,0,.4,3.73,1.72,1.72,0,0,0,3.35,0,13.4,13.4,0,0,0,.4-3.76V.47h8.24V37.13q0,6.88-2.54,10.38C133.55,49.84,131,51,127.47,51S121.39,49.84,119.69,47.51ZM141,.47h13a6.6,6.6,0,0,1,4.81,1.66,8.66,8.66,0,0,1,2.29,4.66,40.3,40.3,0,0,1,.6,7.67,18.87,18.87,0,0,1-.94,6.64,5.62,5.62,0,0,1-3.26,3.32,4,4,0,0,1,2.79,2.28,11.4,11.4,0,0,1,.86,4.89l-.09,19h-8.3V31c0-1.4-.23-2.29-.69-2.68a4,4,0,0,0-2.52-.58V50.54H141ZM151.71,19q1.77,0,1.77-4.54a23.9,23.9,0,0,0-.14-3,2.37,2.37,0,0,0-.55-1.37,1.57,1.57,0,0,0-1.13-.38h-2V19ZM164.59.47H175.8q5.08,0,7.25,3.87t2.18,11.34q0,7.45-1.93,11.25c-1.28,2.53-3.59,3.79-6.91,3.79h-3.46V50.54h-8.34Zm8.84,21.21a3.16,3.16,0,0,0,2.24-.67,3.3,3.3,0,0,0,.94-1.92,21.75,21.75,0,0,0,.22-3.58,12.51,12.51,0,0,0-.59-4.55,2.31,2.31,0,0,0-2.37-1.4h-.94V21.68ZM190.21,47.3q-2.67-3.69-2.66-10.4V13.06q0-6.48,2.66-9.77T198,0q5.13,0,7.8,3.29t2.67,9.77V36.9q0,6.76-2.67,10.43a10.1,10.1,0,0,1-15.6,0Zm9.33-6.67a10.42,10.42,0,0,0,.4-3.27V12.88a8.07,8.07,0,0,0-.37-2.65,1.46,1.46,0,0,0-1.51-1c-1.41,0-2.12,1.26-2.12,3.79V37.42a9.39,9.39,0,0,0,.44,3.27,1.62,1.62,0,0,0,1.63,1.1A1.5,1.5,0,0,0,199.54,40.63Zm14.07,7Q211,44.25,211,36.72V31.83h8.35v6.23c0,2.49.67,3.73,2,3.73A1.65,1.65,0,0,0,223,41a5.7,5.7,0,0,0,.45-2.65,14,14,0,0,0-.5-4.06,9.53,9.53,0,0,0-1.26-2.68c-.51-.72-1.42-1.83-2.74-3.35L215.29,24A16.19,16.19,0,0,1,211,13.11q0-6.4,2.5-9.76A8.52,8.52,0,0,1,220.82,0c3.82,0,6.57,1.2,8.24,3.58s2.52,6.14,2.52,11.23h-8.64l-.05-3.44a2.42,2.42,0,0,0-.47-1.58,1.59,1.59,0,0,0-1.3-.58,1.76,1.76,0,0,0-1.49.64,2.86,2.86,0,0,0-.49,1.75,7.74,7.74,0,0,0,2.37,5.07l4.94,5.6A32.06,32.06,0,0,1,229.31,26a15.64,15.64,0,0,1,1.83,4.19,21.16,21.16,0,0,1,.69,5.75q0,7.39-2.3,11.22T222,51C218.1,51,215.32,49.88,213.61,47.62Zm21,2.92V.47h17v9.67h-8.35v9.74h8v9.44h-8V40.8h8.89v9.74Zm19.8,0V42h8.64v8.51Z"/>
      <path id="_12-5" data-name="12-5" d="M2.84,79.31V54.8H7.71L9.88,66.53V54.8h4.56V79.31H9.82L7.46,67V79.31Zm15-1.58a7.85,7.85,0,0,1-1.49-5.1V61a6.84,6.84,0,0,1,1.49-4.78,5.63,5.63,0,0,1,4.34-1.61,5.64,5.64,0,0,1,4.35,1.61A6.84,6.84,0,0,1,28,61V72.63a7.82,7.82,0,0,1-1.49,5.11,5.31,5.31,0,0,1-4.35,1.8A5.31,5.31,0,0,1,17.83,77.73ZM23,74.46a4.8,4.8,0,0,0,.22-1.6v-12a3.36,3.36,0,0,0-.21-1.3.81.81,0,0,0-.84-.5c-.79,0-1.18.62-1.18,1.85v12a3.93,3.93,0,0,0,.25,1.6.89.89,0,0,0,.9.54A.84.84,0,0,0,23,74.46ZM29.9,54.8h6.41a4.82,4.82,0,0,1,3.76,1.31,6.37,6.37,0,0,1,1.17,4.28v1.08q0,3.51-2.42,4.2a3,3,0,0,1,2.09,1.85,10.31,10.31,0,0,1,.6,3.86,12.28,12.28,0,0,1-1.13,5.92c-.75,1.34-2.1,2-4.07,2H29.9ZM35.49,64a.81.81,0,0,0,.82-.47,3.11,3.11,0,0,0,.22-1.32V59.76q0-1.2-1-1.2h-1V64Zm1.35,9.16v-3a3.55,3.55,0,0,0-.32-1.68,1.16,1.16,0,0,0-1.12-.57h-.88V75L35,75A1.63,1.63,0,0,0,36.84,73.17Zm7.53,4.56a7.85,7.85,0,0,1-1.48-5.1V61a6.84,6.84,0,0,1,1.48-4.78,5.64,5.64,0,0,1,4.35-1.61,5.62,5.62,0,0,1,4.34,1.61A6.84,6.84,0,0,1,54.55,61V72.63a7.82,7.82,0,0,1-1.49,5.11,5.29,5.29,0,0,1-4.34,1.8A5.32,5.32,0,0,1,44.37,77.73Zm5.2-3.27a4.55,4.55,0,0,0,.22-1.6v-12a3.58,3.58,0,0,0-.2-1.3.81.81,0,0,0-.84-.5c-.79,0-1.19.62-1.19,1.85v12a4.11,4.11,0,0,0,.25,1.6.92.92,0,0,0,.91.54A.84.84,0,0,0,49.57,74.46ZM56.45,54.8H63a4.75,4.75,0,0,1,3.79,1.45,6.48,6.48,0,0,1,1.3,4.31l0,11.47a9.55,9.55,0,0,1-1.21,5.45,4.58,4.58,0,0,1-4.1,1.83H56.45ZM62,75a1.15,1.15,0,0,0,1.29-1.31V61a4.74,4.74,0,0,0-.12-1.24.81.81,0,0,0-.45-.56,2.85,2.85,0,0,0-1-.14h-.52V75Zm10.84,4.34V71.23L69.1,54.8h4.68l1.32,8.3,1.32-8.3H81.1L77.33,71.23v8.08Z"/>
      <path id="_12-6" data-name="12-6" d="M2.08,83.05H8.49a4.81,4.81,0,0,1,3.75,1.31,6.37,6.37,0,0,1,1.17,4.28v1.09c0,2.34-.81,3.73-2.42,4.19a3,3,0,0,1,2.09,1.85,10.33,10.33,0,0,1,.61,3.86,12.4,12.4,0,0,1-1.13,5.92q-1.12,2-4.07,2H2.08Zm5.58,9.22a.83.83,0,0,0,.83-.48,3.28,3.28,0,0,0,.22-1.32V88q0-1.2-1-1.2h-1v5.46ZM9,101.42v-3a3.43,3.43,0,0,0-.32-1.68,1.16,1.16,0,0,0-1.11-.57H6.7v7.1l.47,0A1.62,1.62,0,0,0,9,101.42Zm6.24,6.14V83.05h9.47v4.74H20.07v4.76h4.45v4.62H20.07v5.62H25v4.77Zm11.34,0V83.05h4.73v20.34h4.87v4.17ZM38.8,106a7.85,7.85,0,0,1-1.48-5.1V89.21a6.84,6.84,0,0,1,1.48-4.78,5.64,5.64,0,0,1,4.35-1.61,5.63,5.63,0,0,1,4.34,1.61A6.84,6.84,0,0,1,49,89.21v11.67A7.82,7.82,0,0,1,47.49,106a5.31,5.31,0,0,1-4.34,1.8A5.32,5.32,0,0,1,38.8,106Zm5.2-3.27a4.51,4.51,0,0,0,.22-1.6v-12a3.36,3.36,0,0,0-.21-1.3.81.81,0,0,0-.84-.5c-.78,0-1.18.62-1.18,1.85v12a3.93,3.93,0,0,0,.25,1.6.91.91,0,0,0,.91.54A.84.84,0,0,0,44,102.71Zm6.88,4.85V83.05h4.87l2.17,11.73V83.05h4.56v24.51H57.86L55.5,95.29v12.27Zm14.75-1.64a10.32,10.32,0,0,1-1.25-5.66V89.7a7.84,7.84,0,0,1,1.46-5.14,5.35,5.35,0,0,1,4.35-1.74,6,6,0,0,1,3.63,1,5,5,0,0,1,1.79,2.83,18.9,18.9,0,0,1,.49,4.76H71.48v-2.2a3.35,3.35,0,0,0-.23-1.37.86.86,0,0,0-.84-.48c-.9,0-1.35.61-1.35,1.82V101a4.09,4.09,0,0,0,.27,1.69,1,1,0,0,0,1,.57,1,1,0,0,0,1-.57,4.09,4.09,0,0,0,.27-1.69v-3.5H70.27V93.29h5.78v14.27h-1.9l-.8-2a4.18,4.18,0,0,1-3.91,2.28A4.28,4.28,0,0,1,65.63,105.92Zm13.25.21c-1-1.1-1.43-2.88-1.43-5.33V98.4H82.1v3c0,1.22.37,1.83,1.13,1.83a1,1,0,0,0,.88-.39,2.55,2.55,0,0,0,.24-1.29,6.25,6.25,0,0,0-.27-2,4.63,4.63,0,0,0-.7-1.31c-.29-.35-.8-.9-1.53-1.64l-2-2.11a7.44,7.44,0,0,1-2.36-5.31,7.21,7.21,0,0,1,1.39-4.78,5,5,0,0,1,4-1.64c2.13,0,3.66.59,4.6,1.75s1.4,3,1.4,5.5H84.08l0-1.69a1.12,1.12,0,0,0-.26-.77,1,1,0,0,0-.73-.28,1.05,1.05,0,0,0-.83.31,1.28,1.28,0,0,0-.27.86A3.6,3.6,0,0,0,83.28,91L86,93.72a17.57,17.57,0,0,1,1.6,1.84,7.26,7.26,0,0,1,1,2,9.06,9.06,0,0,1,.39,2.82,9.77,9.77,0,0,1-1.28,5.49,4.73,4.73,0,0,1-4.22,1.87Q80.3,107.79,78.88,106.13Z"/>
      <path id="_12-7" data-name="12-7" d="M93.08,107.88,96.31,55h11.33l3.2,52.88h-6.35L104,99.32h-4l-.39,8.56Zm7.4-17h3L102,64h-.31Zm12.38,17V55h6.89l3.08,25.3V55h6.46v52.88h-6.54L119.4,81.41v26.47Zm23.44,0V90.46L131,55h6.62l1.87,17.91L141.32,55H148l-5.34,35.46v17.42Zm15.93,0L148.65,55h6.54l1.87,33.36L158.93,55h6.23L167,88.36,168.74,55h6.62l-3.66,52.88h-8L162,82.39l-1.59,25.49Zm25.12,0V55H184V73.9h3.16V55h6.66v52.88h-6.66v-24H184v24Zm19.43,0V55h13.39V65.22h-6.58V75.5h6.31v10h-6.31V97.6h7v10.28Zm16-52.88H223.1a4.5,4.5,0,0,1,3.8,1.75,10.61,10.61,0,0,1,1.81,4.93,57.43,57.43,0,0,1,.47,8.09,26.19,26.19,0,0,1-.74,7,5.53,5.53,0,0,1-2.57,3.51,3.57,3.57,0,0,1,2.2,2.4,16,16,0,0,1,.68,5.17l-.08,20h-6.54V87.19a4.71,4.71,0,0,0-.55-2.83,2.56,2.56,0,0,0-2-.61v24.13h-6.78Zm8.41,19.57c.94,0,1.4-1.6,1.4-4.8,0-1.39,0-2.44-.11-3.14a3,3,0,0,0-.43-1.44,1.07,1.07,0,0,0-.9-.4h-1.55v9.78Zm10.16,33.31V55h13.4V65.22h-6.58V75.5h6.31v10h-6.31V97.6h7v10.28Zm15.62,0v-9h6.81v9Z"/>
      <path id="_12-8" data-name="12-8" d="M1.32,159.82V114.47H19.48v8.77H10.56v8.81h8.55v8.55H10.56V151h9.5v8.82Zm25.92,0-5.6-45.4H30.3l3.32,30.88,3-30.88h8.66l-5.6,45.4Zm20.58,0V114.47H66v8.77H57.06v8.81h8.55v8.55H57.06V151h9.5v8.82Zm21.75-45.35H83.51A7.87,7.87,0,0,1,88.65,116a7.48,7.48,0,0,1,2.46,4.22,31.58,31.58,0,0,1,.63,6.94,14.61,14.61,0,0,1-1,6,5.63,5.63,0,0,1-3.49,3,4.2,4.2,0,0,1,3,2.06,9.1,9.1,0,0,1,.92,4.43l-.11,17.16H82.19V142.08c0-1.27-.25-2.07-.74-2.43a5,5,0,0,0-2.7-.52v20.69H69.57ZM81,131.26q1.91,0,1.9-4.12a16.3,16.3,0,0,0-.16-2.69,2,2,0,0,0-.58-1.24,1.86,1.86,0,0,0-1.21-.34H78.81v8.39Zm19.27,28.56V144.88L93,114.47h9l2.53,15.37,2.54-15.37h9l-7.23,30.41v14.94Zm18.05-45.35h12.3q5,0,7.2,2.43t2.25,7.92v2q0,6.49-4.65,7.76a5.69,5.69,0,0,1,4,3.43,18.1,18.1,0,0,1,1.17,7.12q0,7.23-2.17,11t-7.81,3.72h-12.3ZM129,131.52a1.59,1.59,0,0,0,1.58-.87,5.74,5.74,0,0,0,.42-2.45v-4.54q0-2.22-1.95-2.22h-1.9v10.08Zm2.58,16.95v-5.65a6.41,6.41,0,0,0-.6-3.11,2.26,2.26,0,0,0-2.14-1.06h-1.69v13.14l.9.06Q131.58,151.85,131.59,148.47Zm14.47,8.42c-1.91-2.24-2.85-5.38-2.85-9.42V125.88c0-3.91.94-6.86,2.85-8.85s4.67-3,8.34-3,6.43,1,8.34,3,2.85,4.94,2.85,8.85v21.59q0,6.12-2.85,9.44t-8.34,3.33C150.73,160.24,148,159.12,146.06,156.89Zm10-6a8.24,8.24,0,0,0,.42-3V125.72a6.2,6.2,0,0,0-.39-2.4,1.57,1.57,0,0,0-1.61-.93c-1.52,0-2.27,1.15-2.27,3.43v22.12a7.32,7.32,0,0,0,.47,3,1.76,1.76,0,0,0,1.75,1A1.6,1.6,0,0,0,156,150.84Zm13.2-36.37h12.51q4.84,0,7.28,2.7t2.48,8l.11,21.22q0,6.7-2.32,10.08t-7.87,3.38H169.23Zm10.71,37.32a2.16,2.16,0,0,0,2.48-2.42V126a8.63,8.63,0,0,0-.23-2.29,1.52,1.52,0,0,0-.87-1,5.35,5.35,0,0,0-2-.27h-1v29.4Zm20.8,8V144.88l-7.23-30.41h9L205,129.84l2.53-15.37h9l-7.23,30.41v14.94Zm18.9-32,1.69-6.13h-3.28V114h9.66v7.44l-2.63,6.34Zm13.25,29.4q-2.74-3.06-2.75-9.87v-4.44h8.92v5.65c0,2.25.72,3.38,2.17,3.38a1.9,1.9,0,0,0,1.69-.71,4.61,4.61,0,0,0,.47-2.4,10.92,10.92,0,0,0-.53-3.67,8,8,0,0,0-1.34-2.43c-.55-.65-1.53-1.66-2.93-3l-3.91-3.9q-4.55-4.44-4.54-9.82,0-5.81,2.67-8.84c1.77-2,4.37-3,7.78-3,4.09,0,7,1.09,8.82,3.25s2.69,5.55,2.69,10.16h-9.24l-.05-3.11a2,2,0,0,0-.5-1.43,1.85,1.85,0,0,0-1.4-.53,2.05,2.05,0,0,0-1.58.58,2.25,2.25,0,0,0-.53,1.59q0,2.22,2.53,4.59l5.28,5.07a30,30,0,0,1,3.06,3.4,13.48,13.48,0,0,1,2,3.8,16.39,16.39,0,0,1,.73,5.2q0,6.7-2.45,10.16t-8.1,3.46Q235.63,160.24,232.89,157.18Z"/>
      <path id="_12-9" data-name="12-9" d="M2.63,213.42Q.14,209.85.15,202.6V182.41q0-6.48,2.89-9.81c1.92-2.22,4.8-3.33,8.62-3.33q4.64,0,7.19,1.85a9.54,9.54,0,0,1,3.55,5.4,35.21,35.21,0,0,1,1,9.11H14.22v-4.2a6.15,6.15,0,0,0-.46-2.62,1.71,1.71,0,0,0-1.67-.92q-2.67,0-2.67,3.49v22.69a7.51,7.51,0,0,0,.54,3.22,2,2,0,0,0,1.91,1.09,2,2,0,0,0,1.91-1.09,7.34,7.34,0,0,0,.55-3.22v-6.71H11.82v-8.07H23.27v27.27H19.51l-1.58-3.93A8.34,8.34,0,0,1,10.18,217Q5.11,217,2.63,213.42Zm26.92.11q-3-3.47-2.95-9.73V181.49q0-6.06,2.95-9.14t8.61-3.08c3.78,0,6.66,1,8.62,3.08s2.95,5.1,2.95,9.14V203.8q0,6.31-2.95,9.76T38.16,217Q32.49,217,29.55,213.53Zm10.3-6.24a8.33,8.33,0,0,0,.44-3.06V181.32a6.45,6.45,0,0,0-.41-2.48,1.63,1.63,0,0,0-1.66-1c-1.57,0-2.35,1.18-2.35,3.54v22.86a7.52,7.52,0,0,0,.49,3.05,1.82,1.82,0,0,0,1.8,1A1.66,1.66,0,0,0,39.85,207.29Zm13.2,9.27V169.71h9.06v46.85Zm12.82,0V169.71h9.66l4.31,22.41V169.71h9v46.85H79.73L75,193.11v23.45Zm29.26-3.14q-2.47-3.57-2.48-10.82V182.41q0-6.48,2.89-9.81t8.62-3.33a12.17,12.17,0,0,1,7.2,1.85,9.59,9.59,0,0,1,3.55,5.4,35.21,35.21,0,0,1,1,9.11h-9.16v-4.2a6,6,0,0,0-.47-2.62,1.7,1.7,0,0,0-1.66-.92q-2.67,0-2.67,3.49v22.69a7.51,7.51,0,0,0,.54,3.22,2.22,2.22,0,0,0,3.82,0,7.51,7.51,0,0,0,.54-3.22v-6.71h-2.5v-8.07h11.45v27.27H112l-1.58-3.93a8.35,8.35,0,0,1-7.75,4.37Q97.62,217,95.13,213.42Z"/>
      <path id="_12-10" data-name="12-10" d="M136.29,216.56V178.71h-5.56v-9h20.5v9h-5.56v37.85Zm20.12-3q-2.94-3.47-2.94-9.73V181.49q0-6.06,2.94-9.14t8.62-3.08q5.68,0,8.62,3.08t2.95,9.14V203.8q0,6.31-2.95,9.76T165,217Q159.36,217,156.41,213.53Zm10.31-6.24a8.55,8.55,0,0,0,.44-3.06V181.32a6.45,6.45,0,0,0-.41-2.48,1.63,1.63,0,0,0-1.66-1c-1.57,0-2.35,1.18-2.35,3.54v22.86a7.52,7.52,0,0,0,.49,3.05,1.82,1.82,0,0,0,1.8,1A1.66,1.66,0,0,0,166.72,207.29Z"/>
      <path id="_12-11" data-name="12-11" d="M193.12,169.71h12.93c3.35,0,5.86.92,7.53,2.78s2.53,4.6,2.56,8.23l.11,21.93q.06,6.93-2.4,10.42t-8.13,3.49h-12.6Zm11.08,38.56a2.24,2.24,0,0,0,2.56-2.51V181.6a8.33,8.33,0,0,0-.25-2.38,1.57,1.57,0,0,0-.9-1.06,5.59,5.59,0,0,0-2-.27h-1v30.38Zm15.38,8.29V169.71h9v46.85Zm12.81,0V169.71h18.77v9h-9.22v9.11h8.84v8.83h-8.84v10.75h9.82v9.11Zm21.88,0v-8h9.54v8Z"/>
      <path id="_12-12" data-name="12-12" d="M2.93,256.93A7.73,7.73,0,0,1,0,250.53V234.89q0-5.05,2.65-7.62c1.76-1.72,4.53-2.57,8.3-2.57a13.81,13.81,0,0,1,7.94,2.05,6.74,6.74,0,0,1,3,5.93v5.84H13v-5a3.23,3.23,0,0,0-.47-2,2,2,0,0,0-1.61-.55,1.86,1.86,0,0,0-1.63.63,3.2,3.2,0,0,0-.44,1.86v17a3,3,0,0,0,.52,2A1.9,1.9,0,0,0,11,253c1.39,0,2.08-.85,2.08-2.57v-6.12h9v6.4q0,8.54-11.26,8.54A12.18,12.18,0,0,1,2.93,256.93Zm24.48-.17a9,9,0,0,1-2.81-7.06V233.55a8,8,0,0,1,2.81-6.62q2.81-2.24,8.2-2.23t8.2,2.23c1.87,1.49,2.8,3.69,2.8,6.62V249.7a9,9,0,0,1-2.8,7.08c-1.87,1.65-4.6,2.49-8.2,2.49S29.28,258.43,27.41,256.76Zm9.81-4.53a4.89,4.89,0,0,0,.41-2.21V233.43a3.64,3.64,0,0,0-.39-1.8,1.65,1.65,0,0,0-1.58-.69c-1.49,0-2.23.85-2.23,2.57v16.55a4.15,4.15,0,0,0,.47,2.21,1.85,1.85,0,0,0,1.71.75A1.65,1.65,0,0,0,37.22,252.23Zm13,6.72V225H63.79l3.74,20.7L71.27,225H85V259H76.82V234.49L71.68,259h-8l-5.45-24.46V259Zm38.72,0V225h17.85v6.56H98v6.6h8.41v6.4H98v7.78h9.34V259Z"/>
      <path id="_12-13" data-name="12-13" d="M125.93,259,121.15,225h8.72l2.49,21.41,2.5-21.41h8.3l2.39,21.41L147.94,225h8.82L151.88,259H141.19L139,242.59,136.83,259Zm31.19,0L161.43,225h15.11L180.79,259h-8.46l-.62-5.49h-5.4l-.52,5.49ZM167,248h4l-2-17.26h-.41ZM187.33,259V231.53H182V225h19.52v6.52h-5.3V259Zm19.29-2a7.71,7.71,0,0,1-2.94-6.4V234.89c0-3.37.89-5.91,2.65-7.62s4.53-2.57,8.31-2.57a13.86,13.86,0,0,1,7.94,2.05,6.74,6.74,0,0,1,3,5.93v5.84h-8.88v-5a3.24,3.24,0,0,0-.46-2,2,2,0,0,0-1.61-.55,1.87,1.87,0,0,0-1.64.63,3.27,3.27,0,0,0-.44,1.86v17a3,3,0,0,0,.52,2,1.91,1.91,0,0,0,1.56.61c1.38,0,2.07-.85,2.07-2.57v-6.12h9v6.4q0,8.54-11.26,8.54A12.15,12.15,0,0,1,206.62,256.93Zm22,2V225h8.88v12.13h4.2V225h8.88V259h-8.88V243.54h-4.2V259Z"/>
      <path id="_12-14" data-name="12-14" d="M12.59,353.74V287H2.78V271.15H38.94V287H29.13v66.73Zm38.56,0L41,271.05H56.73l6.05,56.25,5.39-56.25H83.94L73.75,353.74ZM91,312.88q8.66,0,13.22-1.3a10.69,10.69,0,0,0,6.78-5.53q2.21-4.23,2.21-13.08a14.39,14.39,0,0,0-.87-5.57,3.38,3.38,0,0,0-3.46-2,3.45,3.45,0,0,0-3.56,2.3,18.88,18.88,0,0,0-.86,6.35V301H87.21V289q0-9.22,5.86-13.94t15.77-4.71q12,0,17.07,6.39T131,296.15q0,12.69-6.2,20.48t-18.13,7.79v8H91Zm-.48,40.86v-14h16.73v14Z"/>
      <path id="tv" d="M241.45,342.89l1.49,14.21H239l-4.49-14.21ZM153.58,320l60.33-20.85v-6L153.58,314Zm58.5,13.44a1.72,1.72,0,0,0,1.83-1.58V313.62l-57.39,19.83Zm-58.5-44.23v21.36l60.33-20.85v-.51a1.72,1.72,0,0,0-1.83-1.58H155.41a1.72,1.72,0,0,0-1.83,1.58Zm-1.7,67.88h3.91l4.49-14.21h-6.9Zm73-36.33H248.6v13c0,3.27-3.07,5.92-6.85,5.93H224.84ZM243.12,335a1.72,1.72,0,0,0-1.83-1.58h-9.14a1.6,1.6,0,1,0,0,3.16h9.14A1.72,1.72,0,0,0,243.12,335Zm-12.8-9.48a1.72,1.72,0,0,0,1.83,1.58h9.14a1.6,1.6,0,1,0,0-3.16h-9.14A1.72,1.72,0,0,0,230.32,325.51Zm-1.83,4.74a1.72,1.72,0,0,0,1.83,1.58h12.8a1.6,1.6,0,1,0,0-3.16h-12.8A1.72,1.72,0,0,0,228.49,330.25Zm-74.91.81,60.33-20.85v-7.65l-60.33,20.85Zm81-20.21a5,5,0,0,0,6.17-1.67,3.5,3.5,0,0,0,.36-2.87Zm2.12-16.93a4.66,4.66,0,0,0,4.19-2.37h-8.38A4.65,4.65,0,0,0,236.72,293.92Zm.49,9.5-.5,0c-2.52,0-4.57,1.77-4.56,4a3.37,3.37,0,0,0,.16,1l6.53-4.54a5.31,5.31,0,0,0-1.63-.43Zm11.39-17.79v32H224.84V279.71h16.91C245.53,279.71,248.6,282.36,248.6,285.63ZM228.49,290c0,3.93,3.69,7.11,8.23,7.11S245,293.9,245,290s-3.69-7.1-8.23-7.1S228.5,286.05,228.49,290Zm16.41,18.14c.49-3.9-2.78-7.41-7.29-7.83s-8.58,2.4-9.07,6.3,2.77,7.41,7.29,7.83c.3,0,.6,0,.9,0,4.2,0,7.72-2.74,8.17-6.35ZM236.72,286a4.66,4.66,0,0,0-4.19,2.36h8.38A4.67,4.67,0,0,0,236.72,286Zm-51.16-6.32h35.62v60h-68.1c-3.79,0-6.85-2.66-6.86-5.93V285.63c0-3.27,3.07-5.92,6.86-5.92H180l-13-9.87a1.44,1.44,0,0,1-.18-2.23,2,2,0,0,1,2.58-.15l13.43,10.15,13.42-10.15h0a2,2,0,0,1,2.58.15,1.44,1.44,0,0,1-.17,2.23Zm32,9.51c0-2.61-2.46-4.73-5.49-4.74H155.41c-3,0-5.49,2.13-5.49,4.74v42.65c0,2.61,2.46,4.73,5.49,4.74h56.67c3,0,5.48-2.13,5.49-4.74V289.22Z"/>
    </g>
  </g>
</svg>
