<svg xmlns="http://www.w3.org/2000/svg" viewBox="0 0 204.56 432.13">
  <g id="Layer_2" data-name="Layer 2">
    <g id="text">
      <g id="_12-line" data-name="12-line">
        <path id="_12-1" data-name="12-1" d="M7.44,57.07V.53H19.1l5.2,27.05V.53H35.22V57.07H24.16L18.5,28.77v28.3Zm35.88-3.65q-3.55-4.19-3.56-11.75V14.75q0-7.32,3.56-11T53.72,0q6.84,0,10.4,3.72t3.55,11V41.67q0,7.63-3.55,11.78T53.72,57.6Q46.86,57.6,43.32,53.42Zm12.44-7.54a10.3,10.3,0,0,0,.53-3.69V14.55a7.69,7.69,0,0,0-.5-3,2,2,0,0,0-2-1.15C51.9,10.4,51,11.83,51,14.68V42.26a8.88,8.88,0,0,0,.6,3.69,2.19,2.19,0,0,0,2.17,1.25A2,2,0,0,0,55.76,45.88ZM72.22.53H87.55q6.2,0,9,3t2.8,9.88v2.5q0,8.1-5.8,9.68a7.14,7.14,0,0,1,5,4.28A22.83,22.83,0,0,1,100,38.77q0,9-2.7,13.66t-9.74,4.64H72.22ZM85.58,21.79a2,2,0,0,0,2-1.09,7.16,7.16,0,0,0,.53-3.06V12c0-1.84-.81-2.76-2.44-2.76H83.27V21.79ZM88.8,42.92v-7A8,8,0,0,0,88.05,32a2.83,2.83,0,0,0-2.67-1.32H83.27v16.4l1.12.06Q88.8,47.13,88.8,42.92Zm18,10.5q-3.56-4.19-3.56-11.75V14.75q0-7.32,3.56-11T117.24,0q6.84,0,10.4,3.72t3.55,11V41.67q0,7.63-3.55,11.78t-10.4,4.15Q110.4,57.6,106.84,53.42Zm12.44-7.54a10.3,10.3,0,0,0,.53-3.69V14.55a7.69,7.69,0,0,0-.5-3,2,2,0,0,0-2-1.15q-2.84,0-2.84,4.28V42.26a8.88,8.88,0,0,0,.6,3.69,2.19,2.19,0,0,0,2.17,1.25A2,2,0,0,0,119.28,45.88ZM135.74.53h15.6q6,0,9.08,3.35t3.09,9.94l.14,26.47q.06,8.35-2.9,12.57c-2,2.81-5.24,4.21-9.81,4.21h-15.2ZM149.1,47.07q3.09,0,3.09-3V14.88A10.71,10.71,0,0,0,151.9,12a1.92,1.92,0,0,0-1.09-1.28,6.74,6.74,0,0,0-2.44-.33h-1.25V47.07Zm25.93,10V38.44L166,.53h11.19l3.15,19.15L183.52.53h11.2l-9,37.91V57.07Z"/>
        <path id="_12-2" data-name="12-2" d="M6.89,108.36V64.44H24.48v8.48H15.83v8.54h8.29v8.29H15.83V99.82H25v8.54Zm19.78,0L31.38,85,27.65,64.38h8.59l2.3,15.14,2-15.14h8.64L45.39,85l4.7,23.32H41.2L38.44,91.18l-2.82,17.18Zm25.62,0V64.44h8.49v43.92ZM66.1,105.8q-2.65-3-2.66-9.56V92h8.64v5.47q0,3.27,2.1,3.27a1.81,1.81,0,0,0,1.63-.69,4.36,4.36,0,0,0,.46-2.33,10.54,10.54,0,0,0-.51-3.55,7.64,7.64,0,0,0-1.3-2.35c-.53-.63-1.48-1.61-2.84-2.94L67.84,85a13,13,0,0,1-4.4-9.51q0-5.62,2.58-8.56C67.74,65,70.26,64,73.56,64c4,0,6.8,1,8.54,3.14s2.61,5.38,2.61,9.84H75.76l-.05-3a1.93,1.93,0,0,0-.48-1.38,1.8,1.8,0,0,0-1.36-.51,1.94,1.94,0,0,0-1.53.56,2.18,2.18,0,0,0-.51,1.53c0,1.43.81,2.92,2.45,4.45l5.11,4.91a29.2,29.2,0,0,1,3,3.3,13.15,13.15,0,0,1,1.89,3.68,15.7,15.7,0,0,1,.72,5q0,6.49-2.38,9.84c-1.59,2.23-4.2,3.35-7.85,3.35Q68.76,108.77,66.1,105.8Zm25.57,2.56V72.87H86.45V64.44h19.23v8.43h-5.22v35.49Zm18.25-2.56q-2.65-3-2.66-9.56V92h8.64v5.47q0,3.27,2.1,3.27a1.84,1.84,0,0,0,1.64-.69,4.46,4.46,0,0,0,.46-2.33,10.52,10.52,0,0,0-.52-3.55,7.64,7.64,0,0,0-1.3-2.35c-.53-.63-1.47-1.61-2.84-2.94L111.66,85q-4.39-4.29-4.4-9.51,0-5.62,2.58-8.56T117.39,64c4,0,6.8,1,8.54,3.14s2.6,5.38,2.6,9.84h-9l0-3a1.93,1.93,0,0,0-.48-1.38,1.8,1.8,0,0,0-1.36-.51,1.94,1.94,0,0,0-1.53.56,2.18,2.18,0,0,0-.51,1.53c0,1.43.81,2.92,2.45,4.45l5.11,4.91a28.26,28.26,0,0,1,3,3.3,12.89,12.89,0,0,1,1.89,3.68,15.7,15.7,0,0,1,.72,5q0,6.49-2.38,9.84t-7.85,3.35Q112.57,108.77,109.92,105.8Z"/>
        <path id="_12-3" data-name="12-3" d="M146.07,105.52c-1.84-2.16-2.76-5.21-2.76-9.13V75.48c0-3.78.92-6.64,2.76-8.56S150.6,64,154.15,64s6.24,1,8.08,2.89S165,71.7,165,75.48V96.39q0,5.94-2.76,9.16c-1.84,2.14-4.54,3.22-8.08,3.22S147.91,107.69,146.07,105.52Zm9.67-5.85a8.08,8.08,0,0,0,.4-2.87V75.33a5.91,5.91,0,0,0-.38-2.33,1.51,1.51,0,0,0-1.56-.89c-1.46,0-2.2,1.1-2.2,3.32V96.85a7.07,7.07,0,0,0,.46,2.87,1.7,1.7,0,0,0,1.69,1A1.57,1.57,0,0,0,155.74,99.67Zm12.78,8.69V64.44h9l4,21v-21h8.49v43.92h-8.59l-4.4-22v22Z"/>
        <path id="_12-4" data-name="12-4" d="M7.08,113.58H19.82q5.79,0,8.26,3.73t2.47,10.92q0,7.19-2.19,10.84t-7.86,3.65H16.56v19.09H7.08Zm10,20.43a4.09,4.09,0,0,0,2.55-.64,3.1,3.1,0,0,0,1.07-1.85,18,18,0,0,0,.25-3.46,10.45,10.45,0,0,0-.67-4.38,2.73,2.73,0,0,0-2.7-1.34H16.56V134Zm18.78,24.88q-2.89-3.37-2.89-10V113.58h9.37V148.5a11.29,11.29,0,0,0,.45,3.59,2.06,2.06,0,0,0,3.82,0,11.29,11.29,0,0,0,.45-3.62V113.58h9.38v35.31q0,6.63-2.9,10t-8.84,3.37Q38.8,162.26,35.91,158.89Zm24.28-45.31H75a8.35,8.35,0,0,1,5.47,1.6,7.93,7.93,0,0,1,2.61,4.49,33.4,33.4,0,0,1,.67,7.38,15.55,15.55,0,0,1-1.06,6.4,6,6,0,0,1-3.71,3.2,4.45,4.45,0,0,1,3.17,2.19,9.57,9.57,0,0,1,1,4.72L83,161.81H73.61V142.94q0-2-.78-2.58A5.29,5.29,0,0,0,70,139.8v22H60.19Zm12.13,17.85q2,0,2-4.38a17,17,0,0,0-.17-2.86,2.15,2.15,0,0,0-.61-1.32,2.05,2.05,0,0,0-1.3-.37H70v8.93ZM87,113.58H99.72c3.85,0,6.61,1.24,8.25,3.73s2.47,6.13,2.47,10.92-.73,8.41-2.19,10.84-4.08,3.65-7.86,3.65H96.46v19.09H87ZM97,134a4.1,4.1,0,0,0,2.56-.64,3.1,3.1,0,0,0,1.07-1.85,18.8,18.8,0,0,0,.25-3.46,10.61,10.61,0,0,0-.67-4.38,2.73,2.73,0,0,0-2.7-1.34H96.46V134Zm19.09,24.68c-2-2.37-3-5.72-3-10v-23q0-6.24,3-9.41c2-2.11,5-3.17,8.88-3.17s6.85,1.06,8.87,3.17,3,5.25,3,9.41v23q0,6.51-3,10.05T125,162.26C121.09,162.26,118.14,161.07,116.11,158.69Zm10.62-6.43a8.93,8.93,0,0,0,.45-3.14V125.54a6.59,6.59,0,0,0-.43-2.56,1.67,1.67,0,0,0-1.71-1q-2.42,0-2.41,3.65v23.52a7.76,7.76,0,0,0,.5,3.15,1.88,1.88,0,0,0,1.86,1.07A1.71,1.71,0,0,0,126.73,152.26Zm16,6.74q-2.92-3.25-2.92-10.5v-4.71h9.49v6c0,2.4.76,3.6,2.3,3.6a2,2,0,0,0,1.8-.76,4.91,4.91,0,0,0,.5-2.56,11.67,11.67,0,0,0-.56-3.9,8.37,8.37,0,0,0-1.43-2.58q-.87-1-3.12-3.23l-4.15-4.15q-4.83-4.72-4.83-10.45,0-6.18,2.83-9.4c1.89-2.16,4.65-3.23,8.29-3.23q6.51,0,9.37,3.45t2.87,10.81h-9.83l-.06-3.31a2.1,2.1,0,0,0-.53-1.52,2,2,0,0,0-1.49-.56,2.15,2.15,0,0,0-1.68.62,2.37,2.37,0,0,0-.56,1.68q0,2.36,2.69,4.89l5.62,5.39a31.74,31.74,0,0,1,3.25,3.62,14.12,14.12,0,0,1,2.08,4,17.18,17.18,0,0,1,.79,5.53q0,7.14-2.61,10.81t-8.62,3.68Q145.65,162.26,142.73,159Zm23.92,2.81V113.58H186v9.32h-9.49v9.37h9.1v9.1h-9.1v11.06h10.11v9.38Zm22.51,0v-8.2H199v8.2Z"/>
        <path id="_12-5" data-name="12-5" d="M6.23,192.8v-26H11.4l2.31,12.45V166.77h4.85v26H13.65l-2.51-13v13Zm15.92-1.68a8.34,8.34,0,0,1-1.57-5.41v-12.4a7.25,7.25,0,0,1,1.57-5.07,6,6,0,0,1,4.62-1.71,6,6,0,0,1,4.62,1.71A7.25,7.25,0,0,1,33,173.31v12.4a8.3,8.3,0,0,1-1.57,5.42A5.65,5.65,0,0,1,26.77,193,5.64,5.64,0,0,1,22.15,191.12Zm5.53-3.47a5.07,5.07,0,0,0,.23-1.7V173.22a3.54,3.54,0,0,0-.22-1.37.86.86,0,0,0-.89-.53c-.84,0-1.26.65-1.26,2V186a4.18,4.18,0,0,0,.27,1.7,1,1,0,0,0,1,.57A.89.89,0,0,0,27.68,187.65ZM35,166.77h6.8a5.1,5.1,0,0,1,4,1.39c.83.93,1.24,2.45,1.24,4.55v1.15c0,2.48-.85,4-2.57,4.45a3.22,3.22,0,0,1,2.22,2,10.84,10.84,0,0,1,.64,4.1,13.11,13.11,0,0,1-1.19,6.28q-1.2,2.15-4.33,2.14H35Zm5.93,9.79a.87.87,0,0,0,.87-.5,3.38,3.38,0,0,0,.24-1.41V172c0-.85-.36-1.27-1.08-1.27h-1v5.79Zm1.43,9.72V183a3.72,3.72,0,0,0-.34-1.79,1.24,1.24,0,0,0-1.18-.6h-.93v7.54l.49,0A1.72,1.72,0,0,0,42.34,186.28Zm8,4.84a8.34,8.34,0,0,1-1.57-5.41v-12.4a7.25,7.25,0,0,1,1.57-5.07A6,6,0,0,1,55,166.53a6,6,0,0,1,4.61,1.71,7.25,7.25,0,0,1,1.58,5.07v12.4a8.3,8.3,0,0,1-1.58,5.42A5.62,5.62,0,0,1,55,193,5.63,5.63,0,0,1,50.34,191.12Zm5.52-3.47a4.8,4.8,0,0,0,.24-1.7V173.22a3.74,3.74,0,0,0-.22-1.37.87.87,0,0,0-.89-.53c-.84,0-1.26.65-1.26,2V186a4.38,4.38,0,0,0,.26,1.7,1,1,0,0,0,1,.57A.87.87,0,0,0,55.86,187.65Zm7.31-20.88h6.92a5.06,5.06,0,0,1,4,1.55,6.87,6.87,0,0,1,1.37,4.57l.06,12.18a10.27,10.27,0,0,1-1.28,5.79,4.89,4.89,0,0,1-4.36,1.94H63.17Zm5.93,21.42a1.22,1.22,0,0,0,1.37-1.39V173.38a5.26,5.26,0,0,0-.13-1.32.85.85,0,0,0-.49-.59,2.88,2.88,0,0,0-1.08-.15h-.55v16.87Zm11.5,4.61v-8.58l-4-17.45h5l1.4,8.82,1.4-8.82h5l-4,17.45v8.58Z"/>
        <path id="_12-6" data-name="12-6" d="M97.43,166.77h6.81a5.06,5.06,0,0,1,4,1.39c.83.93,1.24,2.45,1.24,4.55v1.15c0,2.48-.85,4-2.57,4.45a3.19,3.19,0,0,1,2.22,2,10.82,10.82,0,0,1,.65,4.1,13.09,13.09,0,0,1-1.2,6.28q-1.2,2.15-4.32,2.14H97.43Zm5.93,9.79a.89.89,0,0,0,.88-.5,3.57,3.57,0,0,0,.23-1.41V172c0-.85-.36-1.27-1.08-1.27h-1v5.79Zm1.43,9.72V183a3.72,3.72,0,0,0-.34-1.79,1.23,1.23,0,0,0-1.18-.6h-.93v7.54l.49,0A1.72,1.72,0,0,0,104.79,186.28Zm6.63,6.52v-26h10v5h-4.94v5.06h4.74v4.91h-4.74v6h5.26v5.06Zm12,0v-26h5v21.61h5.17v4.42Zm13-1.68a8.29,8.29,0,0,1-1.58-5.41v-12.4a7.2,7.2,0,0,1,1.58-5.07,7.08,7.08,0,0,1,9.23,0,7.25,7.25,0,0,1,1.57,5.07v12.4a8.3,8.3,0,0,1-1.57,5.42,6.52,6.52,0,0,1-9.23,0Zm5.52-3.47a5.07,5.07,0,0,0,.23-1.7V173.22a3.54,3.54,0,0,0-.22-1.37.85.85,0,0,0-.89-.53c-.84,0-1.26.65-1.26,2V186a4.18,4.18,0,0,0,.27,1.7,1,1,0,0,0,1,.57A.89.89,0,0,0,142,187.65Zm7.3,5.15v-26h5.17l2.31,12.45V166.77h4.85v26h-4.91l-2.51-13v13Zm15.67-1.74c-.89-1.33-1.33-3.33-1.33-6V173.83a8.31,8.31,0,0,1,1.55-5.45,5.66,5.66,0,0,1,4.62-1.85,6.29,6.29,0,0,1,3.85,1,5.24,5.24,0,0,1,1.9,3,20.1,20.1,0,0,1,.53,5.06h-4.91v-2.34a3.5,3.5,0,0,0-.25-1.45.91.91,0,0,0-.89-.51c-1,0-1.43.64-1.43,1.93v12.61a4.21,4.21,0,0,0,.29,1.79,1.17,1.17,0,0,0,2,0,4.19,4.19,0,0,0,.3-1.79v-3.73h-1.35v-4.48H176V192.8h-2l-.85-2.18A4.42,4.42,0,0,1,169,193,4.55,4.55,0,0,1,164.92,191.06Zm14.07.22c-1-1.17-1.52-3.06-1.52-5.66v-2.55h4.93v3.24c0,1.3.4,1.94,1.2,1.94a1,1,0,0,0,.94-.41,2.71,2.71,0,0,0,.26-1.37,6.63,6.63,0,0,0-.29-2.11,4.68,4.68,0,0,0-.75-1.39c-.3-.38-.84-1-1.62-1.75L180,179a7.84,7.84,0,0,1-2.51-5.64,7.67,7.67,0,0,1,1.47-5.07,5.34,5.34,0,0,1,4.31-1.74q3.39,0,4.88,1.86c1,1.24,1.49,3.19,1.49,5.83h-5.11l0-1.78a1.18,1.18,0,0,0-.28-.82,1,1,0,0,0-.77-.3,1.11,1.11,0,0,0-.88.33,1.29,1.29,0,0,0-.29.91,3.79,3.79,0,0,0,1.4,2.63l2.92,2.91a16.37,16.37,0,0,1,1.69,2,7.53,7.53,0,0,1,1.08,2.18,9.45,9.45,0,0,1,.41,3,10.42,10.42,0,0,1-1.35,5.84,5.05,5.05,0,0,1-4.49,2C181.64,193,180,192.46,179,191.28Z"/>
        <path id="_12-7" data-name="12-7" d="M1.1,240.58l4.09-42.34H19.53l4,42.34h-8L15,233.72H9.82l-.49,6.86ZM10.46,227h3.85l-1.88-21.54H12Zm15.67,13.61V198.24h8.73l3.89,20.25V198.24h8.18v42.34H38.65l-4.23-21.2v21.2Zm29.68,0v-14l-6.76-28.39h8.38l2.37,14.34,2.36-14.34h8.38l-6.75,28.39v14Zm20.16,0-4.54-42.34h8.28L82.08,225l2.36-26.71h7.89L94.6,225l2.26-26.71h8.38l-4.63,42.34H90.46l-2.12-20.41-2,20.41Zm31.79,0V198.24h8.43v15.13h4V198.24h8.43v42.34h-8.43V221.35h-4v19.23Zm24.59,0V198.24h17v8.18H141v8.23h8v8h-8v9.71h8.87v8.24Zm20.31-42.34h13a7.35,7.35,0,0,1,4.81,1.4,7,7,0,0,1,2.29,3.94,29.69,29.69,0,0,1,.59,6.48,13.54,13.54,0,0,1-.94,5.62,5.21,5.21,0,0,1-3.25,2.81,4,4,0,0,1,2.79,1.93,8.45,8.45,0,0,1,.86,4.14l-.1,16h-8.28V224c0-1.18-.23-1.93-.69-2.26a4.56,4.56,0,0,0-2.51-.5v19.33h-8.58Zm10.65,15.67c1.18,0,1.77-1.28,1.77-3.85a15.5,15.5,0,0,0-.15-2.51,1.91,1.91,0,0,0-.54-1.16,1.77,1.77,0,0,0-1.13-.32h-2v7.84Zm12.86,26.67V198.24h17v8.18H184.8v8.23h8v8h-8v9.71h8.87v8.24Zm19.77,0v-7.2h8.62v7.2Z"/>
        <path id="_12-8" data-name="12-8" d="M1,281.09V246.38h13.9v6.71H8.08v6.75h6.55v6.54H8.08v8h7.28v6.75Zm19.84,0-4.28-34.75H23.2L25.74,270,28,246.34h6.63l-4.28,34.75Zm15.76,0V246.38h13.9v6.71H43.68v6.75h6.55v6.54H43.68v8H51v6.75Zm16.65-34.71H63.93a6,6,0,0,1,3.94,1.15,5.78,5.78,0,0,1,1.88,3.24,24.17,24.17,0,0,1,.48,5.31,11.08,11.08,0,0,1-.77,4.61A4.32,4.32,0,0,1,66.8,263a3.21,3.21,0,0,1,2.28,1.58,6.89,6.89,0,0,1,.71,3.39l-.08,13.13H62.92V267.52q0-1.45-.57-1.86a3.72,3.72,0,0,0-2.06-.41v15.84h-7ZM62,259.23c1,0,1.45-1.05,1.45-3.15a13,13,0,0,0-.12-2.06,1.56,1.56,0,0,0-.44-1,1.43,1.43,0,0,0-.93-.26H60.33v6.42Zm14.75,21.86V269.66L71.2,246.38h6.87L80,258.14,82,246.38h6.87l-5.54,23.28v11.43Zm13.82-34.71H100q3.81,0,5.52,1.86c1.14,1.24,1.72,3.26,1.72,6.06v1.54q0,5-3.56,5.94a4.37,4.37,0,0,1,3.07,2.62,14.08,14.08,0,0,1,.89,5.46q0,5.53-1.66,8.39t-6,2.84H90.56Zm8.2,13.05a1.22,1.22,0,0,0,1.21-.66,4.34,4.34,0,0,0,.33-1.88v-3.48c0-1.13-.5-1.69-1.5-1.69H97.35v7.71Zm2,13v-4.33a4.87,4.87,0,0,0-.46-2.38,1.73,1.73,0,0,0-1.64-.81H97.35V275l.68,0C99.84,275,100.74,274.13,100.74,272.41Zm11.07,6.44q-2.18-2.57-2.18-7.21V255.11q0-4.49,2.18-6.77t6.39-2.28q4.2,0,6.38,2.28t2.19,6.77v16.53q0,4.68-2.19,7.23a9.24,9.24,0,0,1-12.77,0Zm7.64-4.63a6.16,6.16,0,0,0,.32-2.26V255a4.74,4.74,0,0,0-.3-1.84,1.2,1.2,0,0,0-1.23-.71c-1.16,0-1.74.88-1.74,2.63V272a5.5,5.5,0,0,0,.36,2.26,1.34,1.34,0,0,0,1.34.77A1.22,1.22,0,0,0,119.45,274.22Zm10.1-27.84h9.58a7.15,7.15,0,0,1,5.58,2.06q1.86,2.07,1.9,6.1l.08,16.25q0,5.13-1.78,7.72t-6,2.58h-9.34ZM137.76,275a1.66,1.66,0,0,0,1.9-1.86v-17.9a6,6,0,0,0-.19-1.76,1.18,1.18,0,0,0-.66-.79,4.28,4.28,0,0,0-1.5-.2h-.77V275Zm15.92,6.14V269.66l-5.54-23.28H155L157,258.14l1.94-11.76h6.87l-5.53,23.28v11.43Zm14.47-24.53,1.29-4.68h-2.51V246h7.4v5.7l-2,4.84Zm10.14,22.51q-2.1-2.34-2.1-7.55v-3.4H183v4.33q0,2.58,1.65,2.58a1.47,1.47,0,0,0,1.3-.54,3.51,3.51,0,0,0,.36-1.84,8.58,8.58,0,0,0-.4-2.81,6.34,6.34,0,0,0-1-1.86c-.42-.5-1.17-1.27-2.25-2.32l-3-3a10.36,10.36,0,0,1-3.47-7.52q0-4.44,2-6.77a7.49,7.49,0,0,1,6-2.32q4.68,0,6.75,2.48t2.06,7.78h-7.07l0-2.38a1.5,1.5,0,0,0-.39-1.09,1.39,1.39,0,0,0-1.07-.41,1.54,1.54,0,0,0-1.21.45,1.72,1.72,0,0,0-.41,1.21,5.08,5.08,0,0,0,1.94,3.52l4,3.88a22.14,22.14,0,0,1,2.35,2.6,10,10,0,0,1,1.49,2.91,12.44,12.44,0,0,1,.57,4c0,3.42-.63,6-1.88,7.78s-3.32,2.65-6.2,2.65Q180.4,281.42,178.29,279.07Z"/>
        <path id="_12-9" data-name="12-9" d="M2,322.13Q.1,319.4.11,313.84V298.39q0-5,2.22-7.51t6.59-2.55a9.22,9.22,0,0,1,5.51,1.42,7.3,7.3,0,0,1,2.72,4.13,26.88,26.88,0,0,1,.75,7h-7v-3.22a4.5,4.5,0,0,0-.36-2,1.29,1.29,0,0,0-1.27-.71c-1.37,0-2,.89-2,2.67V315a5.61,5.61,0,0,0,.42,2.46,1.49,1.49,0,0,0,1.46.84,1.49,1.49,0,0,0,1.46-.84A5.61,5.61,0,0,0,11,315v-5.14H9.05v-6.18h8.77v20.88H14.94l-1.21-3a6.4,6.4,0,0,1-5.93,3.34A6.57,6.57,0,0,1,2,322.13Zm20.61.09c-1.5-1.77-2.26-4.26-2.26-7.46V297.68c0-3.09.76-5.42,2.26-7s3.7-2.36,6.6-2.36,5.09.79,6.59,2.36,2.26,3.9,2.26,7v17.08q0,4.85-2.26,7.48a8.21,8.21,0,0,1-6.59,2.63A8.2,8.2,0,0,1,22.62,322.22Zm7.89-4.79a6.48,6.48,0,0,0,.34-2.33V297.56a4.85,4.85,0,0,0-.32-1.9,1.24,1.24,0,0,0-1.27-.73c-1.2,0-1.8.9-1.8,2.71v17.5a5.68,5.68,0,0,0,.38,2.34,1.4,1.4,0,0,0,1.38.79A1.26,1.26,0,0,0,30.51,317.43Zm10.11,7.1V288.66h6.93v35.87Zm9.81,0V288.66h7.39l3.3,17.17V288.66h6.93v35.87H61l-3.6-17.95v17.95Zm22.4-2.4q-1.9-2.73-1.9-8.29V298.39q0-5,2.21-7.51t6.6-2.55a9.22,9.22,0,0,1,5.51,1.42A7.3,7.3,0,0,1,88,293.88a26.88,26.88,0,0,1,.75,7h-7v-3.22a4.51,4.51,0,0,0-.35-2,1.29,1.29,0,0,0-1.27-.71c-1.37,0-2,.89-2,2.67V315a5.61,5.61,0,0,0,.42,2.46,1.69,1.69,0,0,0,2.92,0,5.61,5.61,0,0,0,.42-2.46v-5.14H79.87v-6.18h8.77v20.88H85.76l-1.22-3a6.38,6.38,0,0,1-5.93,3.34A6.56,6.56,0,0,1,72.83,322.13Z"/>
        <path id="_12-10" data-name="12-10" d="M104.34,324.53v-29h-4.26v-6.89h15.7v6.89h-4.26v29Zm15.4-2.31q-2.25-2.66-2.25-7.46V297.68q0-4.64,2.25-7t6.6-2.36q4.35,0,6.6,2.36t2.25,7v17.08q0,4.85-2.25,7.48t-6.6,2.63A8.22,8.22,0,0,1,119.74,322.22Zm7.9-4.79a6.51,6.51,0,0,0,.33-2.33V297.56a4.87,4.87,0,0,0-.31-1.9,1.25,1.25,0,0,0-1.28-.73c-1.19,0-1.79.9-1.79,2.71v17.5a5.7,5.7,0,0,0,.37,2.34,1.4,1.4,0,0,0,1.38.79A1.28,1.28,0,0,0,127.64,317.43Z"/>
        <path id="_12-11" data-name="12-11" d="M147.85,288.66h9.89c2.56,0,4.49.71,5.77,2.13s1.93,3.53,2,6.31l.08,16.78q0,5.31-1.84,8t-6.22,2.67h-9.64Zm8.47,29.53a1.72,1.72,0,0,0,2-1.92v-18.5a6.74,6.74,0,0,0-.19-1.82,1.23,1.23,0,0,0-.69-.81,4.25,4.25,0,0,0-1.55-.21h-.79v23.26Zm11.78,6.34V288.66H175v35.87Zm9.81,0V288.66h14.37v6.93h-7.06v7H192v6.76h-6.76v8.23h7.52v7Zm16.75,0v-6.09H202v6.09Z"/>
        <path id="_12-12" data-name="12-12" d="M2.25,355.44A5.91,5.91,0,0,1,0,350.54v-12q0-3.87,2-5.84t6.35-2a10.64,10.64,0,0,1,6.08,1.57,5.17,5.17,0,0,1,2.31,4.54v4.48H10v-3.84A2.56,2.56,0,0,0,9.62,336a1.56,1.56,0,0,0-1.24-.42,1.41,1.41,0,0,0-1.25.49,2.5,2.5,0,0,0-.33,1.42v13a2.32,2.32,0,0,0,.39,1.5,1.49,1.49,0,0,0,1.19.47c1.06,0,1.59-.66,1.59-2v-4.69h6.88v4.9q0,6.54-8.62,6.54A9.32,9.32,0,0,1,2.25,355.44ZM21,355.31a6.87,6.87,0,0,1-2.14-5.4V337.54A6.09,6.09,0,0,1,21,332.47q2.14-1.71,6.28-1.71t6.28,1.71a6.1,6.1,0,0,1,2.15,5.07v12.37a6.85,6.85,0,0,1-2.15,5.41q-2.14,1.9-6.28,1.91T21,355.31Zm7.51-3.47a3.68,3.68,0,0,0,.32-1.69v-12.7a2.77,2.77,0,0,0-.3-1.38,1.27,1.27,0,0,0-1.21-.53c-1.14,0-1.71.66-1.71,2v12.67a3.19,3.19,0,0,0,.36,1.69,1.4,1.4,0,0,0,1.31.58A1.25,1.25,0,0,0,28.49,351.84ZM38.43,357V331H48.84l2.86,15.85L54.56,331H65.05v26H58.81V338.26L54.88,357H48.76l-4.17-18.72V357Zm29.64,0V331H81.74v5H75v5.05h6.43V346H75v5.95h7.15V357Z"/>
        <path id="_12-13" data-name="12-13" d="M96.4,357l-3.65-26h6.67l1.91,16.4,1.91-16.4h6.36l1.83,16.4,1.82-16.4H120l-3.74,26h-8.18l-1.71-12.52L104.75,357Zm23.89,0,3.3-26h11.56l3.26,26h-6.48l-.48-4.2h-4.13l-.4,4.2Zm7.55-8.34h3.1l-1.51-13.22h-.32ZM143.41,357V336h-4v-5H154.3v5h-4.05v21Zm14.77-1.54a5.91,5.91,0,0,1-2.25-4.9v-12q0-3.87,2-5.84t6.36-2a10.69,10.69,0,0,1,6.08,1.57,5.18,5.18,0,0,1,2.3,4.54v4.48h-6.79v-3.84a2.48,2.48,0,0,0-.36-1.55,1.55,1.55,0,0,0-1.23-.42,1.43,1.43,0,0,0-1.26.49,2.5,2.5,0,0,0-.33,1.42v13a2.32,2.32,0,0,0,.39,1.5,1.51,1.51,0,0,0,1.2.47c1.06,0,1.59-.66,1.59-2v-4.69h6.87v4.9q0,6.54-8.62,6.54A9.32,9.32,0,0,1,158.18,355.44ZM175.05,357V331h6.79v9.29h3.22V331h6.79v26h-6.79V345.19h-3.22V357Z"/>
        <path id="_12-14" data-name="12-14" d="M9.64,429.55V378.47H2.13V366.32H29.81v12.15H22.3v51.08Zm29.52,0-7.81-63.3H43.43l4.64,43.06,4.12-43.06H64.26l-7.8,63.3Zm30.47-31.28a39.34,39.34,0,0,0,10.12-1A8.14,8.14,0,0,0,84.94,393c1.13-2.16,1.7-5.49,1.7-10a11.17,11.17,0,0,0-.66-4.27,3,3,0,0,0-5.38.22,14.35,14.35,0,0,0-.66,4.86v5.3H66.76V380q0-7.06,4.49-10.67t12.08-3.61q9.19,0,13.06,4.9t3.87,14.83q0,9.72-4.75,15.68t-13.88,6v6.11h-12Zm-.36,31.28V418.81h12.8v10.74Z"/>
        <path id="tv" d="M184.84,421.24,186,432.13h-3l-3.43-10.89Zm-67.27-17.51,46.19-16v-4.62l-46.19,16ZM162.36,414a1.32,1.32,0,0,0,1.4-1.21v-14L119.83,414Zm-44.79-33.86v16.35l46.19-16v-.39a1.32,1.32,0,0,0-1.4-1.21H119a1.32,1.32,0,0,0-1.4,1.21Zm-1.3,52h3l3.44-10.89h-5.29Zm55.85-27.81h18.2v10c0,2.5-2.35,4.53-5.25,4.54H172.12Zm14,10.88a1.32,1.32,0,0,0-1.4-1.21h-7a1.22,1.22,0,1,0,0,2.42h7A1.32,1.32,0,0,0,186.12,415.2Zm-9.8-7.26a1.32,1.32,0,0,0,1.4,1.21h7a1.22,1.22,0,1,0,0-2.42h-7A1.32,1.32,0,0,0,176.32,407.94Zm-1.4,3.63a1.32,1.32,0,0,0,1.4,1.21h9.8a1.22,1.22,0,1,0,0-2.42h-9.8A1.32,1.32,0,0,0,174.92,411.57Zm-57.35.62,46.19-16v-5.86l-46.19,16Zm62-15.47a3.79,3.79,0,0,0,4.72-1.28,2.67,2.67,0,0,0,.28-2.2Zm1.62-13a3.57,3.57,0,0,0,3.21-1.81H178A3.54,3.54,0,0,0,181.22,383.76Zm.38,7.27-.38,0a3.3,3.3,0,0,0-3.5,3,2.67,2.67,0,0,0,.13.79l5-3.47a3.73,3.73,0,0,0-1.24-.33Zm8.72-13.62V401.9h-18.2v-29h12.95C188,372.88,190.32,374.91,190.32,377.41Zm-15.4,3.33c0,3,2.82,5.44,6.3,5.44s6.3-2.44,6.3-5.44-2.82-5.45-6.3-5.45S174.93,377.73,174.92,380.74Zm12.56,13.88c.38-3-2.12-5.67-5.58-6s-6.56,1.83-6.94,4.82,2.12,5.67,5.58,6q.35,0,.69,0c3.21,0,5.91-2.1,6.25-4.86Zm-6.26-16.91a3.55,3.55,0,0,0-3.2,1.82h6.41A3.57,3.57,0,0,0,181.22,377.71Zm-39.16-4.83h27.27v45.95H117.19c-2.9,0-5.25-2-5.25-4.54V377.41c0-2.5,2.35-4.53,5.25-4.53h20.62l-10-7.56a1.09,1.09,0,0,1-.14-1.7,1.56,1.56,0,0,1,2-.12l10.27,7.77,10.28-7.77h0a1.54,1.54,0,0,1,2,.12,1.09,1.09,0,0,1-.13,1.7Zm24.5,7.28a4,4,0,0,0-4.2-3.63H119a4,4,0,0,0-4.2,3.63v32.65a4,4,0,0,0,4.2,3.63h43.39a4,4,0,0,0,4.2-3.63V380.16Z"/>
      </g>
    </g>
  </g>
</svg>
