<svg xmlns="http://www.w3.org/2000/svg" viewBox="0 0 526.96 388.57">
  <g id="Layer_2" data-name="Layer 2">
    <g id="text">
      <g id="_6-line" data-name="6-line">
        <path id="_6-1" data-name="6-1" d="M5.84,66.32V26.9H.05V17.52H21.41V26.9H15.62V66.32Zm18.3,0V17.52h9.71V35h4.6V17.52h9.72v48.8H38.45V44.16h-4.6V66.32Zm27,0,4.71-48.8H72.42l4.66,48.8H67.82l-.68-7.9H61.23l-.57,7.9ZM62,50.64H66.4L64.24,25.82h-.45ZM84.24,66.32V26.9h-5.8V17.52H99.8V26.9H94V66.32Z"/>
        <path id="_6-2" data-name="6-2" d="M118.49,63.17q-3.06-3.62-3.06-10.14V29.79q0-6.3,3.06-9.51t9-3.21q5.91,0,9,3.21t3.07,9.51V53q0,6.59-3.07,10.17t-9,3.57Q121.56,66.77,118.49,63.17Zm10.74-6.51a8.91,8.91,0,0,0,.45-3.18V29.62a6.68,6.68,0,0,0-.42-2.58,1.69,1.69,0,0,0-1.73-1q-2.44,0-2.45,3.7v23.8a7.72,7.72,0,0,0,.51,3.18,1.89,1.89,0,0,0,1.88,1.08A1.72,1.72,0,0,0,129.23,56.66Zm16.56,6.71q-2.92-3.42-2.93-10.12V17.52h9.49V52.86a11.24,11.24,0,0,0,.46,3.63,2.09,2.09,0,0,0,3.86,0,11.52,11.52,0,0,0,.45-3.66V17.52h9.49V53.25q0,6.7-2.93,10.12t-8.94,3.4Q148.71,66.77,145.79,63.37Zm28.77,2.95V26.9h-5.79V17.52h21.36V26.9h-5.8V66.32Z"/>
        <path id="_6-3" data-name="6-3" d="M210.35,66.32V26.9h-5.79V17.52h21.36V26.9h-5.8V66.32Zm18.29,0V17.52h9.72V35H243V17.52h9.71v48.8H243V44.16h-4.6V66.32Zm28.35,0V17.52h19.54V27h-9.6v9.49h9.21v9.2h-9.21V56.83h10.23v9.49Zm23.41-48.8h15a8.45,8.45,0,0,1,5.54,1.62,8,8,0,0,1,2.64,4.55,33.4,33.4,0,0,1,.69,7.47,15.88,15.88,0,0,1-1.08,6.47,6.06,6.06,0,0,1-3.75,3.24,4.52,4.52,0,0,1,3.21,2.22,9.73,9.73,0,0,1,1,4.77l-.11,18.46H294V47.23c0-1.36-.26-2.23-.79-2.61a5.28,5.28,0,0,0-2.9-.57V66.32H280.4Zm12.27,18.07q2,0,2-4.43a18.53,18.53,0,0,0-.17-2.9,2.16,2.16,0,0,0-.62-1.34,2.08,2.08,0,0,0-1.31-.37h-2.27v9Zm14.82,30.73V17.52H327V27h-9.6v9.49h9.21v9.2h-9.21V56.83h10.23v9.49Zm22.78,0V58h9.94v8.29Z"/>
        <path id="_6-4" data-name="6-4" d="M8.52,164V106.09H0V92.32H31.4v13.77H22.88V164Zm26.88,0V92.32H49.68V118h6.77V92.32H70.73V164H56.45V131.48H49.68V164Zm39.75,0,6.93-71.72h24.3L113.23,164H99.62l-1-11.6H89.93L89.1,164ZM91,141h6.51l-3.17-36.49h-.67Zm32.73,23V106.09h-8.52V92.32h31.4v13.77h-8.52V164ZM152,113.36l2.67-9.69h-5.17V91.56h15.28v11.78l-4.18,10Zm21,46.51q-4.34-4.85-4.34-15.62v-7H182.7v8.94q0,5.34,3.42,5.34a3,3,0,0,0,2.68-1.13,7.16,7.16,0,0,0,.75-3.8,17.06,17.06,0,0,0-.84-5.8,12.37,12.37,0,0,0-2.13-3.84q-1.29-1.55-4.63-4.8L175.77,126q-7.19-7-7.18-15.53,0-9.19,4.22-14t12.31-4.8q9.69,0,13.95,5.13t4.26,16.08H188.71l-.08-4.93a3.16,3.16,0,0,0-.79-2.25,2.91,2.91,0,0,0-2.22-.84,3.21,3.21,0,0,0-2.5.92,3.57,3.57,0,0,0-.84,2.5q0,3.51,4,7.27l8.35,8a46.94,46.94,0,0,1,4.84,5.38,20.9,20.9,0,0,1,3.09,6,25.84,25.84,0,0,1,1.17,8.23q0,10.61-3.88,16.07T187,164.71Q177.28,164.71,172.93,159.87Z"/>
        <path id="_6-5" data-name="6-5" d="M228,164V92.32h21.88l6,43.75,6-43.75H284V164H270.88V112.36L262.61,164H249.75L241,112.36V164Zm71,0V140.41L287.58,92.32h14.19l4,24.3,4-24.3H324l-11.44,48.09V164Z"/>
        <path id="_6-6" data-name="6-6" d="M13,373.35Q2.41,358.13,2.42,327.21v-86q0-27.65,12.32-41.83t36.72-14.18q19.75,0,30.68,7.9t15.1,23q4.19,15.12,4.19,38.81H62.38V237q0-7.2-2-11.16t-7.09-3.95q-11.39,0-11.39,14.88v96.68q0,9.06,2.33,13.71t8.13,4.65q5.8,0,8.13-4.65t2.33-13.71V304.9H52.16V270.51H101v116.2h-16L78.19,370q-10.69,18.58-33,18.59Q23.58,388.57,13,373.35ZM116.76,187.07h61.36q14.64,0,22.66,6.62t10.81,18.6q2.78,12,2.78,30.56,0,17-4.41,26.49t-15.34,13.25q9.06,1.86,13.13,9.06t4.07,19.53l-.47,75.53h-39V308.62q0-8.37-3.25-10.69t-11.86-2.32v91.1H116.76ZM167,261q8.37,0,8.37-18.13a73.25,73.25,0,0,0-.7-11.85c-.46-2.64-1.32-4.46-2.55-5.47a8.36,8.36,0,0,0-5.35-1.51h-9.3v37Zm55.31,125.73,19.29-199.64H309.2l19.05,199.64H290.37l-2.79-32.31H263.41l-2.32,32.31Zm44.16-64.15h18.13L275.73,221h-1.86Zm87.38,64.15L329.18,186.84h38.11l14.65,136,13-136h38.12L408.43,386.71Zm90.64,0V187.07H524.4v38.58H485.12v38.81h37.65v37.65H485.12V347.9H527v38.81Z"/>
        <path id="grave" d="M400,30.13h-3.29v-6H400a3.16,3.16,0,0,1,3.28,3A3.16,3.16,0,0,1,400,30.13Zm-6.94,74.68a3.49,3.49,0,0,1-4.09-.7,5.23,5.23,0,0,0-4.8-1.47,4.79,4.79,0,0,0-3.71,3.16,4.1,4.1,0,0,0,.41,3.41,4.57,4.57,0,0,0,2.32,1.93,3,3,0,0,1,1.91,3.21,4,4,0,0,0,.53,2.81,5.22,5.22,0,0,0,6.71,1.77,4.34,4.34,0,0,0,2.3-5.28,2.92,2.92,0,0,1,1.56-3.55l8-4a10.53,10.53,0,0,1-3.68-5Zm3.15-35.16a2.92,2.92,0,0,1-1.55-3.55,4.27,4.27,0,0,0-1.2-4.48,5.25,5.25,0,0,0-4.88-1.18,4.9,4.9,0,0,0-3,2.18,4.08,4.08,0,0,0-.51,2.79,3,3,0,0,1-2,3.22,4.47,4.47,0,0,0-2.25,1.89,4.18,4.18,0,0,0-.43,3.44,4.65,4.65,0,0,0,2.37,2.7,5.26,5.26,0,0,0,6.14-1,3.48,3.48,0,0,1,4.1-.69l7.75,3.91a20.11,20.11,0,0,1,2.64-5.56ZM376.54,139.4a24.79,24.79,0,0,0-9.39-.6V51.22c0-28.29,25-51.22,55.9-51.22S479,22.93,479,51.22V138.8a25.14,25.14,0,0,0-3.12-.2,20.38,20.38,0,0,0-6.07.85,24.14,24.14,0,0,0-17-6.88,27.79,27.79,0,0,0-8.17,1.28,34.84,34.84,0,0,0-21.53-7.3A34.1,34.1,0,0,0,401.56,134a24.51,24.51,0,0,0-25,5.42Zm59.67-94.21a3.3,3.3,0,0,0,6.57,0v-9h3.29c5.45,0,9.87-4,9.87-9s-4.42-9-9.87-9h-3.29a6.32,6.32,0,0,0-6.57,6V45.19Zm-16.44,0a3.3,3.3,0,0,0,6.57,0V21.09a3.3,3.3,0,0,0-6.57,0Zm-29.6,0a3.3,3.3,0,0,0,6.58,0v-9H398l5.69,10.38a3.42,3.42,0,0,0,4.41,1.35,2.9,2.9,0,0,0,1.47-4L404.74,35a8.74,8.74,0,0,0,4.86-10.15A9.71,9.71,0,0,0,400,18.08h-3.29a6.32,6.32,0,0,0-6.58,6V45.19Zm9.92,40.15a19.61,19.61,0,0,0,1.67,7,10.41,10.41,0,0,0-.89,1.64L392,98.49a12.38,12.38,0,0,0-12.28-.68,10.74,10.74,0,0,0-5.53,6.27,9.76,9.76,0,0,0,.95,8,10.66,10.66,0,0,0,3.37,3.48,10.5,10.5,0,0,0,6.21,9.15,12.43,12.43,0,0,0,11.75-.62,10.28,10.28,0,0,0,5-9.76l8.66-4.34a6.51,6.51,0,0,0,6.34,4.48h13.15A6.51,6.51,0,0,0,436,110l8.67,4.35a10,10,0,0,0,3.08,7.84,12,12,0,0,0,8.35,3.31A11.81,11.81,0,0,0,466.22,120a9.73,9.73,0,0,0,1.37-4.44,10.44,10.44,0,0,0,3.35-3.46,9.71,9.71,0,0,0,1-8,10.71,10.71,0,0,0-5.51-6.29,12.37,12.37,0,0,0-12.3.67L445.23,94a11,11,0,0,0-.89-1.65,19.62,19.62,0,0,0,1.68-7l8.1-4.08a12.47,12.47,0,0,0,12.27.68,10.73,10.73,0,0,0,5.53-6.28,9.73,9.73,0,0,0-.95-8,10.52,10.52,0,0,0-3.38-3.49A10.5,10.5,0,0,0,461.38,55a12.4,12.4,0,0,0-11.76.64,10.24,10.24,0,0,0-5,9.77l-6.34,3.19a24.48,24.48,0,0,0-30.47,0l-6.35-3.19c.32-4.93-3.14-9.4-8.32-10.76a12,12,0,0,0-13.27,5.09,9.81,9.81,0,0,0-1.37,4.43,10.47,10.47,0,0,0-3.35,3.47,9.69,9.69,0,0,0-1,8,10.7,10.7,0,0,0,5.52,6.29A12.46,12.46,0,0,0,392,81.26l8.1,4.08Zm12.44,17a5.11,5.11,0,0,1-5.28-2.24,4.22,4.22,0,0,1,.73-5.29,2.85,2.85,0,0,0,.52-3.48,14.22,14.22,0,0,1,4.15-18.67,17.63,17.63,0,0,1,20.81,0,14.23,14.23,0,0,1,4.15,18.67,2.85,2.85,0,0,0,.52,3.48,4.22,4.22,0,0,1,.73,5.29,5.1,5.1,0,0,1-5.29,2.24,3.5,3.5,0,0,0-2.74.62,2.93,2.93,0,0,0-1.21,2.33v3.17H416.47c0-3.39.24-4.41-1.2-5.5a3.54,3.54,0,0,0-2.74-.62Zm13.81-18a3.3,3.3,0,1,0,3.29-3A3.17,3.17,0,0,0,426.34,84.36Zm-1,6.91a3.52,3.52,0,0,0-4.65,0l-3.29,3a2.84,2.84,0,0,0,0,4.22,3.51,3.51,0,0,0,4.61,0l1-.89,1,.89a3.51,3.51,0,0,0,4.61,0,2.84,2.84,0,0,0,0-4.22l-3.29-3Zm-12.19-6.91a3.3,3.3,0,1,0,3.29-3A3.16,3.16,0,0,0,413.19,84.36Zm38.22,29.29a4.35,4.35,0,0,0,2.33,5.28,5.22,5.22,0,0,0,6.72-1.81,4,4,0,0,0,.51-2.78,3,3,0,0,1,1.91-3.21,4.56,4.56,0,0,0,2.3-1.9,4.18,4.18,0,0,0,.43-3.44,4.65,4.65,0,0,0-2.37-2.7,5.21,5.21,0,0,0-6.14,1,3.5,3.5,0,0,1-4.1.7L445.51,101a10.51,10.51,0,0,1-3.67,5l8,4a2.91,2.91,0,0,1,1.56,3.55Zm-2.05-86.53a3.16,3.16,0,0,0-3.29-3h-3.29v6h3.29A3.16,3.16,0,0,0,449.36,27.12Zm58.56,132a15.19,15.19,0,0,1,7.24,9.62.15.15,0,0,1-.07,0L331,168.85c1.54-7.08,8.32-12.18,16.2-12.17a17.79,17.79,0,0,1,3.57.36h0a18.4,18.4,0,0,1,7.55,3.62,3.51,3.51,0,0,0,3.22.68,3.12,3.12,0,0,0,2.24-2.23,2.86,2.86,0,0,0-1-2.88,23.59,23.59,0,0,0-6.86-3.94c3.73-6.06,11.5-9,18.8-7.09a6.84,6.84,0,0,0,6.45-1.68,17.78,17.78,0,0,1,18-3.92,7,7,0,0,0,6.6-1.17,28.34,28.34,0,0,1,34.47,0,7,7,0,0,0,6.61,1.17,17.8,17.8,0,0,1,18,3.92,6.82,6.82,0,0,0,6.45,1.68c7.3-1.9,15.07,1,18.8,7.09a23.59,23.59,0,0,0-6.86,3.94,2.83,2.83,0,0,0-.17,4.23,3.52,3.52,0,0,0,4.63.2,18.44,18.44,0,0,1,7.56-3.62h.05A17.8,17.8,0,0,1,507.92,159.08Zm-104.6-5.58a3,3,0,0,0-1.08-2.08,16.47,16.47,0,0,0-20.85,0,2.84,2.84,0,0,0-.24,4.26,3.52,3.52,0,0,0,4.65.22,9.34,9.34,0,0,1,12,0,3.51,3.51,0,0,0,4.64-.22A2.88,2.88,0,0,0,403.32,153.5Zm7.24-7.07a3.49,3.49,0,0,0,4.6.6A14.37,14.37,0,0,1,431,147a3.5,3.5,0,0,0,3.26.36,3,3,0,0,0,2-2.41,2.9,2.9,0,0,0-1.29-2.77,21.52,21.52,0,0,0-23.67,0,3,3,0,0,0-1.29,2,2.85,2.85,0,0,0,.63,2.23Zm24.8,15.27a2.81,2.81,0,0,0,.84-2.17,2.91,2.91,0,0,0-1.08-2.09,16.49,16.49,0,0,0-20.85,0,2.84,2.84,0,0,0-.24,4.26,3.5,3.5,0,0,0,4.65.22,9.34,9.34,0,0,1,12,0,3.5,3.5,0,0,0,4.64-.22Zm29.6-6a2.88,2.88,0,0,0,.84-2.18,2.92,2.92,0,0,0-1.09-2.08,16.45,16.45,0,0,0-20.84,0,2.84,2.84,0,0,0-.24,4.26,3.51,3.51,0,0,0,4.64.22,9.34,9.34,0,0,1,12,0,3.52,3.52,0,0,0,4.65-.22ZM453,75a3.48,3.48,0,0,1,4.1.69,5.26,5.26,0,0,0,6.14,1A4.55,4.55,0,0,0,465.6,74a4.16,4.16,0,0,0-.4-3.42,4.44,4.44,0,0,0-2.27-1.92,3,3,0,0,1-2-3.22,4.06,4.06,0,0,0-.53-2.82,4.9,4.9,0,0,0-3-2.15,5.23,5.23,0,0,0-4.87,1.18,4.24,4.24,0,0,0-1.2,4.48,2.92,2.92,0,0,1-1.56,3.55l-7.24,3.64a19.8,19.8,0,0,1,2.63,5.56Z"/>
      </g>
    </g>
  </g>
</svg>
