<svg xmlns="http://www.w3.org/2000/svg" viewBox="0 0 454.56 171.06">
  <g id="Layer_2" data-name="Layer 2">
    <g id="text">
      <g id="_4-line" data-name="4-line">
        <path id="_3-1" data-name="3-1" d="M7.39,62.54Q3.06,58,3.06,50.13V19.77Q3.06,10,7,5T19.23,0Q26.5,0,31,4c3,2.65,4.44,6.49,4.44,11.49V26.83H22.3V17.09a7.81,7.81,0,0,0-.69-3.91,2.63,2.63,0,0,0-2.38-1.07,2.49,2.49,0,0,0-2.42,1.23,7.92,7.92,0,0,0-.65,3.6V50a7.25,7.25,0,0,0,.77,3.8A2.55,2.55,0,0,0,19.23,55c2,0,3.07-1.66,3.07-5V38.09H35.55V50.51q0,16.56-16.63,16.55Q11.72,67.06,7.39,62.54Zm30.77,3.91L44.52.61H66.83l6.28,65.84H60.62L59.7,55.8h-8L51,66.45ZM52.72,45.3h6L55.79,11.8h-.61ZM77.09,66.45V.61H90.66l6.06,31.5V.61h12.72V66.45H96.56L90,33.49v33Z"/>
        <path id="_3-2" data-name="3-2" d="M132.58,66.45V.61h12.73V66.45Z"/>
        <path id="_3-3" data-name="3-3" d="M171.21,62.62q-4-4.44-4-14.33V41.85h13v8.2q0,4.91,3.14,4.9a2.72,2.72,0,0,0,2.45-1,6.56,6.56,0,0,0,.69-3.49,15.78,15.78,0,0,0-.76-5.32,11.67,11.67,0,0,0-2-3.53c-.79-.95-2.21-2.41-4.25-4.41l-5.67-5.67q-6.6-6.43-6.59-14.26,0-8.43,3.87-12.83T182.4,0q8.9,0,12.8,4.71t3.91,14.76H185.7L185.62,15a2.86,2.86,0,0,0-.73-2.07,2.66,2.66,0,0,0-2-.77,3,3,0,0,0-2.3.84,3.31,3.31,0,0,0-.77,2.3q0,3.22,3.68,6.67l7.67,7.36a43,43,0,0,1,4.44,4.94,19.41,19.41,0,0,1,2.84,5.52,23.86,23.86,0,0,1,1.07,7.55q0,9.74-3.56,14.75t-11.77,5Q175.21,67.06,171.21,62.62Zm32.65,3.83V.61H217V24.14h6.21V.61h13.1V66.45h-13.1V36.56H217V66.45Zm41.85-4.25q-4.14-4.87-4.14-13.68V17.17q0-8.51,4.14-12.84T257.82,0q8,0,12.11,4.33t4.14,12.84V48.52c0,5.92-1.38,10.5-4.14,13.71s-6.8,4.83-12.11,4.83S248.47,65.44,245.71,62.2Zm14.48-8.78a11.87,11.87,0,0,0,.62-4.29V16.94a8.85,8.85,0,0,0-.58-3.49,2.28,2.28,0,0,0-2.34-1.34q-3.28,0-3.29,5V49.21a10.38,10.38,0,0,0,.69,4.29A2.54,2.54,0,0,0,257.82,55,2.33,2.33,0,0,0,260.19,53.42Zm24.3,13L277.44.61h12.87L294,42.15,297.67.61h12.27l3.52,41.54L317,.61h13l-7.21,65.84H307l-3.29-31.73-3.15,31.73Z"/>
        <path id="_3-4" data-name="3-4" d="M359.83,66.45V44.76L349.33.61h13L366,22.92,369.72.61h13l-10.5,44.15V66.45Zm29.81-4.25q-4.12-4.87-4.13-13.68V17.17q0-8.51,4.13-12.84T401.75,0q8,0,12.11,4.33T418,17.17V48.52c0,5.92-1.38,10.5-4.14,13.71s-6.79,4.83-12.11,4.83S392.4,65.44,389.64,62.2Zm14.49-8.78a11.9,11.9,0,0,0,.61-4.29V16.94a9.05,9.05,0,0,0-.57-3.49,2.28,2.28,0,0,0-2.34-1.34c-2.2,0-3.29,1.66-3.29,5V49.21a10.58,10.58,0,0,0,.68,4.29A2.55,2.55,0,0,0,401.75,55,2.33,2.33,0,0,0,404.13,53.42Zm22.34,9q-3.95-4.59-4-13.64V.61h12.8V48.29a15.41,15.41,0,0,0,.62,4.9,2.82,2.82,0,0,0,5.21,0,15.43,15.43,0,0,0,.61-4.94V.61h12.8V48.82q0,9-3.95,13.64t-12.07,4.6Q430.42,67.06,426.47,62.46Z"/>
        <path id="_3-5" data-name="3-5" d="M5,165.47q-5-5.59-5-18v-8.11H16.3v10.33q0,6.16,4,6.17a3.44,3.44,0,0,0,3.09-1.3,8.26,8.26,0,0,0,.86-4.39,20,20,0,0,0-1-6.71A14.55,14.55,0,0,0,20.79,139q-1.5-1.78-5.35-5.55L8.3,126.3Q0,118.2,0,108.36,0,97.74,4.87,92.2T19.1,86.65q11.19,0,16.11,5.93t4.92,18.57H23.25l-.1-5.69a3.62,3.62,0,0,0-.91-2.6,3.38,3.38,0,0,0-2.56-1A3.72,3.72,0,0,0,16.79,103a4.13,4.13,0,0,0-1,2.9q0,4.05,4.63,8.39l9.65,9.26a55.51,55.51,0,0,1,5.59,6.22,24.48,24.48,0,0,1,3.57,6.95,29.83,29.83,0,0,1,1.36,9.5q0,12.26-4.49,18.57t-14.81,6.32Q10,171.06,5,165.47Zm45.63-.53q-5.22-6.13-5.21-17.22V108.26q0-10.71,5.21-16.16t15.24-5.45q10,0,15.24,5.45t5.21,16.16v39.46q0,11.19-5.21,17.27t-15.24,6.07Q55.86,171.06,50.65,164.94Zm18.23-11.05a14.93,14.93,0,0,0,.77-5.4V108a11.33,11.33,0,0,0-.72-4.39A2.87,2.87,0,0,0,66,101.89q-4.15,0-4.15,6.27v40.42a13.1,13.1,0,0,0,.87,5.41,3.19,3.19,0,0,0,3.18,1.83A2.92,2.92,0,0,0,68.88,153.89ZM93,170.29V87.42h25.27l7,50.55,6.94-50.55h25.47v82.87H142.49V110.58l-9.55,59.71H118.08L108,110.58v59.71Zm72,0V87.42h33.19v16h-16.3v16.11h15.63v15.63H181.85v19h17.36v16.11Zm46.89,0V103.34H202V87.42h36.27v15.92h-9.84v66.95Zm31.06,0V87.42h16.5V117h7.81V87.42h16.5v82.87h-16.5V132.67h-7.81v37.62Zm47.37,0V87.42h16v82.87Zm22.67,0V87.42H330l7.63,39.65V87.42h16v82.87H337.45l-8.29-41.48v41.48Zm51.75-5.55q-4.38-6.31-4.39-19.15V109.9q0-11.48,5.12-17.37t15.24-5.88q8.2,0,12.73,3.28a16.81,16.81,0,0,1,6.27,9.55,61.72,61.72,0,0,1,1.74,16.11H385.2v-7.43a10.55,10.55,0,0,0-.82-4.63,3,3,0,0,0-2.94-1.64q-4.72,0-4.72,6.18V148.2a13.2,13.2,0,0,0,1,5.69,3.92,3.92,0,0,0,6.75,0,13.18,13.18,0,0,0,1-5.69V136.33H381V122.06h20.26v48.23h-6.66l-2.8-6.95q-4.42,7.72-13.69,7.72Q369.09,171.06,364.7,164.74Zm45.39-35.45q8.69,0,13.27-1.3a10.7,10.7,0,0,0,6.8-5.55q2.22-4.25,2.22-13.12a14.5,14.5,0,0,0-.87-5.59,3.94,3.94,0,0,0-7,.29,18.62,18.62,0,0,0-.87,6.36v7H406.33v-12q0-9.27,5.88-14T428,86.65q12,0,17.12,6.42t5.06,19.43q0,12.73-6.22,20.55t-18.18,7.82v8H410.09Zm-.48,41V156.21H426.4v14.08Z"/>
      </g>
    </g>
  </g>
</svg>
