<svg xmlns="http://www.w3.org/2000/svg" viewBox="0 0 301.93 422.06">
  <g id="Layer_2" data-name="Layer 2">
    <g id="text">
      <g id="_8-line" data-name="8-line">
        <path id="_8-1" data-name="8-1" d="M1.32,18.71A5.77,5.77,0,0,1,.16,14.87V6.08a5,5,0,0,1,1.16-3.6,4.48,4.48,0,0,1,3.4-1.21A4.46,4.46,0,0,1,8.11,2.48a5,5,0,0,1,1.16,3.6v8.79a5.73,5.73,0,0,1-1.16,3.85,4.21,4.21,0,0,1-3.39,1.35A4.21,4.21,0,0,1,1.32,18.71Zm4.06-2.46A3.27,3.27,0,0,0,5.55,15V6a2.48,2.48,0,0,0-.16-1,.63.63,0,0,0-.65-.38c-.62,0-.93.47-.93,1.4v9A2.91,2.91,0,0,0,4,16.27a.71.71,0,0,0,.71.41A.65.65,0,0,0,5.38,16.25Zm5.38,3.65V1.44h3.8l1.7,8.83V1.44h3.56V19.9H16.21l-1.84-9.24V19.9Z"/>
        <path id="_8-2" data-name="8-2" d="M27.5,18.71a5.72,5.72,0,0,1-1.16-3.84V6.08a5,5,0,0,1,1.16-3.6,4.46,4.46,0,0,1,3.39-1.21,4.5,4.5,0,0,1,3.4,1.21,5,5,0,0,1,1.16,3.6v8.79a5.78,5.78,0,0,1-1.16,3.85,4.25,4.25,0,0,1-3.4,1.35A4.19,4.19,0,0,1,27.5,18.71Zm4.06-2.46A3.5,3.5,0,0,0,31.73,15V6a2.48,2.48,0,0,0-.16-1,.65.65,0,0,0-.66-.38c-.61,0-.92.47-.92,1.4v9a2.93,2.93,0,0,0,.19,1.21.72.72,0,0,0,.71.41A.67.67,0,0,0,31.56,16.25Zm5.37,3.65V1.44h3.8l1.7,8.83V1.44H46V19.9H42.39l-1.85-9.24V19.9Zm10.7,0V1.44H55V5H51.39V8.6h3.49v3.48H51.39v4.23h3.87V19.9Z"/>
        <path id="_8-3" data-name="8-3" d="M1.32,44.5A5.77,5.77,0,0,1,.16,40.66V31.87a5,5,0,0,1,1.16-3.6,4.48,4.48,0,0,1,3.4-1.21,4.46,4.46,0,0,1,3.39,1.21,5,5,0,0,1,1.16,3.6v8.79a5.73,5.73,0,0,1-1.16,3.85,4.21,4.21,0,0,1-3.39,1.35A4.21,4.21,0,0,1,1.32,44.5ZM5.38,42a3.27,3.27,0,0,0,.17-1.21v-9a2.44,2.44,0,0,0-.16-1,.63.63,0,0,0-.65-.38c-.62,0-.93.47-.93,1.4v9A2.94,2.94,0,0,0,4,42.06a.71.71,0,0,0,.71.4A.64.64,0,0,0,5.38,42Zm5.38,3.65V27.23h7.39v3.59H14.47v2.94H18v3.55H14.47v8.38Z"/>
        <path id="_8-4" data-name="8-4" d="M25.37,44.5a5.72,5.72,0,0,1-1.16-3.84V31.87a5,5,0,0,1,1.16-3.6,4.46,4.46,0,0,1,3.39-1.21,4.48,4.48,0,0,1,3.4,1.21,5,5,0,0,1,1.16,3.6v8.79a5.78,5.78,0,0,1-1.16,3.85,4.24,4.24,0,0,1-3.4,1.35A4.19,4.19,0,0,1,25.37,44.5ZM29.43,42a3.5,3.5,0,0,0,.17-1.21v-9a2.44,2.44,0,0,0-.16-1,.65.65,0,0,0-.65-.38c-.62,0-.93.47-.93,1.4v9a3.15,3.15,0,0,0,.19,1.21.72.72,0,0,0,.71.4A.66.66,0,0,0,29.43,42Zm6.26,2.53a5.76,5.76,0,0,1-1.1-3.82V27.23h3.59V40.6A4.2,4.2,0,0,0,38.35,42a.79.79,0,0,0,1.46,0A4.43,4.43,0,0,0,40,40.6V27.23h3.59V40.75a5.71,5.71,0,0,1-1.11,3.82,4.19,4.19,0,0,1-3.38,1.29A4.23,4.23,0,0,1,35.69,44.57ZM45,27.23h5.67a3.21,3.21,0,0,1,2.1.61,3.06,3.06,0,0,1,1,1.72A12.92,12.92,0,0,1,54,32.39a6,6,0,0,1-.41,2.45,2.34,2.34,0,0,1-1.42,1.22,1.7,1.7,0,0,1,1.21.84,3.65,3.65,0,0,1,.38,1.8l0,7H50.13V38.47c0-.52-.1-.85-.31-1a2,2,0,0,0-1.09-.22v8.43H45Zm4.64,6.83c.52,0,.78-.56.78-1.67a7.06,7.06,0,0,0-.07-1.1.82.82,0,0,0-.24-.51.77.77,0,0,0-.49-.13h-.86v3.41Z"/>
        <path id="_8-5" data-name="8-5" d="M62.41,43.7,66.59.4H81.26l4.13,43.3H77.18l-.61-7H71.33l-.5,7ZM72,29.79h3.93L74,7.76h-.4ZM88,.4H100q4.64,0,7,2.57c1.55,1.72,2.34,4.25,2.37,7.61l.1,20.27q.06,6.39-2.21,9.62T99.66,43.7H88ZM98.24,36a2.08,2.08,0,0,0,2.37-2.32V11.39a8,8,0,0,0-.22-2.19,1.45,1.45,0,0,0-.84-1A5,5,0,0,0,97.69,8h-1V36Zm18.6,7.66L111.5.35h8.27l3.17,29.49L125.76.35H134L128.69,43.7Zm19.66,0V.4h17.34V8.77h-8.52v8.42h8.16v8.16h-8.16v9.93h9.07V43.7Zm20.76,0V.4h8.92l4,20.72V.4h8.36V43.7h-8.47L165.73,22V43.7Zm28.83,0v-35H181V.4h19V8.72h-5.14v35Zm18.32-2.62q-2.59-3-2.59-9V.4h8.41V31.75a10.14,10.14,0,0,0,.41,3.23,1.85,1.85,0,0,0,3.42,0,10.07,10.07,0,0,0,.41-3.25V.4h8.41V32.11q0,5.94-2.59,9t-7.94,3Q207,44.1,204.41,41.08ZM226.21.4h13.31a7.5,7.5,0,0,1,4.91,1.44,7.12,7.12,0,0,1,2.34,4,29.55,29.55,0,0,1,.61,6.63,14,14,0,0,1-1,5.75,5.42,5.42,0,0,1-3.32,2.87,4,4,0,0,1,2.84,2,8.65,8.65,0,0,1,.89,4.24l-.11,16.38h-8.46V26.76c0-1.21-.24-2-.71-2.32a4.76,4.76,0,0,0-2.57-.5V43.7h-8.77Zm10.89,16c1.21,0,1.81-1.31,1.81-3.93a16.18,16.18,0,0,0-.15-2.57,1.92,1.92,0,0,0-.55-1.19,1.86,1.86,0,0,0-1.16-.32h-2v8ZM250.25,43.7V.4h17.34V8.77h-8.52v8.42h8.17v8.16h-8.17v9.93h9.07V43.7Zm22.53-2.52q-2.62-2.93-2.62-9.43V27.52h8.52v5.39c0,2.15.69,3.23,2.06,3.23a1.82,1.82,0,0,0,1.62-.68,4.37,4.37,0,0,0,.45-2.3,10.55,10.55,0,0,0-.5-3.5A7.79,7.79,0,0,0,281,27.34c-.52-.62-1.45-1.59-2.8-2.9l-3.73-3.73a12.85,12.85,0,0,1-4.33-9.37q0-5.55,2.54-8.44T280.14,0c3.9,0,6.7,1,8.42,3.1s2.57,5.3,2.57,9.7h-8.82l-.06-3a1.88,1.88,0,0,0-.47-1.36A1.76,1.76,0,0,0,280.44,8a1.93,1.93,0,0,0-1.51.56,2.14,2.14,0,0,0-.51,1.51q0,2.12,2.42,4.38l5,4.84a30.31,30.31,0,0,1,2.93,3.25,12.93,12.93,0,0,1,1.86,3.63,15.62,15.62,0,0,1,.71,5q0,6.4-2.35,9.7t-7.73,3.3Q275.4,44.1,272.78,41.18Z"/>
        <path id="_8-6" data-name="8-6" d="M1.43,48.78h9.62a7.21,7.21,0,0,1,3.55.72,3.58,3.58,0,0,1,1.7,2,10.55,10.55,0,0,1,.43,3.31A5.14,5.14,0,0,1,16,57.7a3.78,3.78,0,0,1-2.4,1.44,3.12,3.12,0,0,1,2.06,1,3.26,3.26,0,0,1,.63,2.11l-.07,8.19H10.14V62c0-.61-.17-1-.51-1.16a4.66,4.66,0,0,0-1.86-.25v9.87H1.43Zm7.87,8c.88,0,1.31-.65,1.31-2a5.28,5.28,0,0,0-.11-1.29.87.87,0,0,0-.4-.59,1.7,1.7,0,0,0-.83-.16H7.81v4Zm9.22,13.63V48.78h6.05V70.42Zm10.36-1.28a4.77,4.77,0,0,1-2.06-4.08v-10a6.13,6.13,0,0,1,1.86-4.86q1.86-1.63,5.83-1.64a10.46,10.46,0,0,1,5.57,1.31,4.19,4.19,0,0,1,2.12,3.78V57.4H36V54.2a1.92,1.92,0,0,0-.33-1.29,1.53,1.53,0,0,0-1.13-.35,1.41,1.41,0,0,0-1.15.4,2,2,0,0,0-.31,1.19V65a1.74,1.74,0,0,0,.37,1.24,1.41,1.41,0,0,0,1.09.39c1,0,1.46-.54,1.46-1.63V61.1h6.3v4.08q0,5.44-7.91,5.44A9.17,9.17,0,0,1,28.88,69.14Zm15.47,1.28V48.78h6.19v8.67l2.91-8.67h6.31l-3.5,9.9,4.22,11.74H54L50.58,59.94V70.42Z"/>
        <path id="_8-7" data-name="8-7" d="M69.23,70.42l3-21.64h10.6l3,21.64H79.9l-.44-3.5H75.67l-.36,3.5Zm6.92-7H79l-1.38-11h-.3Zm11.58,7V48.78h6.45l2.88,10.36V48.78h6V70.42H97L93.85,59.59V70.42Zm18.14-21.64h8.64a8.14,8.14,0,0,1,5,1.29,4.58,4.58,0,0,1,1.72,3.8L121.32,64a6.39,6.39,0,0,1-1.6,4.81q-1.65,1.6-5.43,1.61h-8.42Zm7.4,17.81c1.14,0,1.71-.38,1.71-1.16V54.27a2.78,2.78,0,0,0-.16-1.09.88.88,0,0,0-.6-.49,5.07,5.07,0,0,0-1.35-.13h-.69v14Z"/>
        <path id="_8-9" data-name="8-9" d="M132.06,70.42V48.78h6.05V70.42Z"/>
        <path id="_8-10" data-name="8-10" d="M149.15,48.78h8.49a8.4,8.4,0,0,1,5,1.16,4.41,4.41,0,0,1,1.55,3.78v1a3.46,3.46,0,0,1-3.21,3.7A3.86,3.86,0,0,1,163.72,60a6.29,6.29,0,0,1,.8,3.4A7.94,7.94,0,0,1,163,68.65c-1,1.18-2.79,1.77-5.39,1.77h-8.49Zm7.39,8.14a1.26,1.26,0,0,0,1.1-.42,2,2,0,0,0,.29-1.17V53.17c0-.71-.45-1.06-1.35-1.06h-1.31v4.81ZM158.33,65v-2.7a2.3,2.3,0,0,0-.42-1.49,1.85,1.85,0,0,0-1.47-.5h-1.17v6.27l.62,0C157.52,66.62,158.33,66.08,158.33,65Zm7.43,5.41,3-21.64h10.6l3,21.64h-5.94l-.43-3.5h-3.79l-.37,3.5Zm6.92-7h2.84l-1.38-11h-.29Zm12.86,5.69q-1.89-1.45-1.89-4.71V62.34h6.15V65c0,1.08.5,1.61,1.5,1.61a1.56,1.56,0,0,0,1.16-.34,1.6,1.6,0,0,0,.33-1.14,3.76,3.76,0,0,0-.36-1.75,3.84,3.84,0,0,0-.93-1.16c-.38-.31-1.05-.8-2-1.45l-2.7-1.87q-3.14-2.11-3.13-4.68A5,5,0,0,1,185.49,50a8.49,8.49,0,0,1,5.37-1.45q4.23,0,6.08,1.55A6,6,0,0,1,198.8,55h-6.37l0-1.49a.81.81,0,0,0-.35-.68,1.66,1.66,0,0,0-1-.25,1.73,1.73,0,0,0-1.09.28.87.87,0,0,0-.37.75c0,.71.58,1.44,1.75,2.2L195,58.2a18.37,18.37,0,0,1,2.12,1.63,6.18,6.18,0,0,1,1.34,1.81,5.63,5.63,0,0,1,.51,2.48A6.46,6.46,0,0,1,197.29,69q-1.69,1.65-5.59,1.65C188.86,70.62,186.8,70.14,185.54,69.16Zm15.23,1.26V48.78h6V70.42Zm10.36-1.28a4.77,4.77,0,0,1-2.06-4.08v-10a6.13,6.13,0,0,1,1.86-4.86q1.86-1.63,5.83-1.64a10.48,10.48,0,0,1,5.57,1.31,4.19,4.19,0,0,1,2.12,3.78V57.4h-6.23V54.2a1.92,1.92,0,0,0-.33-1.29,1.53,1.53,0,0,0-1.13-.35,1.41,1.41,0,0,0-1.15.4,2,2,0,0,0-.31,1.19V65a1.74,1.74,0,0,0,.37,1.24,1.41,1.41,0,0,0,1.09.39c1,0,1.46-.54,1.46-1.63V61.1h6.3v4.08q0,5.44-7.91,5.44A9.17,9.17,0,0,1,211.13,69.14Zm14.63,1.28,3-21.64h10.6l3,21.64h-5.94l-.43-3.5h-3.79l-.37,3.5Zm6.92-7h2.84l-1.38-11h-.29Zm11.58,7V48.78h6.27v18H257v3.68Zm14.47,0V48.78H265v18h6.45v3.68Zm18.25,0V63.29l-5-14.51h6.19l1.75,7.33,1.75-7.33h6.19l-5,14.51v7.13Z"/>
        <path id="_8-11" data-name="8-11" d="M.94,78.76H14.08q5.1,0,7.65,3.59T24.34,93l.11,28.25q.06,8.92-2.44,13.43t-8.26,4.49H.94ZM12.2,128.45c1.73,0,2.6-1.07,2.6-3.23V94.09A13.65,13.65,0,0,0,14.55,91a1.94,1.94,0,0,0-.91-1.37,4.52,4.52,0,0,0-2.05-.35H10.53v39.14Zm16.07,10.68V78.76H47.34V90.43H38v11.74h9v11.38H38V127.4H48v11.73Zm24.78-3.51q-2.88-4.08-2.88-13.14v-5.91h9.37v7.52q0,4.5,2.27,4.5a1.82,1.82,0,0,0,1.78-1,7.37,7.37,0,0,0,.5-3.19,18.06,18.06,0,0,0-.56-4.89,11.8,11.8,0,0,0-1.41-3.23c-.57-.87-1.6-2.21-3.08-4l-4.1-5.2A20.33,20.33,0,0,1,50.17,94q0-7.74,2.8-11.78a9.33,9.33,0,0,1,8.18-4q6.43,0,9.26,4.32t2.82,13.53h-9.7l-.05-4.14A3.1,3.1,0,0,0,63,90a1.72,1.72,0,0,0-1.47-.7,1.89,1.89,0,0,0-1.66.77,3.57,3.57,0,0,0-.56,2.11,9.66,9.66,0,0,0,2.66,6.11l5.55,6.75a38.5,38.5,0,0,1,3.21,4.53,20,20,0,0,1,2.06,5.06,27.53,27.53,0,0,1,.77,6.92q0,8.94-2.58,13.53t-8.51,4.61Q55.94,139.7,53.05,135.62Zm27.72,3.51V90.36H75.12V78.76H96v11.6H90.31v48.77ZM98.62,78.76h14.64a7.12,7.12,0,0,1,5.41,2,10.74,10.74,0,0,1,2.57,5.62,51.94,51.94,0,0,1,.67,9.24,24.23,24.23,0,0,1-1,8,6.66,6.66,0,0,1-3.66,4,4.58,4.58,0,0,1,3.13,2.74,14.7,14.7,0,0,1,1,5.9l-.11,22.84h-9.32V115.52c0-1.69-.25-2.76-.77-3.23a4.27,4.27,0,0,0-2.83-.71v27.55H98.62Zm12,22.35c1.33,0,2-1.82,2-5.48a28.2,28.2,0,0,0-.17-3.58,3,3,0,0,0-.61-1.65,1.69,1.69,0,0,0-1.28-.46h-2.21v11.17Zm17.07,34.12q-3-4.46-3-12.54V93.94q0-7.8,3-11.77t8.76-4q5.77,0,8.76,4t3,11.77v28.75q0,8.16-3,12.58a10.85,10.85,0,0,1-17.52,0Zm10.48-8a13.51,13.51,0,0,0,.45-3.94V93.73a10.06,10.06,0,0,0-.42-3.19,1.65,1.65,0,0,0-1.69-1.23q-2.38,0-2.38,4.56v29.45a12,12,0,0,0,.49,3.94,1.84,1.84,0,0,0,1.83,1.33A1.71,1.71,0,0,0,138.15,127.19Zm19.63,11.94V119.25l-7.6-40.49h9.43l2.66,20.46,2.66-20.46h9.42l-7.59,40.49v19.88Zm19,0V78.76h19.07V90.43h-9.37v11.74h9v11.38h-9V127.4h10v11.73Zm22.84-60.37h13.14q5.1,0,7.65,3.59T223,93l.11,28.25q.06,8.92-2.44,13.43t-8.26,4.49h-12.8Zm11.25,49.69c1.74,0,2.61-1.07,2.61-3.23V94.09a14.28,14.28,0,0,0-.25-3.06,2,2,0,0,0-.92-1.37,4.47,4.47,0,0,0-2.05-.35h-1.05v39.14Z"/>
        <path id="boom" d="M283.86,132.4a1.62,1.62,0,0,1-1.61,1.62H230.39a1.62,1.62,0,0,1,0-3.23H240l-1.25-2.51a1.61,1.61,0,0,1,1.54-2.33l5.13.3-2-4.62a1.62,1.62,0,0,1,2.12-2.12l6.73,2.88,2.6-5.23a1.62,1.62,0,0,1,1.45-.89,1.6,1.6,0,0,1,1.44.89l2.61,5.23,6.72-2.88a1.61,1.61,0,0,1,2.12,2.12l-2,4.62,5.13-.3a1.62,1.62,0,0,1,1.54,2.33l-1.25,2.51h9.6A1.61,1.61,0,0,1,283.86,132.4Zm-47-30.87h0a8.09,8.09,0,0,0,9.63,2.58,14.23,14.23,0,0,0,8.19,3.78v-1.52a1.62,1.62,0,1,1,3.23,0v1.52a14.25,14.25,0,0,0,8.2-3.78,8.09,8.09,0,0,0,9.63-2.58h0a8.07,8.07,0,0,0,0-16.14h0a8.08,8.08,0,0,0-9.63-2.59,14.37,14.37,0,0,0-19.62,0,8.08,8.08,0,0,0-9.63,2.59h0a8.07,8.07,0,1,0,0,16.14Zm8.94,6.18-.13,0,1.24,8.84,3.84,1.64,1.24-2.5a4.85,4.85,0,0,1,8.67,0l1.25,2.5,3.83-1.64,1.25-8.84-.13,0a17.59,17.59,0,0,1-21.06,0Z"/>
        <path id="_8-12" data-name="8-12" d="M4.41,172.92V149.33H0v-5.61H16.26v5.61H11.85v23.59Zm13.93,0v-29.2h7.4v10.44h3.5V143.72h7.4v29.2h-7.4V159.66h-3.5v13.26Zm21.58,0v-29.2H54.8v5.65H47.49V155h7v5.51h-7v6.69h7.79v5.68Z"/>
        <path id="_8-13" data-name="8-13" d="M70.76,172.92l-4-29.2h7.27l2.08,18.42,2.07-18.42h6.92l2,18.42,2-18.42h7.36l-4.07,29.2H83.48l-1.86-14.07-1.77,14.07Zm27.9,0v-29.2h7.4v10.44h3.5V143.72H117v29.2h-7.4V159.66h-3.5v13.26ZM122.28,171a7.84,7.84,0,0,1-2.34-6.06V151.06a6.94,6.94,0,0,1,2.34-5.69q2.32-1.92,6.83-1.92t6.84,1.92a7,7,0,0,1,2.33,5.69V165a7.87,7.87,0,0,1-2.33,6.08q-2.34,2.14-6.84,2.14T122.28,171Zm8.17-3.89a4.26,4.26,0,0,0,.35-1.9V151a3.14,3.14,0,0,0-.33-1.54,1.35,1.35,0,0,0-1.32-.6c-1.24,0-1.86.74-1.86,2.21v14.24a3.72,3.72,0,0,0,.39,1.9,1.52,1.52,0,0,0,1.43.65A1.37,1.37,0,0,0,130.45,167.14Zm10.82,5.78v-29.2h7.44V168h7.65v5Zm17.17,0v-29.2h14.88v5.65H166V155h7v5.51h-7v6.69h7.78v5.68Z"/>
        <path id="_8-14" data-name="8-14" d="M189.28,172.92l-4-29.2h7.26l2.08,18.42,2.08-18.42h6.92l2,18.42,2-18.42H215l-4.07,29.2H202l-1.86-14.07-1.77,14.07ZM219.21,171a7.84,7.84,0,0,1-2.34-6.06V151.06a6.94,6.94,0,0,1,2.34-5.69q2.32-1.92,6.83-1.92t6.84,1.92a7,7,0,0,1,2.33,5.69V165a7.87,7.87,0,0,1-2.33,6.08q-2.34,2.14-6.84,2.14T219.21,171Zm8.17-3.89a4.26,4.26,0,0,0,.35-1.9V151a3.14,3.14,0,0,0-.33-1.54,1.35,1.35,0,0,0-1.32-.6c-1.24,0-1.85.74-1.85,2.21v14.24a3.84,3.84,0,0,0,.38,1.9,1.52,1.52,0,0,0,1.43.65A1.36,1.36,0,0,0,227.38,167.14Zm10.82-23.42h11.42a7.76,7.76,0,0,1,4.21,1,4.7,4.7,0,0,1,2,2.72,15.93,15.93,0,0,1,.52,4.47,7.6,7.6,0,0,1-.82,3.87,4.45,4.45,0,0,1-2.85,1.94,3.54,3.54,0,0,1,2.44,1.33,4.82,4.82,0,0,1,.76,2.85l-.09,11h-7.27V161.5q0-1.23-.6-1.56a4.93,4.93,0,0,0-2.21-.34v13.32H238.2Zm9.34,10.81c1,0,1.56-.88,1.56-2.65a9,9,0,0,0-.13-1.73,1.22,1.22,0,0,0-.48-.8,1.82,1.82,0,0,0-1-.22h-1.73v5.4Zm11.29,18.39v-29.2h7.44V168h7.65v5ZM276,143.72h10.25q4,0,6,1.74a6.53,6.53,0,0,1,2,5.13l.09,13.66c0,2.88-.61,5-1.9,6.49s-3.45,2.18-6.45,2.18H276Zm8.78,24c1.35,0,2-.52,2-1.56V151.13a4.31,4.31,0,0,0-.19-1.48,1.1,1.1,0,0,0-.72-.66,5.63,5.63,0,0,0-1.6-.17h-.82v18.93Z"/>
        <path id="_8-15" data-name="8-15" d="M5.35,199.43Q4,198,4,194.68v-2.13h4.3v2.72c0,1.08.34,1.62,1,1.62a.89.89,0,0,0,.81-.34,2.2,2.2,0,0,0,.23-1.16,5.15,5.15,0,0,0-.26-1.76,3.62,3.62,0,0,0-.64-1.17c-.27-.31-.74-.8-1.41-1.46l-1.88-1.88A6.5,6.5,0,0,1,4,184.39a6.32,6.32,0,0,1,1.28-4.26,4.75,4.75,0,0,1,3.75-1.46,5.21,5.21,0,0,1,4.25,1.57,7.61,7.61,0,0,1,1.29,4.89H10.15l0-1.5a1,1,0,0,0-.24-.69.89.89,0,0,0-.68-.25,1,1,0,0,0-.76.28,1.07,1.07,0,0,0-.25.76,3.14,3.14,0,0,0,1.22,2.21L12,188.38A14.82,14.82,0,0,1,13.43,190a6.32,6.32,0,0,1,.94,1.83,7.76,7.76,0,0,1,.36,2.5,8.48,8.48,0,0,1-1.18,4.89,4.46,4.46,0,0,1-3.9,1.67C7.66,200.91,6.23,200.42,5.35,199.43Zm12-.14A6.79,6.79,0,0,1,16,194.76V184.37a6,6,0,0,1,1.37-4.26,5.3,5.3,0,0,1,4-1.44,5.27,5.27,0,0,1,4,1.44,5.91,5.91,0,0,1,1.37,4.26v10.39a6.78,6.78,0,0,1-1.37,4.55,5,5,0,0,1-4,1.6A5,5,0,0,1,17.37,199.29Zm4.8-2.91a3.79,3.79,0,0,0,.21-1.42V184.29a3.12,3.12,0,0,0-.19-1.16.77.77,0,0,0-.78-.44c-.73,0-1.09.55-1.09,1.65V195a3.49,3.49,0,0,0,.23,1.42.84.84,0,0,0,.84.48A.76.76,0,0,0,22.17,196.38Z"/>
        <path id="_8-16" data-name="8-16" d="M36.18,200.7l-2.34-21.82h4.27l1.22,13.77,1.22-13.77h4.06l1.17,13.77L47,178.88h4.32L48.88,200.7H43.65l-1.1-10.52-1,10.52Zm16.39,0V178.88h8.74v4.21H57v4.25h4.12v4.12H57v5h4.58v4.24Z"/>
        <path id="_8-17" data-name="8-17" d="M69,178.88H74.9a4.53,4.53,0,0,1,3.47,1.17,5.51,5.51,0,0,1,1.08,3.81v1c0,2.09-.75,3.33-2.24,3.74a2.75,2.75,0,0,1,1.93,1.65,8.65,8.65,0,0,1,.56,3.43,10.6,10.6,0,0,1-1,5.27,4,4,0,0,1-3.76,1.79H69Zm5.16,8.2a.77.77,0,0,0,.76-.41,2.74,2.74,0,0,0,.2-1.19V183.3c0-.71-.31-1.07-.94-1.07h-.91v4.85Zm1.24,8.16v-2.72a3,3,0,0,0-.29-1.5,1.08,1.08,0,0,0-1-.51h-.81v6.33l.43,0C74.82,196.87,75.38,196.33,75.38,195.24Zm5.19,5.46,2.11-21.82h7.39l2.09,21.82H88l-.3-3.53H85.07l-.26,3.53Zm4.83-7h2l-1-11.1h-.2Zm7.87,7V178.88h4.22V200.7Zm6,0V178.88h4.37V197h4.5v3.71Zm10.09,0V178.88h8.74v4.21h-4.29v4.25h4.12v4.12h-4.12v5h4.57v4.24Zm10.47-21.82h6a4.5,4.5,0,0,1,3.51,1.29,5.64,5.64,0,0,1,1.19,3.84l.06,10.21a8.42,8.42,0,0,1-1.12,4.86,4.33,4.33,0,0,1-3.79,1.62H119.8Zm5.16,18a1,1,0,0,0,1.19-1.17V184.42a3.89,3.89,0,0,0-.11-1.11.79.79,0,0,0-.42-.5,2.74,2.74,0,0,0-.94-.12h-.48v14.15Z"/>
        <path id="_8-18" data-name="8-18" d="M139.47,199.29a6.74,6.74,0,0,1-1.37-4.53V184.37a5.91,5.91,0,0,1,1.37-4.26,6.32,6.32,0,0,1,8,0,6,6,0,0,1,1.37,4.26v10.39a6.83,6.83,0,0,1-1.37,4.55,5,5,0,0,1-4,1.6A5,5,0,0,1,139.47,199.29Zm4.8-2.91a3.79,3.79,0,0,0,.21-1.42V184.29a3.12,3.12,0,0,0-.19-1.16.77.77,0,0,0-.78-.44c-.73,0-1.09.55-1.09,1.65V195a3.32,3.32,0,0,0,.23,1.42.84.84,0,0,0,.83.48A.77.77,0,0,0,144.27,196.38Zm6.36,4.32V178.88h4.49l2,10.44V178.88h4.22V200.7h-4.27l-2.19-10.92V200.7Z"/>
        <path id="_8-19" data-name="8-19" d="M171.1,200.7V183.07h-2.59v-4.19h9.56v4.19h-2.59V200.7Zm8.19,0V178.88h4.34v7.8h2.06v-7.8H190V200.7h-4.35v-9.91h-2.06v9.91Zm12.09,0,2.11-21.82h7.4L203,200.7h-4.14l-.31-3.53h-2.64l-.25,3.53Zm4.83-7h2l-1-11.1H197Zm10,7V183.07h-2.59v-4.19h9.55v4.19h-2.59V200.7Z"/>
        <path id="_8-20" data-name="8-20" d="M220.3,178.88H227a3.82,3.82,0,0,1,2.48.72,3.65,3.65,0,0,1,1.18,2A15.46,15.46,0,0,1,231,185a7,7,0,0,1-.48,2.89,2.69,2.69,0,0,1-1.68,1.45,2.06,2.06,0,0,1,1.44,1,4.46,4.46,0,0,1,.44,2.14l-.05,8.25h-4.27v-8.53c0-.61-.12-1-.35-1.17a2.36,2.36,0,0,0-1.3-.26v10H220.3Zm5.49,8.08c.61,0,.91-.66.91-2a8.4,8.4,0,0,0-.07-1.3,1,1,0,0,0-.28-.6.92.92,0,0,0-.59-.16h-1v4Zm6.63,13.74V178.88h8.74v4.21h-4.29v4.25H241v4.12h-4.11v5h4.57v4.24Zm9.89,0,2.11-21.82h7.39l2.08,21.82h-4.14l-.3-3.53H246.8l-.25,3.53Zm4.82-7h2l-1-11.1H248Zm8.08,7V178.88h4.37V197h4.5v3.71Zm9.89,0V178.88h4.22V200.7Zm7.85,0V183.07h-2.59v-4.19h9.55v4.19h-2.59V200.7Zm10.83,0v-7.19l-3.49-14.63h4.32l1.22,7.39,1.22-7.39h4.32l-3.48,14.63v7.19Z"/>
        <path id="_8-21" data-name="8-21" d="M4.39,225.1,6.21,206H12.6l1.8,19.12H10.82L10.56,222H8.27l-.22,3.09ZM8.56,219h1.71l-.83-9.73H9.26Zm7,6.14V206h3.88l1.74,9.15V206H24.8V225.1H21.11l-1.88-9.57v9.57ZM26.47,206h5.2a3.84,3.84,0,0,1,3,1.14,5,5,0,0,1,1,3.36l0,9a7.33,7.33,0,0,1-1,4.25,3.69,3.69,0,0,1-3.27,1.42H26.47Zm4.45,15.74a.9.9,0,0,0,1-1v-9.87a3.77,3.77,0,0,0-.09-1,.66.66,0,0,0-.37-.44,2.26,2.26,0,0,0-.81-.11h-.42v12.4Z"/>
        <path id="_8-22" data-name="8-22" d="M43.89,225.1l-2-19.12h3.69l1,12.07L47.67,206h3.51l1,12.07,1-12.07h3.73L54.87,225.1H50.35l-1-9.21-.9,9.21Zm14.16,0V206H65.6v3.7H61.89v3.71h3.55V217H61.89v4.39h4v3.71Z"/>
        <path id="_8-23" data-name="8-23" d="M73.31,224a5.09,5.09,0,0,1-1.24-3.61v-8.81a7,7,0,0,1,1.12-4.3,4.18,4.18,0,0,1,3.51-1.45A4.82,4.82,0,0,1,80.06,207a4.28,4.28,0,0,1,1.27,3.34v3.3H77.58v-2.83a2.22,2.22,0,0,0-.2-1.14.76.76,0,0,0-.68-.31.72.72,0,0,0-.69.36,2.37,2.37,0,0,0-.18,1v9.6a2.2,2.2,0,0,0,.21,1.1.74.74,0,0,0,.66.35c.59,0,.88-.49.88-1.45v-3.45h3.8v3.6q0,4.82-4.76,4.81A4.36,4.36,0,0,1,73.31,224Zm8.81,1.13L84,206h6.38l1.8,19.12H88.55L88.29,222H86l-.22,3.09ZM86.29,219H88l-.84-9.73H87Zm7,6.14V206H99l1.58,11.67L102.18,206H108V225.1h-3.45V211.32l-2.17,13.78H99l-2.31-13.78V225.1Zm16.37,0V206h7.55v3.7h-3.7v3.71H117V217h-3.55v4.39h4v3.71Z"/>
        <path id="_8-24" data-name="8-24" d="M125.45,225.1V209.66h-2.24V206h8.25v3.68h-2.24V225.1Zm8.09-1.23a6,6,0,0,1-1.18-4v-9.11a5.25,5.25,0,0,1,1.18-3.73,5.41,5.41,0,0,1,6.94,0,5.25,5.25,0,0,1,1.18,3.73v9.11a6,6,0,0,1-1.18,4,5,5,0,0,1-6.94,0Zm4.15-2.55a3.45,3.45,0,0,0,.18-1.25v-9.35a2.62,2.62,0,0,0-.17-1,.65.65,0,0,0-.67-.39c-.63,0-.94.48-.94,1.45v9.33a3.07,3.07,0,0,0,.2,1.24.72.72,0,0,0,.72.43A.66.66,0,0,0,137.69,221.32Z"/>
        <path id="_8-25" data-name="8-25" d="M149.94,225.1V209.66H147.7V206H156v3.68h-2.24V225.1Zm7.06,0V206h3.76v6.84h1.78V206h3.75V225.1h-3.75v-8.68h-1.78v8.68Zm10.78,0V206h3.64V225.1Zm5.93-1.11a6.21,6.21,0,0,1-1.14-4.16V218h3.7v2.38c0,.95.3,1.43.9,1.43a.77.77,0,0,0,.71-.31,1.93,1.93,0,0,0,.19-1,4.59,4.59,0,0,0-.22-1.55,3.32,3.32,0,0,0-.56-1c-.22-.27-.63-.7-1.21-1.28L174.45,215a5.68,5.68,0,0,1-1.88-4.14,5.56,5.56,0,0,1,1.1-3.73,4.07,4.07,0,0,1,3.24-1.28,4.49,4.49,0,0,1,3.67,1.37,6.78,6.78,0,0,1,1.12,4.29h-3.85l0-1.32a.84.84,0,0,0-.21-.6.77.77,0,0,0-.58-.22.83.83,0,0,0-.66.25,1,1,0,0,0-.21.66,2.79,2.79,0,0,0,1.05,1.94l2.19,2.14a13.13,13.13,0,0,1,1.28,1.43,6.07,6.07,0,0,1,.81,1.61,7.07,7.07,0,0,1,.3,2.19,7.45,7.45,0,0,1-1,4.28,3.79,3.79,0,0,1-3.36,1.46A4.71,4.71,0,0,1,173.71,224Z"/>
        <path id="_8-26" data-name="8-26" d="M189.22,223.87a6,6,0,0,1-1.18-4v-9.11a5.25,5.25,0,0,1,1.18-3.73,5.41,5.41,0,0,1,6.94,0,5.25,5.25,0,0,1,1.18,3.73v9.11a6,6,0,0,1-1.18,4,5,5,0,0,1-6.94,0Zm4.15-2.55a3.45,3.45,0,0,0,.18-1.25v-9.35a2.62,2.62,0,0,0-.17-1,.65.65,0,0,0-.67-.39c-.63,0-.94.48-.94,1.45v9.33a2.91,2.91,0,0,0,.2,1.24.72.72,0,0,0,.72.43A.67.67,0,0,0,193.37,221.32Zm5.49,3.78V206h3.88l1.74,9.15V206h3.64V225.1h-3.69l-1.89-9.57v9.57Zm10.93,0V206h7.55v3.7h-3.71v3.71h3.55V217h-3.55v4.39h4v3.71Z"/>
        <path id="_8-27" data-name="8-27" d="M224,206h5.12a3.84,3.84,0,0,1,3,1,4.83,4.83,0,0,1,.94,3.34v.84c0,1.83-.65,2.92-1.94,3.27a2.39,2.39,0,0,1,1.67,1.45,7.84,7.84,0,0,1,.49,3,9.49,9.49,0,0,1-.9,4.62,3.44,3.44,0,0,1-3.25,1.56H224Zm4.46,7.19a.66.66,0,0,0,.66-.37,2.56,2.56,0,0,0,.17-1v-1.91c0-.63-.27-.94-.81-.94h-.79v4.25Zm1.07,7.15v-2.38a2.74,2.74,0,0,0-.25-1.32.94.94,0,0,0-.89-.44h-.7v5.54l.37,0C229,221.74,229.49,221.27,229.49,220.32Zm5,4.78V206H242v3.7h-3.71v3.71h3.55V217h-3.55v4.39h4v3.71ZM244.6,224a5.09,5.09,0,0,1-1.24-3.61v-8.81a7,7,0,0,1,1.12-4.3A4.19,4.19,0,0,1,248,205.8a4.81,4.81,0,0,1,3.35,1.16,4.29,4.29,0,0,1,1.28,3.34v3.3h-3.76v-2.83a2.22,2.22,0,0,0-.2-1.14.74.74,0,0,0-.67-.31.72.72,0,0,0-.7.36,2.37,2.37,0,0,0-.18,1v9.6a2.08,2.08,0,0,0,.22,1.1.72.72,0,0,0,.66.35c.58,0,.87-.49.87-1.45v-3.45h3.8v3.6q0,4.82-4.76,4.81A4.36,4.36,0,0,1,244.6,224Zm8.82,1.13L255.24,206h6.38l1.8,19.12h-3.57l-.27-3.09H257.3l-.22,3.09Zm4.16-6.14h1.72l-.84-9.73h-.17Zm7.9,5a6,6,0,0,1-1.14-4V206H268v13.85a4.41,4.41,0,0,0,.18,1.42.71.71,0,0,0,.74.52.72.72,0,0,0,.75-.51,4.75,4.75,0,0,0,.17-1.43V206h3.67v14a6,6,0,0,1-1.13,4,5.15,5.15,0,0,1-6.91,0Zm10.26,0a6.16,6.16,0,0,1-1.15-4.16V218h3.71v2.38c0,.95.3,1.43.9,1.43a.78.78,0,0,0,.71-.31,1.93,1.93,0,0,0,.19-1,4.59,4.59,0,0,0-.22-1.55,3.32,3.32,0,0,0-.56-1c-.22-.27-.63-.7-1.21-1.28L276.48,215a5.7,5.7,0,0,1-1.89-4.14,5.56,5.56,0,0,1,1.11-3.73,4.07,4.07,0,0,1,3.24-1.28,4.46,4.46,0,0,1,3.66,1.37,6.71,6.71,0,0,1,1.12,4.29h-3.84l0-1.32a.84.84,0,0,0-.21-.6.78.78,0,0,0-.58-.22.83.83,0,0,0-.66.25,1,1,0,0,0-.22.66,2.77,2.77,0,0,0,1.06,1.94l2.19,2.14a12,12,0,0,1,1.27,1.43,5.8,5.8,0,0,1,.82,1.61,7.07,7.07,0,0,1,.3,2.19,7.45,7.45,0,0,1-1,4.28,3.8,3.8,0,0,1-3.37,1.46A4.7,4.7,0,0,1,275.74,224Zm9.34,1.11V206h7.55v3.7h-3.71v3.71h3.56V217h-3.56v4.39h4v3.71Z"/>
        <path id="_8-28" data-name="8-28" d="M4.18,260.6V230h5.91V260.6Zm8.37,0V230h6.3l2.81,14.63V230h5.91V260.6h-6l-3.06-15.31V260.6Z"/>
        <path id="_8-29" data-name="8-29" d="M41.24,260.6V235.89H37.61V230H51v5.87H47.36V260.6Zm11.46,0V230h6.09V241h2.88V230h6.09V260.6H61.67V246.72H58.79V260.6Zm17.48,0V230h5.91V260.6Zm9.61-1.78q-1.85-2.06-1.85-6.66v-3h6V253c0,1.52.49,2.28,1.46,2.28a1.28,1.28,0,0,0,1.14-.48,3.08,3.08,0,0,0,.32-1.62,7.2,7.2,0,0,0-.36-2.47,5.35,5.35,0,0,0-.91-1.64c-.36-.44-1-1.12-2-2.05L81,244.37a9.1,9.1,0,0,1-3.06-6.62,8.8,8.8,0,0,1,1.8-6,6.63,6.63,0,0,1,5.25-2c2.75,0,4.74.73,6,2.18s1.81,3.75,1.81,6.86H86.52l0-2.1a1.34,1.34,0,0,0-.34-1,1.24,1.24,0,0,0-.94-.36,1.36,1.36,0,0,0-1.07.39,1.52,1.52,0,0,0-.36,1.07,4.45,4.45,0,0,0,1.71,3.1l3.56,3.41a20.32,20.32,0,0,1,2.06,2.3,9,9,0,0,1,1.32,2.56,11.12,11.12,0,0,1,.5,3.51q0,4.53-1.66,6.85t-5.46,2.34C83,260.89,81,260.2,79.79,258.82Z"/>
        <path id="_8-30" data-name="8-30" d="M3.81,291.49a8.56,8.56,0,0,1-1.73-5.71V272.7a7.47,7.47,0,0,1,1.73-5.35,6.64,6.64,0,0,1,5-1.81,6.64,6.64,0,0,1,5.05,1.81,7.47,7.47,0,0,1,1.73,5.35v13.08a8.56,8.56,0,0,1-1.73,5.73,6.28,6.28,0,0,1-5.05,2A6.26,6.26,0,0,1,3.81,291.49Zm6-3.66a5,5,0,0,0,.26-1.79V272.61a3.74,3.74,0,0,0-.24-1.46,1,1,0,0,0-1-.56c-.91,0-1.37.7-1.37,2.08v13.4a4.18,4.18,0,0,0,.29,1.79,1,1,0,0,0,1,.61A1,1,0,0,0,9.85,287.83Zm8,5.44V265.79h5.66L26,278.94V265.79h5.31v27.48H26l-2.75-13.76v13.76Zm15.92,0V265.79h11v5.31h-5.4v5.34h5.18v5.19H39.37v6.29h5.76v5.35Z"/>
        <path id="_8-31" data-name="8-31" d="M56.8,293.27v-22.2H53.54v-5.28h12v5.28H62.3v22.2Zm10.29,0V265.79h5.47v9.82h2.59v-9.82h5.47v27.48H75.15V280.79H72.56v12.48Zm16,0V265.79h11v5.31h-5.4v5.34h5.18v5.19H88.65v6.29h5.76v5.35Z"/>
        <path id="_8-32" data-name="8-32" d="M109,294.62l-6.86-63h12.53l3.58,39.72,3.58-39.72h11.93l3.43,39.72,3.43-39.72h12.68l-7,63H130.89l-3.21-30.34-3.06,30.34Zm51.6-4.07q-4-4.65-4-13.08v-30q0-8.15,4-12.28t11.78-4.14q7.75,0,11.79,4.14t4,12.28v30q0,8.5-4,13.12t-11.79,4.62Q164.58,295.21,160.56,290.55Zm14.1-8.39a11.37,11.37,0,0,0,.59-4.1V247.28a8.34,8.34,0,0,0-.56-3.34,2.22,2.22,0,0,0-2.27-1.28q-3.21,0-3.21,4.76v30.71a9.94,9.94,0,0,0,.67,4.11,2.5,2.5,0,0,0,2.46,1.39A2.27,2.27,0,0,0,174.66,282.16Zm18.64-50.49H213c3.14,0,5.56.69,7.27,2.09a10.31,10.31,0,0,1,3.47,5.86,42.69,42.69,0,0,1,.9,9.64,20.05,20.05,0,0,1-1.42,8.35,8,8,0,0,1-4.92,4.18,5.9,5.9,0,0,1,4.21,2.86,12.32,12.32,0,0,1,1.31,6.15l-.15,23.82H211.12V270c0-1.76-.35-2.89-1-3.37a7,7,0,0,0-3.81-.74v28.73h-13ZM209.4,255q2.68,0,2.69-5.71a24.19,24.19,0,0,0-.22-3.74,2.73,2.73,0,0,0-.83-1.72,2.64,2.64,0,0,0-1.71-.48h-3V255Zm19.47,39.65v-63h12.82v52.25h13.2v10.7Zm29.6-63h17.67q6.86,0,10.29,3.73t3.5,11.07l.15,29.46q.07,9.31-3.28,14t-11.11,4.69H258.47Zm15.13,51.81q3.51,0,3.51-3.37V247.64a11,11,0,0,0-.34-3.18,2.1,2.1,0,0,0-1.23-1.43,7.56,7.56,0,0,0-2.76-.37h-1.41v40.82Z"/>
        <path id="_8-33" data-name="8-33" d="M8.22,341,4.38,306.07h7l2,22,2-22h6.67l1.92,22,1.92-22H33L29.07,341H20.48l-1.79-16.81L17,341Zm25.06,0,3.46-34.88H48.88L52.3,341H45.5l-.5-5.64H40.66L40.25,341Zm7.93-11.21h3.25L42.87,312h-.33Zm14.71,9.18q-2.16-2.35-2.16-7.59v-3.41h7v4.34c0,1.73.57,2.6,1.71,2.6a1.5,1.5,0,0,0,1.34-.55,3.4,3.4,0,0,0,.37-1.85,8.4,8.4,0,0,0-.41-2.82,6.18,6.18,0,0,0-1.07-1.86c-.43-.51-1.2-1.28-2.31-2.34l-3.09-3a10.28,10.28,0,0,1-3.58-7.56q0-4.45,2.1-6.8A7.9,7.9,0,0,1,62,305.75q4.84,0,7,2.5c1.42,1.66,2.12,4.26,2.12,7.81H63.81l-.05-2.39a1.52,1.52,0,0,0-.39-1.1,1.49,1.49,0,0,0-1.11-.41,1.63,1.63,0,0,0-1.25.45,1.7,1.7,0,0,0-.41,1.22,5,5,0,0,0,2,3.53l4.17,3.9a23.33,23.33,0,0,1,2.42,2.62,10.12,10.12,0,0,1,1.54,2.92,12.23,12.23,0,0,1,.58,4c0,3.44-.64,6-1.94,7.82S66,341.28,63,341.28Q58.1,341.28,55.92,338.92Zm17.77,2V306.07h7.38l3.29,16.69V306.07h6.93V341h-7L80.7,323.49V341Zm23.85,0V312.77H93.29v-6.7H109v6.7h-4.26V341Z"/>
        <path id="_8-34" data-name="8-34" d="M120.73,306.07h9.88c2.56,0,4.47.69,5.75,2.07s1.94,3.43,2,6.13l.08,16.33q0,5.16-1.84,7.75t-6.21,2.6h-9.63Zm8.46,28.71c1.31,0,2-.62,2-1.87v-18a6,6,0,0,0-.19-1.76,1.16,1.16,0,0,0-.68-.79,4.28,4.28,0,0,0-1.55-.21h-.79v22.62Zm12.1,6.17V306.07h14.34v6.74h-7v6.78h6.76v6.58h-6.76v8h7.51V341Zm18.63-2q-2.16-2.35-2.16-7.59v-3.41h7v4.34c0,1.73.57,2.6,1.71,2.6a1.5,1.5,0,0,0,1.34-.55,3.4,3.4,0,0,0,.37-1.85,8.4,8.4,0,0,0-.41-2.82,6.18,6.18,0,0,0-1.07-1.86c-.43-.51-1.2-1.28-2.31-2.34l-3.09-3a10.28,10.28,0,0,1-3.58-7.56q0-4.45,2.1-6.8a7.9,7.9,0,0,1,6.15-2.33q4.85,0,7,2.5c1.42,1.66,2.12,4.26,2.12,7.81h-7.29l-.05-2.39a1.52,1.52,0,0,0-.39-1.1,1.49,1.49,0,0,0-1.11-.41,1.63,1.63,0,0,0-1.25.45,1.7,1.7,0,0,0-.41,1.22,5,5,0,0,0,2,3.53l4.17,3.9a23.33,23.33,0,0,1,2.42,2.62,10.12,10.12,0,0,1,1.54,2.92,12.23,12.23,0,0,1,.58,4c0,3.44-.64,6-1.94,7.82s-3.42,2.66-6.4,2.66Q162.1,341.28,159.92,338.92Zm20.86,2V312.77h-4.26v-6.7H192.2v6.7H188V341Zm13.42-34.88h11a6.36,6.36,0,0,1,4.07,1.16,5.73,5.73,0,0,1,1.94,3.25,23.71,23.71,0,0,1,.5,5.34,11,11,0,0,1-.8,4.63,4.37,4.37,0,0,1-2.75,2.31,3.35,3.35,0,0,1,2.36,1.58,6.88,6.88,0,0,1,.73,3.41l-.09,13.2h-7V327.31c0-1-.2-1.6-.59-1.87a3.91,3.91,0,0,0-2.12-.41V341H194.2Zm9,12.91c1,0,1.5-1.05,1.5-3.16a13.12,13.12,0,0,0-.12-2.07,1.24,1.24,0,0,0-1.42-1.22H201.5V319Zm12.84,19.72q-2.25-2.58-2.25-7.25V314.84q0-4.5,2.25-6.8t6.59-2.29q4.34,0,6.59,2.29t2.25,6.8v16.61q0,4.71-2.25,7.27c-1.5,1.7-3.7,2.56-6.59,2.56S217.55,340.42,216.05,338.7Zm7.88-4.65a6,6,0,0,0,.34-2.28v-17a4.82,4.82,0,0,0-.31-1.85,1.26,1.26,0,0,0-1.28-.71c-1.19,0-1.79.88-1.79,2.64v17a5.34,5.34,0,0,0,.38,2.27,1.38,1.38,0,0,0,1.37.77A1.26,1.26,0,0,0,223.93,334.05ZM238.7,341V329.46L233,306.07h7.09l2,11.82,2-11.82h7.08l-5.71,23.39V341ZM253,341V306.07H267.3v6.74h-7.05v6.78H267v6.58h-6.76v8h7.51V341Zm17.18-34.88H280q3.84,0,5.76,2.07c1.27,1.38,1.93,3.43,2,6.13l.08,16.33q0,5.16-1.84,7.75t-6.21,2.6h-9.63Zm8.46,28.71c1.31,0,2-.62,2-1.87v-18a6.42,6.42,0,0,0-.18-1.76,1.2,1.2,0,0,0-.69-.79,4.28,4.28,0,0,0-1.55-.21h-.79v22.62Z"/>
        <path id="_8-35" data-name="8-35" d="M10.06,416.31q-5.29-5.25-5.29-13.65,0-9.36,3.7-15t11.63-10q-6.48-9.16-6.47-15.85,0-7,6.27-10.94t16.19-4q9.78,0,16,3.77t6.28,10.55q0,9.93-15.2,18.62l4.1,7a25.76,25.76,0,0,1,11.1-11l9,10.12q-7.79,4.4-12.68,14.51l11.5,20.15H44.28l-2.38-4.49A22,22,0,0,1,34.83,420a27.55,27.55,0,0,1-9.31,1.53Q15.34,421.57,10.06,416.31Zm23.25-8.06a6.35,6.35,0,0,0,2.25-3.2l-7.8-13.56-.79.86A8.52,8.52,0,0,0,25.25,396a18.89,18.89,0,0,0-.66,4.87v.47a18.76,18.76,0,0,0,.8,6c.52,1.53,1.76,2.29,3.69,2.29A6.52,6.52,0,0,0,33.31,408.25ZM38.47,368a9.64,9.64,0,0,0,2.38-3,8,8,0,0,0,1-3.77q0-2.87-3.83-2.86a3.66,3.66,0,0,0-2.51.81,2.61,2.61,0,0,0-.93,2.05c0,1.66.93,4.2,2.78,7.64Z"/>
        <path id="_8-36" data-name="8-36" d="M76.85,370.87V348.06h6.37v22.81Zm9,0V348.06h6.8l3,10.92V348.06h6.37v22.81H95.63l-3.3-11.41v11.41Z"/>
        <path id="_8-37" data-name="8-37" d="M116.83,370.87V352.44h-3.92v-4.38h14.44v4.38h-3.92v18.43Zm12.37,0V348.06h6.56v8.16h3.11v-8.16h6.57v22.81h-6.57V360.52h-3.11v10.35Zm18.85,0V348.06h6.38v22.81Zm10.37-1.33c-1.33-1-2-2.68-2-5v-2.23h6.5v2.84c0,1.13.52,1.7,1.57,1.7a1.67,1.67,0,0,0,1.23-.36,1.72,1.72,0,0,0,.34-1.21,3.86,3.86,0,0,0-.38-1.84,3.82,3.82,0,0,0-1-1.22q-.6-.5-2.13-1.53l-2.84-2c-2.2-1.48-3.31-3.13-3.31-4.93a5.33,5.33,0,0,1,1.94-4.45,9,9,0,0,1,5.67-1.53c3,0,5.11.55,6.41,1.63s2,2.8,2,5.12h-6.72l0-1.57a.86.86,0,0,0-.36-.72,1.79,1.79,0,0,0-1-.26,1.84,1.84,0,0,0-1.15.29.93.93,0,0,0-.39.79c0,.75.62,1.52,1.85,2.32l3.84,2.54a19.45,19.45,0,0,1,2.22,1.72,6.3,6.3,0,0,1,1.43,1.91,6,6,0,0,1,.53,2.61,6.84,6.84,0,0,1-1.78,5.12q-1.78,1.74-5.9,1.74C161.92,371.09,159.75,370.57,158.42,369.54Z"/>
        <path id="_8-38" data-name="8-38" d="M185.57,369.4a5.76,5.76,0,0,1-2.07-4.74V353.8a5.14,5.14,0,0,1,2.07-4.45,13,13,0,0,1,12.14,0,5.14,5.14,0,0,1,2.07,4.45v10.86a5.75,5.75,0,0,1-2.07,4.75,11.78,11.78,0,0,1-12.14,0Zm7.26-3a3,3,0,0,0,.31-1.49V353.72a2.28,2.28,0,0,0-.29-1.21,1.27,1.27,0,0,0-1.17-.46c-1.1,0-1.65.57-1.65,1.72V364.9a2.59,2.59,0,0,0,.35,1.49,1.43,1.43,0,0,0,1.26.5A1.26,1.26,0,0,0,192.83,366.36Zm9.6,4.51V348.06h6.8l3,10.92V348.06h6.37v22.81h-6.45l-3.3-11.41v11.41Zm19.13,0V348.06h13.21v4.41h-6.49v4.44h6.22v4.3h-6.22v5.23h6.91v4.43Z"/>
        <path id="_8-39" data-name="8-39" d="M248.94,370.87l-3.53-22.81h6.45l1.85,14.4,1.84-14.4h6.14l1.77,14.4,1.77-14.4h6.53l-3.61,22.81h-7.92l-1.65-11-1.57,11Zm24.77,0V348.06h13.21v4.41h-6.49v4.44h6.23v4.3h-6.23v5.23h6.92v4.43Z"/>
        <path id="_8-40" data-name="8-40" d="M82.11,422.06l-4.79-44.68h8.74l2.5,28.19,2.49-28.19h8.32l2.4,28.19,2.39-28.19H113l-4.89,44.68H97.4l-2.24-21.53L93,422.06Zm33.54,0V377.38h17.89V386h-8.79v8.68h8.43v8.43h-8.43v10.24h9.36v8.69Zm21.43-44.68h13.73a7.76,7.76,0,0,1,5.07,1.49,7.31,7.31,0,0,1,2.41,4.16,30.57,30.57,0,0,1,.63,6.83,14.36,14.36,0,0,1-1,5.93,5.55,5.55,0,0,1-3.43,3,4.14,4.14,0,0,1,2.94,2,9,9,0,0,1,.91,4.36l-.11,16.91h-8.73V404.58c0-1.25-.25-2-.73-2.39a4.82,4.82,0,0,0-2.65-.52v20.39h-9Zm11.23,16.54c1.25,0,1.87-1.35,1.87-4.06a17.27,17.27,0,0,0-.15-2.65,2,2,0,0,0-.58-1.22,1.85,1.85,0,0,0-1.19-.34h-2.08v8.27Zm13.57,28.14V377.38h17.89V386H171v8.68h8.43v8.43H171v10.24h9.37v8.69Z"/>
        <path id="_8-41" data-name="8-41" d="M195.48,377.38H207.8c3.19,0,5.59.89,7.18,2.66s2.41,4.38,2.44,7.85l.11,20.9q0,6.61-2.29,9.94t-7.75,3.33h-12ZM206,414.15a2.13,2.13,0,0,0,2.44-2.39v-23a8.43,8.43,0,0,0-.23-2.26,1.56,1.56,0,0,0-.86-1,5.43,5.43,0,0,0-1.93-.26h-1v29Zm15.08,7.91V377.38H239V386h-8.79v8.68h8.42v8.43h-8.42v10.24h9.36v8.69Zm20.23,0,4.31-44.68H260.8l4.26,44.68h-8.48l-.62-7.23h-5.41l-.52,7.23Zm9.88-14.36h4.05l-2-22.72h-.42Zm16.54-30.32h12.32q4.79,0,7.18,2.66c1.59,1.76,2.41,4.38,2.44,7.85l.11,20.9q0,6.61-2.29,9.94c-1.56,2.22-4.15,3.33-7.75,3.33h-12Zm10.55,36.77a2.14,2.14,0,0,0,2.45-2.39v-23a8,8,0,0,0-.24-2.26,1.51,1.51,0,0,0-.86-1,5.33,5.33,0,0,0-1.92-.26h-1v29Zm14.51,7.91v-7.6h9.1v7.6Z"/>
      </g>
    </g>
  </g>
</svg>
