<svg xmlns="http://www.w3.org/2000/svg" viewBox="0 0 386.86 408.01">
  <g id="Layer_2" data-name="Layer 2">
    <g id="text">
      <g id="_10-line" data-name="10-line">
        <path id="_10-1" data-name="10-1" d="M11.26,29.13,14.05.27h9.78l2.75,28.86H21.1l-.4-4.67H17.21l-.34,4.67Zm6.38-9.27h2.62L19,5.17h-.27Zm10.69,9.27V.27h5.94l2.66,13.81V.27h5.58V29.13H36.86L34,14.68V29.13ZM45.06.27h8A5.94,5.94,0,0,1,57.66,2a7.49,7.49,0,0,1,1.58,5.08l.07,13.5q0,4.28-1.48,6.42c-1,1.44-2.68,2.15-5,2.15H45.06ZM51.88,24a1.38,1.38,0,0,0,1.58-1.54V7.59a5.32,5.32,0,0,0-.15-1.46,1,1,0,0,0-.56-.65,3.42,3.42,0,0,0-1.24-.17h-.64V24Z"/>
        <path id="_10-2" data-name="10-2" d="M69.49,29.13V.27H81.05V5.85H75.37v5.61h5.44V16.9H75.37v6.62h6v5.61Zm16.49,0L82.42.24h5.51l2.12,19.65L91.93.24h5.51L93.88,29.13Zm13.11,0V.27h11.56V5.85H105v5.61h5.44V16.9H105v6.62h6v5.61ZM112.93.27h8.87a5,5,0,0,1,3.28,1,4.74,4.74,0,0,1,1.56,2.68,20,20,0,0,1,.4,4.42,9.38,9.38,0,0,1-.63,3.83,3.62,3.62,0,0,1-2.22,1.92,2.71,2.71,0,0,1,1.9,1.31,5.75,5.75,0,0,1,.58,2.82l-.06,10.92H121V17.84c0-.8-.15-1.32-.47-1.54a3,3,0,0,0-1.71-.34V29.13h-5.85ZM120.19,11c.81,0,1.21-.87,1.21-2.62a10.35,10.35,0,0,0-.1-1.71,1.3,1.3,0,0,0-.37-.79,1.18,1.18,0,0,0-.77-.22h-1.35V11Zm12.26,18.18V19.62L127.85.27h5.71l1.62,9.78L136.79.27h5.71l-4.6,19.35v9.51Z"/>
        <path id="_10-3" data-name="10-3" d="M151.81,29.13V.27h8.8L163,17.88,165.45.27h8.87V29.13H169V8.33l-3.32,20.8h-5.18L157,8.33v20.8Zm26.64-1.86a9,9,0,0,1-1.81-6V7.53q0-3.74,1.81-5.63a8.37,8.37,0,0,1,10.62,0q1.81,1.89,1.81,5.63V21.27a9,9,0,0,1-1.81,6,7.7,7.7,0,0,1-10.62,0Zm6.35-3.85a5.23,5.23,0,0,0,.27-1.88V7.43a3.88,3.88,0,0,0-.25-1.53,1,1,0,0,0-1-.59c-1,0-1.44.73-1.44,2.18V21.57a4.56,4.56,0,0,0,.3,1.88,1.11,1.11,0,0,0,1.11.64A1,1,0,0,0,184.8,23.42ZM193.2.27h8.87a5,5,0,0,1,3.28,1,4.74,4.74,0,0,1,1.56,2.68,20,20,0,0,1,.4,4.42,9.38,9.38,0,0,1-.63,3.83,3.62,3.62,0,0,1-2.22,1.92,2.71,2.71,0,0,1,1.9,1.31,5.74,5.74,0,0,1,.59,2.82l-.07,10.92h-5.65V17.84c0-.8-.15-1.32-.47-1.54a3,3,0,0,0-1.71-.34V29.13H193.2ZM200.46,11c.81,0,1.21-.87,1.21-2.62a10.35,10.35,0,0,0-.1-1.71,1.3,1.3,0,0,0-.37-.79,1.18,1.18,0,0,0-.77-.22h-1.35V11Zm8.77,18.18V.27h6l2.65,13.81V.27h5.58V29.13h-5.65l-2.88-14.45V29.13Zm16.46,0V.27h5.58V29.13Zm7.9,0V.27h5.95l2.65,13.81V.27h5.58V29.13h-5.65l-2.89-14.45V29.13Zm18-1.93q-1.53-2.2-1.53-6.67V8.1c0-2.67.59-4.68,1.78-6a6.65,6.65,0,0,1,5.31-2,7.46,7.46,0,0,1,4.43,1.14,5.87,5.87,0,0,1,2.19,3.33,21.74,21.74,0,0,1,.6,5.61h-5.64V7.49a3.68,3.68,0,0,0-.29-1.61,1,1,0,0,0-1-.57c-1.1,0-1.65.72-1.65,2.15v14a4.49,4.49,0,0,0,.34,2,1.19,1.19,0,0,0,1.17.67,1.21,1.21,0,0,0,1.18-.67,4.66,4.66,0,0,0,.33-2V17.3h-1.54v-5h7.05v16.8H262l-1-2.42a5.13,5.13,0,0,1-4.77,2.69A5.27,5.27,0,0,1,251.62,27.2Z"/>
        <path id="_10-4" data-name="10-4" d="M275.66,27.45q-1.76-1.95-1.75-6.28V18.35h5.68v3.59c0,1.44.46,2.15,1.38,2.15a1.19,1.19,0,0,0,1.07-.45,2.89,2.89,0,0,0,.3-1.53,7.08,7.08,0,0,0-.33-2.34,5.15,5.15,0,0,0-.86-1.54c-.35-.42-1-1.06-1.86-1.93l-2.49-2.49a8.56,8.56,0,0,1-2.89-6.25,8.31,8.31,0,0,1,1.7-5.63A6.23,6.23,0,0,1,280.56,0q3.9,0,5.61,2.07c1.15,1.37,1.72,3.53,1.72,6.46H282l0-2a1.21,1.21,0,0,0-.32-.9,1.15,1.15,0,0,0-.89-.34,1.27,1.27,0,0,0-1,.37,1.42,1.42,0,0,0-.34,1A4.21,4.21,0,0,0,281,9.61l3.36,3.23A18.26,18.26,0,0,1,286.34,15a8.36,8.36,0,0,1,1.24,2.42,10.23,10.23,0,0,1,.48,3.31c0,2.85-.52,5-1.57,6.47s-2.76,2.2-5.15,2.2Q277.4,29.4,275.66,27.45Zm15.7-.07q-1.73-2-1.73-6V.27h5.62v20.9a6.82,6.82,0,0,0,.26,2.15,1.24,1.24,0,0,0,2.29,0,6.79,6.79,0,0,0,.27-2.17V.27h5.61V21.4q0,4-1.73,6a7.95,7.95,0,0,1-10.59,0Zm14.54,1.75V.27h8.8l2.42,17.61L319.54.27h8.87V29.13h-5.28V8.33l-3.32,20.8h-5.18l-3.52-20.8v20.8Zm25.06,0V.27h8.81l2.41,17.61L344.6.27h8.87V29.13H348.2V8.33l-3.33,20.8H339.7l-3.53-20.8v20.8Zm25.07,0V.27h11.56V5.85h-5.68v5.61h5.44V16.9h-5.44v6.62h6v5.61ZM369.87.27h8.87a5,5,0,0,1,3.28,1,4.74,4.74,0,0,1,1.56,2.68,20,20,0,0,1,.4,4.42,9.38,9.38,0,0,1-.63,3.83,3.62,3.62,0,0,1-2.22,1.92,2.71,2.71,0,0,1,1.9,1.31,5.75,5.75,0,0,1,.58,2.82l-.06,10.92H377.9V17.84c0-.8-.15-1.32-.47-1.54a3,3,0,0,0-1.71-.34V29.13h-5.85ZM377.13,11c.81,0,1.21-.87,1.21-2.62a10.35,10.35,0,0,0-.1-1.71,1.3,1.3,0,0,0-.37-.79,1.18,1.18,0,0,0-.77-.22h-1.35V11Z"/>
        <path id="_10-5" data-name="10-5" d="M10.08,89.27V35.45h10.4V89.27Z"/>
        <path id="_10-6" data-name="10-6" d="M39.46,89.27V35.45H61v10.4H50.43V56.31H60.58V66.46H50.43V78.81H61.71V89.27Zm24.38,0L69,35.45H87.27L92.4,89.27H82.19l-.75-8.71H74.92l-.62,8.71ZM75.74,72h4.89L78.25,44.6h-.51ZM100.3,89.27V45.79H93.91V35.45h23.55V45.79h-6.39V89.27Z"/>
        <path id="_10-7" data-name="10-7" d="M135.13,35.45h14.6q5.88,0,8.55,2.88t2.66,9.4v2.38q0,7.71-5.51,9.21a6.79,6.79,0,0,1,4.76,4.07,21.64,21.64,0,0,1,1.38,8.46q0,8.58-2.57,13t-9.27,4.42h-14.6Zm12.72,20.24a1.9,1.9,0,0,0,1.88-1,6.89,6.89,0,0,0,.5-2.91V46.35c0-1.75-.77-2.63-2.32-2.63h-2.25v12Zm3.07,20.11V69.09a7.55,7.55,0,0,0-.72-3.69,2.67,2.67,0,0,0-2.54-1.25h-2v15.6l1.06.06Q150.92,79.81,150.92,75.8Zm14.22-40.35h16.54a9.35,9.35,0,0,1,6.11,1.79,8.87,8.87,0,0,1,2.91,5,37.38,37.38,0,0,1,.75,8.24,17.23,17.23,0,0,1-1.19,7.14,6.69,6.69,0,0,1-4.13,3.57,5,5,0,0,1,3.54,2.44,10.77,10.77,0,0,1,1.09,5.27l-.12,20.36H180.11v-21q0-2.27-.87-2.88a5.82,5.82,0,0,0-3.2-.63V89.27h-10.9Zm13.53,19.92c1.51,0,2.26-1.62,2.26-4.88a19.43,19.43,0,0,0-.19-3.2,2.41,2.41,0,0,0-.69-1.47,2.23,2.23,0,0,0-1.44-.41H176.1v10ZM195,89.27V35.45h21.56v10.4H206V56.31h10.15V66.46H206V78.81h11.27V89.27Zm24.37,0,5.2-53.82h18.24L248,89.27H237.75L237,80.56h-6.52l-.62,8.71ZM231.3,72h4.88L233.8,44.6h-.5Zm19.92,17.29V35.45h10.65V57l5-21.55h10.84l-6,24.62L279,89.27H267.82l-5.89-26.06V89.27Zm29.57,0V35.45h21.55V45.91H291.63V54.5h10.15V64.83H291.63V89.27Zm23.56,0,5.2-53.82h18.23l5.14,53.82H322.7L322,80.56h-6.51l-.63,8.71ZM316.25,72h4.89L318.76,44.6h-.51Zm22.11,14.16q-3.25-3.65-3.25-11.72V69.16h10.58v6.7q0,4,2.57,4a2.23,2.23,0,0,0,2-.85,5.4,5.4,0,0,0,.56-2.85,13.1,13.1,0,0,0-.62-4.35,9.65,9.65,0,0,0-1.6-2.88c-.65-.77-1.81-2-3.48-3.6L340.5,60.7q-5.4-5.27-5.39-11.65,0-6.9,3.16-10.5t9.24-3.6q7.28,0,10.46,3.85t3.2,12.06h-11l-.07-3.69a2.37,2.37,0,0,0-.59-1.69,2.18,2.18,0,0,0-1.66-.63,2.4,2.4,0,0,0-1.88.69,2.67,2.67,0,0,0-.63,1.88q0,2.63,3,5.45l6.26,6a35.31,35.31,0,0,1,3.64,4,16.11,16.11,0,0,1,2.32,4.51,19.61,19.61,0,0,1,.87,6.18q0,8-2.91,12.06T349,89.77Q341.63,89.77,338.36,86.14Zm31.33,3.13V45.79H363.3V35.45h23.56V45.79h-6.39V89.27Z"/>
        <path id="_10-8" data-name="10-8" d="M3.1,181.3a35.09,35.09,0,0,1,1.71-11.16A44.85,44.85,0,0,1,9,160.92q2.47-4.09,6.53-9.63,4.13-5.73,6.57-9.73a43.71,43.71,0,0,0,4.13-9.16,35.56,35.56,0,0,0,1.71-11.22A13.7,13.7,0,0,0,27,115.6a3.35,3.35,0,0,0-3.31-2q-4,0-4,7.89v10.75H3.1l-.18-5.43a61.4,61.4,0,0,1,1.84-16.49,17.78,17.78,0,0,1,6.43-9.83q4.61-3.37,12.69-3.38,9.93,0,15.35,6.2t5.43,17.56A45,45,0,0,1,42.86,134a46.45,46.45,0,0,1-4.41,10.29q-2.62,4.41-6.94,10.34-3.12,4.22-5.19,7.48a66.47,66.47,0,0,0-3.73,6.76H44.1V185.5H3.1ZM53,180q-5.43-6.3-5.42-18V122.31q0-12.5,5.24-19T68.47,96.7q10.47,0,15.72,6.56t5.24,19v39.74q0,11.77-5.43,18t-15.53,6.24Q58.44,186.32,53,180Zm18.3-11.67a8,8,0,0,0,1.1-4.25V120.67a16.63,16.63,0,0,0-.78-5.79,3.07,3.07,0,0,0-3.17-2,3,3,0,0,0-3.13,2,17.55,17.55,0,0,0-.74,5.79V164.1a8.27,8.27,0,0,0,1.06,4.25,3.18,3.18,0,0,0,2.81,1.79A3.29,3.29,0,0,0,71.32,168.35Zm32.91,17.15v-29l-12.6-59h15.63l4.41,29.81,4.41-29.81h15.63l-12.59,59v29Zm31.43-88h21.79q8.46,0,12.69,5.23t4.32,15.46l.18,41.18q.09,13-4,19.56t-13.7,6.55H135.66Zm18.67,72.42q4.32,0,4.32-4.72V119.85a17.66,17.66,0,0,0-.42-4.46,2.89,2.89,0,0,0-1.51-2,8.58,8.58,0,0,0-3.41-.51h-1.74v57.05Zm29.87,10.44q-4.77-5.94-4.78-19.15v-8.6H195v11c0,4.38,1.25,6.56,3.77,6.56a3.14,3.14,0,0,0,2.94-1.38,9.63,9.63,0,0,0,.83-4.66,23.41,23.41,0,0,0-.92-7.12,16.2,16.2,0,0,0-2.35-4.71q-1.42-1.91-5.1-5.89l-6.8-7.58q-7.91-8.61-7.91-19.05,0-11.27,4.65-17.16t13.56-5.89q10.65,0,15.35,6.3t4.69,19.72H201.58l-.09-6a4.13,4.13,0,0,0-.88-2.77,3,3,0,0,0-2.43-1,3.35,3.35,0,0,0-2.76,1.12,4.68,4.68,0,0,0-.92,3.07q0,4.31,4.41,8.92l9.19,9.83a56.51,56.51,0,0,1,5.34,6.6,27.31,27.31,0,0,1,3.4,7.38,35,35,0,0,1,1.29,10.09q0,13-4.28,19.71t-14.11,6.71Q189,186.32,184.2,180.38Z"/>
        <path id="_10-9" data-name="10-9" d="M227.61,129.39l3-33.1H241l2.93,33.1h-5.82l-.43-5.35h-3.72l-.35,5.35Zm6.78-10.63h2.78l-1.35-16.85h-.29Zm13.24,10.63-3.28-33.1h6l1.71,20.89,1.72-20.89h5.71l1.64,20.89,1.64-20.89h6.07l-3.35,33.1h-7.36l-1.53-15.95-1.47,15.95Zm21.46,0,3-33.1h10.39l2.93,33.1h-5.82l-.43-5.35h-3.71l-.36,5.35Zm6.78-10.63h2.79l-1.36-16.85H277Zm15.07,10.63v-10.9l-4.89-22.2h6.07l1.71,11.21,1.71-11.21h6.07l-4.89,22.2v10.9Z"/>
        <path id="_10-10" data-name="10-10" d="M311.5,129.39V96.29h12.28v6.43h-6.1V108h5.78v6.36h-5.78v15Zm14.25-33.1h9.42a5.06,5.06,0,0,1,3.48,1.09,5.59,5.59,0,0,1,1.66,3.09,24.35,24.35,0,0,1,.43,5.07,11.47,11.47,0,0,1-.68,4.39,3.93,3.93,0,0,1-2.35,2.2,2.81,2.81,0,0,1,2,1.5,7,7,0,0,1,.63,3.24l-.07,12.52h-6V116.44c0-.92-.17-1.51-.5-1.77a3.09,3.09,0,0,0-1.82-.38v15.1h-6.21Zm7.71,12.25c.85,0,1.28-1,1.28-3a13.7,13.7,0,0,0-.1-2,1.51,1.51,0,0,0-.4-.9,1.19,1.19,0,0,0-.82-.26H332v6.13Zm11,18.72a10.93,10.93,0,0,1-1.92-6.88V104.61q0-4.27,1.92-6.45a8.4,8.4,0,0,1,11.29,0q1.92,2.18,1.92,6.45v15.77q0,4.47-1.92,6.89a7.76,7.76,0,0,1-11.29,0Zm6.75-4.42a6.41,6.41,0,0,0,.29-2.16V104.5a4.82,4.82,0,0,0-.27-1.76,1.05,1.05,0,0,0-1.09-.67c-1,0-1.54.83-1.54,2.5v16.15a5.49,5.49,0,0,0,.33,2.16,1.16,1.16,0,0,0,1.17.73A1.08,1.08,0,0,0,351.2,122.84Zm8.93,6.55V96.29h9.35l2.57,20.19,2.57-20.19h9.43v33.1h-5.61V105.54l-3.53,23.85h-5.5l-3.75-23.85v23.85Z"/>
        <path id="_10-11" data-name="10-11" d="M225.9,184.16V137.68h13.7L243.37,166l3.76-28.35h13.81v46.48h-8.21V150.67l-5.18,33.49H239.5L234,150.67v33.49Zm44.46,0V168.85l-7.17-31.17h8.89l2.52,15.75,2.51-15.75H286l-7.17,31.17v15.31Z"/>
        <path id="_10-12" data-name="10-12" d="M303,181.15q-2.82-3.43-2.83-9.65V149.37c0-4,.95-7,2.83-9.06s4.64-3.06,8.26-3.06,6.39,1,8.27,3.06,2.82,5.05,2.82,9.06V171.5q0,6.27-2.82,9.68t-8.27,3.41C307.59,184.59,304.83,183.45,303,181.15Zm9.88-6.19a8.66,8.66,0,0,0,.42-3V149.21a6.62,6.62,0,0,0-.39-2.47,1.54,1.54,0,0,0-1.59-.94q-2.25,0-2.25,3.51V172a7.43,7.43,0,0,0,.47,3,1.72,1.72,0,0,0,1.72,1A1.57,1.57,0,0,0,312.83,175Zm16.59,9.2-4.82-46.48h8.79L335.9,167l2.52-29.33h8.37l2.4,29.33,2.41-29.33h8.89l-4.92,46.48H344.8l-2.25-22.4-2.15,22.4Zm33.74,0V137.68h9.26l4.13,22.24V137.68h8.68v46.48h-8.79L372,160.89v23.27Z"/>
        <path id="_10-13" data-name="10-13" d="M6.33,190.62H40.9q8.25,0,12.77,3.77A18.79,18.79,0,0,1,59.76,205a79.84,79.84,0,0,1,1.57,17.38q0,9.65-2.49,15.07A14,14,0,0,1,50.2,245a10.37,10.37,0,0,1,7.39,5.15q2.29,4.09,2.3,11.11l-.27,43h-22V259.76c0-3.17-.62-5.2-1.84-6.08s-3.45-1.32-6.68-1.32v51.82H6.33Zm28.28,42q4.72,0,4.72-10.31a41.41,41.41,0,0,0-.4-6.74,5,5,0,0,0-1.44-3.11,4.65,4.65,0,0,0-3-.86H29.24v21Zm40.33,64.18q-7.06-8.38-7.07-23.6V219.18q0-14.67,7.07-22.14t20.69-7.47q13.62,0,20.69,7.47t7.07,22.14v54.06q0,15.35-7.07,23.67t-20.69,8.32Q82,305.23,74.94,296.84ZM99.69,281.7a20.71,20.71,0,0,0,1-7.4V218.78a15.62,15.62,0,0,0-1-6c-.66-1.54-2-2.32-4-2.32q-5.62,0-5.63,8.6v55.38a18.21,18.21,0,0,0,1.18,7.41,4.36,4.36,0,0,0,4.32,2.51A4,4,0,0,0,99.69,281.7Zm42.43,22.48V212.44H128.76V190.62H178v21.82H164.64v91.74Zm51.85,0V212.44H180.62V190.62h49.23v21.82H216.5v91.74Zm41.12,0V190.62h21.74V304.18Zm30.77,0V190.62H289L299.38,245V190.62h21.74V304.18h-22l-11.26-56.85v56.85Zm70.25-7.6q-6-8.65-5.95-26.24V221.43q0-15.74,6.94-23.8t20.69-8.06q11.13,0,17.28,4.49t8.51,13.09q2.35,8.59,2.36,22.07h-22V219.05a14.64,14.64,0,0,0-1.11-6.35,4.08,4.08,0,0,0-4-2.25q-6.4,0-6.41,8.46v55c0,3.43.43,6,1.31,7.79a5.28,5.28,0,0,0,9.16,0,18.18,18.18,0,0,0,1.31-7.79V257.65h-6V238.08h27.5v66.1h-9l-3.8-9.52q-6,10.57-18.59,10.57Q342.07,305.23,336.11,296.58Z"/>
        <path id="_10-14" data-name="10-14" d="M7.4,401.54Q0,395.06,0,383.76V340.31q0-14,6.68-21.17t21-7.13q12.44,0,20,5.7t7.6,16.46v16.24H32.87V336.48c0-2.71-.4-4.58-1.18-5.6s-2.14-1.54-4.06-1.54-3.38.59-4.13,1.76a9.74,9.74,0,0,0-1.11,5.16v47.28q0,3.73,1.31,5.43a4.63,4.63,0,0,0,3.93,1.71q5.24,0,5.24-7.14v-17H55.52v17.77q0,23.7-28.41,23.7Q14.79,408,7.4,401.54Zm61.74-.5q-7.06-7-7.07-19.58V336.58q0-12.16,7.07-18.37T89.83,312q13.62,0,20.69,6.2t7.07,18.37v44.88q0,12.72-7.07,19.64T89.83,408Q76.21,408,69.14,401Zm24.75-12.56a14.52,14.52,0,0,0,1-6.14V336.26a10.93,10.93,0,0,0-1-5q-1-1.92-4-1.92-5.62,0-5.63,7.14v46a12.7,12.7,0,0,0,1.18,6.14q1.17,2.09,4.32,2.09C91.84,390.68,93.19,389.94,93.89,388.48Zm32.73-75.59h34.57q8.25,0,12.77,3.12a15.3,15.3,0,0,1,6.09,8.78,55,55,0,0,1,1.57,14.43q0,8-2.49,12.51T170.49,358c3.41.59,5.87,2,7.4,4.28s2.29,5.34,2.29,9.21l-.26,35.66h-22V370.27q0-4-1.83-5c-1.23-.73-3.45-1.1-6.68-1.1v43H126.62Zm28.29,34.89q4.71,0,4.71-8.56a29.66,29.66,0,0,0-.39-5.6,4,4,0,0,0-1.44-2.58,5.38,5.38,0,0,0-3-.71h-5.24v17.45Zm34.17-34.89h29.73q13.49,0,19.25,7.29t5.76,21.34q0,14.06-5.11,21.18t-18.33,7.13h-9.17v37.3H189.08Zm23.44,39.93q4.06,0,6-1.26a5.86,5.86,0,0,0,2.49-3.62,29.64,29.64,0,0,0,.59-6.75q0-5.93-1.57-8.56T213.7,330h-2.49v22.82Zm42.95,48.83q-6.81-6.37-6.81-20.52v-9.22h22.13v11.74q0,7,5.37,7c2,0,3.41-.5,4.19-1.49s1.18-2.65,1.18-5a19.27,19.27,0,0,0-1.31-7.62,15.83,15.83,0,0,0-3.34-5.05q-2-2-7.26-6.31l-9.69-8.12q-11.27-9.21-11.27-20.41,0-12.06,6.62-18.37T274.59,312q15.2,0,21.87,6.75t6.68,21.12H280.22l-.13-6.48a3.74,3.74,0,0,0-1.24-3,5.09,5.09,0,0,0-3.47-1.1,5.64,5.64,0,0,0-3.93,1.21,4.27,4.27,0,0,0-1.31,3.29q0,4.61,6.28,9.55l13.1,10.53a68,68,0,0,1,7.59,7.08,26.3,26.3,0,0,1,4.85,7.9,28.86,28.86,0,0,1,1.83,10.8q0,13.94-6.09,21.12T277.6,408Q262.28,408,255.47,401.65Z"/>
        <path id="corps" d="M341.35,403.23a8.33,8.33,0,0,1-7.4-4.45L323.66,379.4l10.95-19.78-2.24-11.23-6.47,2.41-4.5,9.27a7.37,7.37,0,0,1-12.74.91,7.32,7.32,0,0,1-.72-6.89l6-14.84,16.69-7.16a12.73,12.73,0,1,1,24.24-6.58l5.59-1.48v-8.77a7.46,7.46,0,0,1,14.91,0v21L358.66,341l5.74,14,1.82,13.59,8.18,2.14a8.27,8.27,0,1,1-3.75,16.11l-18.57-4.4-3.41-10.21-5.6,6.53L349,391.28a8.39,8.39,0,0,1-7.61,12Zm-11.3-23.78,8.87,16.69a2.71,2.71,0,0,0,1.72,1.38,2.77,2.77,0,0,0,3.23-3.85l-7.43-15.83L350.87,361l5.55,16.65L372,381.36a2.67,2.67,0,0,0,3.22-2.09,2.65,2.65,0,0,0-2-3.09l-.11,0-11.87-3.1-2.23-16.61-7.84-19.17L369.75,332V315.26a1.84,1.84,0,0,0-3.67,0v13.1L348,333.15l1.15-4.61a6.87,6.87,0,0,0,.18-2.39,7.14,7.14,0,0,0-6.59-6.44,7.1,7.1,0,0,0-5.81,11.79l2.57,2.91-21.17,9.09-5.14,12.7a1.75,1.75,0,0,0,.18,1.64,1.73,1.73,0,0,0,1.45.77,1.78,1.78,0,0,0,1.58-1l5.48-11.3,14.75-5.5,3.95,19.72Z"/>
      </g>
    </g>
  </g>
</svg>
