<svg id="text" xmlns="http://www.w3.org/2000/svg" viewBox="0 0 540 440">
  <g id="_1-line" data-name="1-line">
    <path id="Hey" d="M47,201.14V29.45H81.18V90.81H97.37V29.45h34.18V201.14H97.37V123.19H81.18v77.95Zm99.74,0V29.45H215.5V62.63H181.72V96H214.1v32.38H181.72v39.37h36v33.38Zm103.13,0V144.58L222.49,29.45h34l9.59,58.16,9.6-58.16h34L282.25,144.58v56.56Z"/>
    <path id="ahhh" d="M321.58,105.19l7.3-75.51h25.58l7.21,75.51H347.34l-1-12.22h-9.15l-.88,12.22Zm16.71-24.26h6.85L341.8,42.51h-.7Zm27.95,24.26V29.68h15v27h7.12v-27h15v75.51h-15V70.9h-7.12v34.29Zm43.09,0V29.68h15v27h7.12v-27h15v75.51h-15V70.9h-7.12v34.29Zm44-.76V28.91h15v27h7.12v-27h15v75.52h-15V70.14h-7.12v34.29Z"/>
    <path id="y-you" d="M316.5,200.19V175.32l-12-50.64H319.4l4.22,25.58,4.22-25.58h15l-12.05,50.64v24.87Zm29.28-21.89v-9.93h22.15v9.93Zm37.27,21.89V175.32l-12-50.64H386l4.22,25.58,4.22-25.58h14.94l-12,50.64v24.87Zm34.2-4.87q-4.75-5.59-4.75-15.7v-36q0-9.76,4.75-14.73t13.89-5q9.14,0,13.89,5t4.74,14.73v36q0,10.2-4.74,15.74t-13.89,5.54Q422,200.9,417.25,195.32Zm16.61-10.07a13.65,13.65,0,0,0,.7-4.92V143.41a10.24,10.24,0,0,0-.66-4,2.6,2.6,0,0,0-2.68-1.54q-3.78,0-3.78,5.71v36.83a12.08,12.08,0,0,0,.79,4.93,2.94,2.94,0,0,0,2.91,1.67A2.68,2.68,0,0,0,433.86,185.25Zm25.62,10.37Q455,190.36,455,180v-55.3h14.68v54.68a17.81,17.81,0,0,0,.7,5.63,3.24,3.24,0,0,0,6,0,17.71,17.71,0,0,0,.7-5.67V124.68H491.7V180q0,10.36-4.52,15.64t-13.85,5.28Q464,200.9,459.48,195.62Z"/>
    <path id="doing" d="M50.66,211.18H75.48q9.64,0,14.46,5.34t4.92,15.81l.21,42.11q.11,13.29-4.61,20t-15.6,6.7H50.66Zm21.26,74c3.28,0,4.93-1.6,4.93-4.82V234a16.24,16.24,0,0,0-.48-4.56,3,3,0,0,0-1.73-2,10.66,10.66,0,0,0-3.87-.52h-2v58.33Zm35.3,10.11q-5.66-6.65-5.66-18.7V233.8q0-11.62,5.66-17.54t16.54-5.92q10.89,0,16.55,5.92T146,233.8v42.83q0,12.15-5.66,18.75T123.76,302Q112.87,302,107.22,295.33Zm19.79-12a16.3,16.3,0,0,0,.84-5.87v-44a12.11,12.11,0,0,0-.79-4.77,3.11,3.11,0,0,0-3.19-1.83c-3,0-4.51,2.27-4.51,6.81v43.88a14.13,14.13,0,0,0,1,5.86,3.47,3.47,0,0,0,3.45,2A3.19,3.19,0,0,0,127,283.34Zm25.34,17.8v-90h17.39v90Zm24.61,0v-90H195.5l8.27,43v-43h17.39v90H203.57l-9-45v45Zm56.19-6q-4.77-6.86-4.76-20.79V235.58q0-12.47,5.55-18.85t16.54-6.39c5.94,0,10.54,1.19,13.83,3.56a18.36,18.36,0,0,1,6.81,10.37A67.48,67.48,0,0,1,273,241.76H255.4V233.7a11.55,11.55,0,0,0-.88-5,3.26,3.26,0,0,0-3.2-1.78q-5.13,0-5.13,6.7v43.57a14.26,14.26,0,0,0,1.05,6.18,4.26,4.26,0,0,0,7.33,0,14.44,14.44,0,0,0,1-6.18V264.28H250.8v-15.5h22v52.36h-7.23l-3-7.54Q257.72,302,247.66,302,237.91,302,233.15,295.12Z"/>
    <path id="okay" d="M52.29,387.42q-4.8-5.66-4.81-15.88V335.18q0-9.87,4.81-14.9t14.05-5q9.24,0,14,5t4.81,14.9v36.36q0,10.32-4.81,15.92t-14,5.6Q57.09,393.06,52.29,387.42Zm16.8-10.19a13.91,13.91,0,0,0,.71-5V334.91a10.51,10.51,0,0,0-.66-4.05,2.66,2.66,0,0,0-2.72-1.55c-2.55,0-3.82,1.92-3.82,5.78v37.25a12.08,12.08,0,0,0,.8,5A3,3,0,0,0,66.34,379,2.69,2.69,0,0,0,69.09,377.23Zm22.23,15.12V316h15.12v30.59L113.55,316h15.38l-8.53,34.94,10.31,41.44H114.88l-8.36-37v37Zm39.92,0L138.62,316H164.5l7.29,76.38H157.3L156.23,380H147l-.89,12.36Zm16.9-24.54h6.93L151.69,329H151Zm37.52,24.54V367.19L173.48,316h15.11l4.27,25.87L197.13,316h15.12l-12.19,51.22v25.16ZM239,354.56a47.44,47.44,0,0,0,12.23-1.2,9.86,9.86,0,0,0,6.27-5.11q2-3.92,2-12.1a13.45,13.45,0,0,0-.8-5.15,3.12,3.12,0,0,0-3.2-1.87,3.17,3.17,0,0,0-3.29,2.13,17.12,17.12,0,0,0-.8,5.87v6.4H235.54v-11q0-8.53,5.43-12.89t14.58-4.36q11.11,0,15.78,5.91T276,339.09q0,11.73-5.73,18.94t-16.77,7.2v7.38H239Zm-.45,37.79v-13H254v13Z"/>
  </g>
</svg>
