<svg xmlns="http://www.w3.org/2000/svg" viewBox="0 0 360.83 290.56">
  <g id="Layer_2" data-name="Layer 2">
    <g id="text">
      <path id="_8-1" data-name="8-1" d="M13,121.22,0,0H23.71l6.77,76.49L37.25,0H59.83l6.5,76.49L72.82,0h24L83.54,121.22H54.47L48.4,62.8l-5.78,58.42Zm84.81,0L109.51,0h41.06l11.57,121.22h-23l-1.69-19.61H122.77l-1.41,19.61Zm26.82-38.95h11L130.25,20.6h-1.13Zm43.74,39V0h23.43V121.22Zm43.61,0V23.28h-14.4V0h53.06V23.28H236.23v97.94Zm48.12,16.23,4.51-16.23h-8.75v-20.6h25.69v19.89l-6.92,16.94Z"/>
      <path id="_8-2" data-name="8-2" d="M13,290.56,0,169.34H23.71l6.77,76.49,6.77-76.49H59.83l6.5,76.49,6.49-76.49h24L83.54,290.56H54.47L48.4,232.14l-5.78,58.42Zm91,0V169.34h24.13v43.33h11.43V169.34H163.7V290.56H139.56v-55H128.13v55Zm67.17,0,11.72-121.22H224l11.57,121.22h-23L210.83,271H196.15l-1.41,19.61ZM198,251.61h11L203.63,190H202.5Zm55.31,38.95V192.63H238.91V169.34H292v23.29h-14.4v97.93Zm48.83-60q12.71,0,19.4-1.91a15.6,15.6,0,0,0,10-8.11q3.24-6.21,3.25-19.19a21.48,21.48,0,0,0-1.27-8.19c-.85-2-2.54-3-5.08-3s-4.38,1.13-5.22,3.38a27.3,27.3,0,0,0-1.28,9.32v10.16H296.63v-17.5q0-13.54,8.6-20.46t23.15-6.92q17.64,0,25,9.39T360.83,206q0,18.63-9.1,30.06t-26.6,11.43v11.71h-23Zm-.71,60V270H326v20.6Z"/>
    </g>
  </g>
</svg>
