<svg xmlns="http://www.w3.org/2000/svg" viewBox="0 0 354.63 396.11">
  <g id="Layer_2" data-name="Layer 2">
    <g id="text">
      <g id="_2-line" data-name="2-line">
        <path id="i" d="M3.27,89.8V0H20.62V89.8Zm23.62-26V52H53.24V63.77Zm32.62,26V0H76.86V89.8Z"/>
        <path id="kinda" d="M108.53,89.8V0H126.3V36l8.37-36h18.08l-10,41.08L154.84,89.8H136.23l-9.82-43.49V89.8Zm48.5,0V0h17.36V89.8Zm24.57,0V0h18.5l8.26,43V0h17.35V89.8H208.15l-9-44.95V89.8ZM233.66,0h24.77Q268,0,272.86,5.33t4.91,15.79l.21,42q.11,13.27-4.6,20T257.8,89.8H233.66Zm21.22,73.91c3.27,0,4.91-1.61,4.91-4.81V22.79a16.57,16.57,0,0,0-.47-4.55,3,3,0,0,0-1.73-2,10.82,10.82,0,0,0-3.86-.52h-2V73.91ZM282.79,89.8,291.46,0h30.42l8.57,89.8h-17l-1.25-14.53H301.29L300.24,89.8Zm19.86-28.86h8.15l-4-45.68H306Z"/>
        <path id="know" d="M3.77,177.42V105.81H17.94v28.68l6.67-28.68H39l-8,32.76,9.67,38.85H25.86L18,142.74v34.68Zm39.35,0V105.81H57.87l6.59,34.26V105.81H78.3v71.61h-14l-7.17-35.85v35.85Zm45.43-4.63q-4.5-5.28-4.5-14.88V123.82q0-9.25,4.5-14t13.17-4.71q8.67,0,13.17,4.71t4.5,14v34.09q0,9.68-4.5,14.93t-13.17,5.25Q93.05,178.09,88.55,172.79Zm15.75-9.54a12.87,12.87,0,0,0,.67-4.67v-35a9.92,9.92,0,0,0-.62-3.8,2.49,2.49,0,0,0-2.55-1.45q-3.58,0-3.58,5.41v34.93a11.29,11.29,0,0,0,.75,4.67,2.77,2.77,0,0,0,2.75,1.59A2.53,2.53,0,0,0,104.3,163.25Zm26.43,14.17-7.67-71.61h14l4,45.18,4-45.18h13.34L162.24,151l3.84-45.18h14.17l-7.84,71.61H155.24l-3.59-34.51-3.41,34.51Z"/>
        <path id="how" d="M193.66,177.42V105.81h14.25V131.4h6.75V105.81h14.26v71.61H214.66V144.91h-6.75v32.51Zm45.51-4.63q-4.5-5.28-4.5-14.88V123.82q0-9.25,4.5-14t13.17-4.71q8.67,0,13.17,4.71t4.51,14v34.09q0,9.68-4.51,14.93t-13.17,5.25Q243.67,178.09,239.17,172.79Zm15.76-9.54a13.12,13.12,0,0,0,.66-4.67v-35a9.73,9.73,0,0,0-.62-3.8,2.49,2.49,0,0,0-2.54-1.45q-3.59,0-3.59,5.41v34.93a11.29,11.29,0,0,0,.75,4.67,2.77,2.77,0,0,0,2.75,1.59A2.55,2.55,0,0,0,254.93,163.25Zm26.42,14.17-7.67-71.61h14l4,45.18,4-45.18H309L312.86,151l3.84-45.18h14.17L323,177.42H305.86l-3.58-34.51-3.42,34.51Z"/>
        <path id="you" d="M11.42,261.57V238L0,190H14.17l4,24.26,4-24.26H36.35L24.93,238v23.59Zm32.43-4.63q-4.5-5.28-4.5-14.88V208q0-9.25,4.5-14T57,189.3q8.67,0,13.17,4.7t4.5,14v34.09q0,9.67-4.5,14.93T57,262.24Q48.35,262.24,43.85,256.94ZM59.6,247.4a12.87,12.87,0,0,0,.67-4.67v-35a9.83,9.83,0,0,0-.62-3.79,2.48,2.48,0,0,0-2.55-1.46q-3.59,0-3.58,5.41v34.93a11.29,11.29,0,0,0,.75,4.67A2.77,2.77,0,0,0,57,249.07,2.53,2.53,0,0,0,59.6,247.4Zm24.3,9.84q-4.29-5-4.29-14.84V190H93.53v51.85a17,17,0,0,0,.67,5.34,3.07,3.07,0,0,0,5.67,0,16.91,16.91,0,0,0,.67-5.38V190h13.92V242.4q0,9.84-4.3,14.84t-13.12,5Q88.19,262.24,83.9,257.24Z"/>
        <path id="feel" d="M127.05,306.42V189.3H174v22.77H150.64v18.68h22.08v22.49H150.64v53.18Zm54.4,0V189.3h46.9v22.63h-23V234.7H227.4v22.09H205.31v26.86h24.54v22.77Zm56.17,0V189.3h46.9v22.63h-23V234.7h22.09v22.09H261.48v26.86H286v22.77Zm56.18,0V189.3h23.45v97.21h24.13v19.91Z"/>
        <path id="summer" d="M17.05,387.91Q9.7,379.71,9.7,361.45V349.56H33.61V364.7q0,9.06,5.8,9.06,3.26,0,4.53-1.91t1.27-6.44a29.19,29.19,0,0,0-1.41-9.83,21.51,21.51,0,0,0-3.61-6.51q-2.19-2.61-7.85-8.14L21.87,330.46Q9.69,318.58,9.7,304.15q0-15.57,7.14-23.7t20.87-8.14q16.41,0,23.63,8.7t7.22,27.24H43.8l-.14-8.35a5.32,5.32,0,0,0-1.35-3.82,5,5,0,0,0-3.75-1.41,5.42,5.42,0,0,0-4.24,1.55,6.07,6.07,0,0,0-1.42,4.25q0,5.94,6.79,12.31l14.15,13.58a80.92,80.92,0,0,1,8.21,9.13,35.65,35.65,0,0,1,5.23,10.18,43.77,43.77,0,0,1,2,13.94q0,18-6.59,27.24T41,396.11Q24.41,396.11,17.05,387.91Zm62.29,2.63q-4.77-5.55-4.77-16.46V315.93H90v57.51a18.41,18.41,0,0,0,.74,5.91,3.39,3.39,0,0,0,6.28,0,18.42,18.42,0,0,0,.74-6V315.93h15.44v58.15q0,10.92-4.76,16.46T93.9,396.09Q84.09,396.09,79.34,390.54Zm40,4.81V315.93h24.23l6.65,48.45,6.66-48.45h24.41v79.42H166.75V338.12l-9.15,57.23H143.36l-9.7-57.23v57.23Zm69,0V315.93h24.22l6.66,48.45,6.66-48.45h24.4v79.42H235.73V338.12l-9.16,57.23H212.34l-9.71-57.23v57.23Zm69,0V315.93h31.81v15.35H273.45v15.44h15v15h-15v18.22h16.64v15.44Zm38.09-79.42h24.41c3.88,0,6.89.88,9,2.63a13.12,13.12,0,0,1,4.3,7.4,55,55,0,0,1,1.11,12.16q0,6.75-1.75,10.54a9.91,9.91,0,0,1-6.1,5.27,7.37,7.37,0,0,1,5.22,3.6,15.81,15.81,0,0,1,1.62,7.77L333,395.35H317.46V364.28c0-2.22-.43-3.63-1.3-4.25s-2.43-.92-4.71-.92v36.24H295.36Zm20,29.4q3.33,0,3.33-7.21a28.84,28.84,0,0,0-.28-4.72,3.5,3.5,0,0,0-1-2.17,3.33,3.33,0,0,0-2.13-.6h-3.7v14.7Zm23.12,50v-13.5h16.18v13.5Z"/>
      </g>
    </g>
  </g>
</svg>
